<svg id="Layer_1" data-name="Layer 1" xmlns="http://www.w3.org/2000/svg" xmlns:xlink="http://www.w3.org/1999/xlink" viewBox="0 0 144 144"><defs><style>.cls-1{fill:none;}.cls-2{clip-path:url(#clip-path);}.cls-3{fill:#999;}.cls-4{fill:#fff;}</style><clipPath id="clip-path"><rect class="cls-1" width="144" height="144"/></clipPath></defs><title>btn-arrow</title><g class="cls-2"><path class="cls-3" d="M0,72c0,.37,0,.74,0,1.11,0-2.61.1-5.56.39-8.81A72.77,72.77,0,0,0,0,72Z"/><path class="cls-3" d="M72,0A72,72,0,0,0,1.43,57.69H58.5V21.54L112.77,72,58.5,122.46V86.34H1.43A72,72,0,1,0,72,0Z"/><path class="cls-4" d="M1.21,86.34h.22A72.29,72.29,0,0,1,0,73.11,63.91,63.91,0,0,0,1.21,86.34Z"/><path class="cls-4" d="M1.21,57.69C.86,60,.6,62.22.41,64.3q.36-3.35,1-6.61Z"/></g></svg>