<svg id="Layer_1" data-name="Layer 1" xmlns="http://www.w3.org/2000/svg" xmlns:xlink="http://www.w3.org/1999/xlink" viewBox="0 0 80.53 125.18"><defs><style>.cls-1{fill:none;}.cls-2{clip-path:url(#clip-path);}.cls-3{fill:#fff;}.cls-4{fill:#1a1a1a;}.cls-5{fill:url(#linear-gradient);}</style><clipPath id="clip-path" transform="translate(-0.35)"><rect class="cls-1" width="80.89" height="126.98"/></clipPath><linearGradient id="linear-gradient" x1="-16.4" y1="580.87" x2="-15.4" y2="580.87" gradientTransform="matrix(0, 17.21, 17.21, 0, -9968.47, 391)" gradientUnits="userSpaceOnUse"><stop offset="0" stop-color="#fff"/><stop offset="0.01" stop-color="#fafafa"/><stop offset="0.12" stop-color="#cac9ca"/><stop offset="0.24" stop-color="#a0a0a1"/><stop offset="0.36" stop-color="#7e7d7f"/><stop offset="0.48" stop-color="#646364"/><stop offset="0.6" stop-color="#515052"/><stop offset="0.72" stop-color="#464547"/><stop offset="0.86" stop-color="#424143"/><stop offset="1" stop-color="#424143"/></linearGradient></defs><title>footer-icon-hand</title><g class="cls-2"><path class="cls-3" d="M20.72,49a19.67,19.67,0,0,0-4.83-8.77A12.76,12.76,0,0,0,8.76,36,5.53,5.53,0,0,0,2.6,39.12a6.76,6.76,0,0,0-.2,5.47A36,36,0,0,1,4.52,58.83c-.15,2.59-.4,5.17-.6,7.76a10.59,10.59,0,0,1-.81,3.69A28.57,28.57,0,0,0,.47,84.82,19.87,19.87,0,0,0,6.06,97.36c1.77,1.8,3.59,3.56,5.36,5.37a19.68,19.68,0,0,0,13.2,6,30.72,30.72,0,0,0,18-4.63,39.45,39.45,0,0,0,7.75-5.94C53.5,95,56.57,91.9,59.67,88.8c2.93-2.93,5.81-5.9,8.81-8.75a8,8,0,0,0-.61-12.11,9.06,9.06,0,0,0-4.14-1.82,7.81,7.81,0,0,0,.55-8,8.31,8.31,0,0,0-6.51-4.71,7.88,7.88,0,0,0,.33-7.67A8.33,8.33,0,0,0,52,41.06c.15-.17.21-.26.29-.33q3.42-3.42,6.84-6.83a50,50,0,0,0,3.87-4,8.07,8.07,0,0,0-1.32-11,8,8,0,0,0-11,.2c-3.31,3.3-6.6,6.63-9.91,9.93L25,44.71c-1.41,1.4-2.8,2.82-4.28,4.31m25-43,1.51-1L46.06,3,44.34,4.18l1.41,1.88M42.94,8.43,44.3,7.17,42.88,5.62,41.3,6.94l1.65,1.49m-4.1,1.81,2,1.21,1-1.54L40,8.53l-1.15,1.72M77.15,30.69l-.79,1.67,2.08,1.09.87-1.86-2.17-.9m3.35-3.06-2.32-.43L77.76,29l2.24.67.5-2M36.08,17.94l2.33.37.36-1.81-2.27-.56-.42,2M54.14,2.58,53.76.26l-2,.42.57,2.26,1.81-.36M70.3,39.09l-1.58,1,1.14,2.07L71.61,41,70.3,39.09m7.1-3.86-2-1.31-1.1,1.49,1.82,1.48,1.23-1.66M50.58,3.47l-.81-2.22-1.9.81,1,2.11,1.69-.7m14.76,38,.72,2.24L68,43l-.91-2.16-1.73.64M80.78,25.6l.1-2H78.53v1.79l2.25.21M74.68,38.53l-1.61-1.71L71.76,38l1.5,1.81,1.41-1.29M39.26,14.74l.7-1.67-2.09-1L37.09,14l2.18.78M54.4,7.35l-1.79.48.53,1.53,1.6-.45L54.4,7.35m-3.52,1.2-1.61,1,.91,1.34L51.59,10l-.71-1.43M66.75,33.75l.94,1.32,1.44-1.18L68,32.7l-1.28,1M48.83,11.81l-1-1.14-1.37,1.27,1.2,1,1.2-1.17m15,23.46.58,1.5L66.07,36l-.75-1.42-1.51.68M43.18,18.57l1.56.34.45-1.6-1.53-.52-.48,1.79M73.8,24l-1.62-.08L72,25.56l1.57.29L73.8,24m-2.15,3.19c-.82,1.41-.73,1.66.76,2.11l.7-1.66-1.47-.46M45.3,13.42l-.81,1.69,1.34.65.83-1.43-1.36-.91M70.42,32.55,71.53,31l-1.41-.78-.92,1.25,1.23,1M80.69,20.49l-2.35.33.12.9,2.31-.21-.08-1m-42.51-.35L35.88,20l0,1h2.34ZM55.81.05,56,2.34h.86V0l-1,.05m7.26,44.35,1-.2-.51-2.28-.89.17.4,2.32m9.09-22.15,1.61-.15-.13-1-1.58.22.1.92M61.31,35.94l.28,1.56,1-.22-.37-1.53-.9.18M57.25,7.11h-1l.12,1.54h.86ZM42.89,21.4h1.57v-.86l-1.53-.09,0,.95" transform="translate(-0.35)"/><path class="cls-3" d="M20.72,49c1.48-1.49,2.87-2.91,4.28-4.31L40.72,29c3.31-3.31,6.59-6.63,9.91-9.93a8,8,0,0,1,11-.2,8.07,8.07,0,0,1,1.32,11,49.61,49.61,0,0,1-3.87,4q-3.41,3.43-6.84,6.83c-.08.08-.15.17-.29.33a8.33,8.33,0,0,1,6.14,4.67,7.88,7.88,0,0,1-.33,7.67,8.31,8.31,0,0,1,6.51,4.71,7.82,7.82,0,0,1-.55,8,9,9,0,0,1,4.14,1.82,8,8,0,0,1,.61,12.11c-3,2.85-5.89,5.82-8.81,8.75-3.1,3.1-6.17,6.23-9.28,9.32a39.44,39.44,0,0,1-7.75,5.94,30.72,30.72,0,0,1-18,4.63,19.68,19.68,0,0,1-13.19-6c-1.77-1.81-3.59-3.57-5.36-5.37A19.87,19.87,0,0,1,.47,84.82,28.56,28.56,0,0,1,3.11,70.27a10.61,10.61,0,0,0,.81-3.69c.2-2.59.45-5.17.6-7.76A36,36,0,0,0,2.4,44.59a6.76,6.76,0,0,1,.2-5.47A5.52,5.52,0,0,1,8.76,36a12.76,12.76,0,0,1,7.13,4.25A19.65,19.65,0,0,1,20.72,49m6.78,56.42c.69-.06,1.61-.08,2.51-.23a32.33,32.33,0,0,0,17.61-9.08C53.91,90,60.08,83.73,66.29,77.5a4.77,4.77,0,0,0-6.78-6.69l-6.65,6.64a1.8,1.8,0,1,1-2.56-2.53L60.47,64.76a4.24,4.24,0,0,0,1.14-4.38,4.82,4.82,0,0,0-8.14-2.15c-3.21,3.4-6.59,6.64-9.9,9.94A1.79,1.79,0,1,1,41,65.64q6.52-6.53,13.06-13a4.44,4.44,0,0,0,1.45-4.06,4.79,4.79,0,0,0-3.38-4,4.26,4.26,0,0,0-4.68,1.14c-2.17,2.19-4.37,4.37-6.55,6.55s-4.46,4.47-6.69,6.69a1.7,1.7,0,0,1-2.73-.16,1.74,1.74,0,0,1,.34-2.35L46.47,41.82,56.63,31.66c1.15-1.15,2.39-2.24,3.45-3.46a4.76,4.76,0,0,0-.57-6.74,4.68,4.68,0,0,0-6.69.14L39.15,35.26,29.36,45l-8.62,8.65a1.67,1.67,0,0,1-1.88.52,1.69,1.69,0,0,1-1.11-1.6,19.37,19.37,0,0,0-.29-2.67,15.35,15.35,0,0,0-6.17-9.28,8.87,8.87,0,0,0-2.77-1.28,2.39,2.39,0,0,0-3.23,2.43,5.56,5.56,0,0,0,.34,1.89A37.37,37.37,0,0,1,7.86,56.93c-.11,3.82-.51,7.63-.73,11.45a7.59,7.59,0,0,1-.8,2.8A26.46,26.46,0,0,0,3.7,83.26a17,17,0,0,0,4.93,12c1.65,1.64,3.33,3.26,4.94,4.94,3.75,3.92,8.43,5.38,13.94,5.27" transform="translate(-0.35)"/><path class="cls-3" d="M45.75,6.06,44.34,4.18,46.06,3l1.21,2-1.52,1" transform="translate(-0.35)"/><path class="cls-3" d="M42.94,8.43,41.3,6.94l1.58-1.33L44.3,7.17,42.94,8.43" transform="translate(-0.35)"/><path class="cls-3" d="M38.84,10.24,40,8.53l1.89,1.39-1,1.54-2-1.21" transform="translate(-0.35)"/><path class="cls-3" d="M77.15,30.69l2.16.91-.87,1.86-2.08-1.09.79-1.67" transform="translate(-0.35)"/><path class="cls-3" d="M80.5,27.64l-.5,2L77.76,29l.42-1.78,2.32.43" transform="translate(-0.35)"/><path class="cls-3" d="M36.08,17.95l.42-2,2.27.56-.36,1.81-2.32-.37" transform="translate(-0.35)"/><path class="cls-3" d="M54.14,2.58l-1.81.36L51.76.68l2-.42.38,2.32" transform="translate(-0.35)"/><path class="cls-3" d="M70.3,39.09,71.61,41l-1.75,1.08L68.72,40l1.58-1" transform="translate(-0.35)"/><path class="cls-3" d="M77.39,35.24,76.16,36.9l-1.82-1.48,1.1-1.49,2,1.3" transform="translate(-0.35)"/><path class="cls-3" d="M50.58,3.47l-1.69.7-1-2.11,1.9-.81.81,2.22" transform="translate(-0.35)"/><path class="cls-3" d="M65.34,41.47l1.73-.64L68,43l-1.92.72-.72-2.24" transform="translate(-0.35)"/><path class="cls-3" d="M80.78,25.6l-2.25-.21V23.6h2.36c0,.67-.07,1.28-.1,2" transform="translate(-0.35)"/><path class="cls-3" d="M74.68,38.53l-1.41,1.29L71.76,38l1.3-1.19,1.62,1.71" transform="translate(-0.35)"/><path class="cls-3" d="M39.26,14.74,37.09,14l.79-1.9,2.09,1-.7,1.67" transform="translate(-0.35)"/><path class="cls-3" d="M54.4,7.35l.33,1.56-1.6.45L52.6,7.84l1.79-.48" transform="translate(-0.35)"/><path class="cls-3" d="M50.88,8.56,51.59,10l-1.42.86-.91-1.34,1.61-1" transform="translate(-0.35)"/><path class="cls-3" d="M66.75,33.75l1.28-1,1.1,1.18-1.44,1.19-.94-1.32" transform="translate(-0.35)"/><path class="cls-3" d="M48.83,11.81,47.63,13l-1.2-1,1.36-1.27,1,1.14" transform="translate(-0.35)"/><path class="cls-3" d="M63.8,35.28l1.51-.68L66.07,36l-1.69.76-.58-1.51" transform="translate(-0.35)"/><path class="cls-3" d="M43.18,18.57l.48-1.78,1.53.52-.45,1.6-1.56-.34" transform="translate(-0.35)"/><path class="cls-3" d="M73.8,24l-.24,1.84L72,25.56l.19-1.64L73.8,24" transform="translate(-0.35)"/><path class="cls-3" d="M71.65,27.19l1.47.46-.7,1.66c-1.49-.45-1.59-.71-.76-2.11" transform="translate(-0.35)"/><path class="cls-3" d="M45.3,13.42l1.36.91-.83,1.43-1.34-.65.81-1.69" transform="translate(-0.35)"/><path class="cls-3" d="M70.42,32.55l-1.23-1,.92-1.25,1.42.79-1.11,1.51" transform="translate(-0.35)"/><path class="cls-3" d="M80.69,20.49l.08,1-2.31.21-.12-.9,2.35-.33" transform="translate(-0.35)"/><path class="cls-3" d="M38.18,20.14V21H35.84l0-1,2.3.14" transform="translate(-0.35)"/><path class="cls-3" d="M55.81.05l1-.05V2.34H56L55.81.05" transform="translate(-0.35)"/><path class="cls-3" d="M63.07,44.41l-.4-2.32.89-.17.51,2.28-1,.2" transform="translate(-0.35)"/><path class="cls-3" d="M72.16,22.26l-.11-.92,1.58-.22.13,1-1.61.15" transform="translate(-0.35)"/><path class="cls-3" d="M61.31,35.94l.89-.18.37,1.53-1,.22-.28-1.56" transform="translate(-0.35)"/><path class="cls-3" d="M57.25,7.11V8.65h-.87l-.12-1.54Z" transform="translate(-0.35)"/><path class="cls-3" d="M42.89,21.4l0-.95,1.53.09v.86Z" transform="translate(-0.35)"/><path class="cls-4" d="M27.5,105.44c-5.52.11-10.19-1.35-13.94-5.27-1.61-1.68-3.29-3.29-4.94-4.94a17,17,0,0,1-4.93-12A26.46,26.46,0,0,1,6.33,71.18a7.59,7.59,0,0,0,.8-2.8c.22-3.82.61-7.63.73-11.45A37.37,37.37,0,0,0,5.63,43.7a5.56,5.56,0,0,1-.34-1.89,2.39,2.39,0,0,1,3.23-2.43,8.87,8.87,0,0,1,2.77,1.28,15.35,15.35,0,0,1,6.17,9.28,19.37,19.37,0,0,1,.29,2.67,1.69,1.69,0,0,0,1.11,1.6,1.67,1.67,0,0,0,1.88-.52L29.36,45l9.79-9.77L52.83,21.6a4.68,4.68,0,0,1,6.69-.14,4.76,4.76,0,0,1,.57,6.74c-1.07,1.23-2.3,2.31-3.45,3.46L46.47,41.82,31.85,56.43a1.74,1.74,0,0,0-.34,2.35,1.7,1.7,0,0,0,2.73.16q3.36-3.34,6.69-6.69c2.18-2.18,4.37-4.36,6.55-6.55a4.26,4.26,0,0,1,4.68-1.14,4.79,4.79,0,0,1,3.38,4,4.44,4.44,0,0,1-1.45,4.06q-6.56,6.5-13.06,13a1.79,1.79,0,1,0,2.54,2.52c3.31-3.3,6.69-6.54,9.9-9.94a4.82,4.82,0,0,1,8.14,2.15,4.24,4.24,0,0,1-1.14,4.38L50.31,74.92a1.8,1.8,0,1,0,2.56,2.53l6.65-6.64a4.77,4.77,0,0,1,6.78,6.69C60.08,83.73,53.91,90,47.63,96.14A32.33,32.33,0,0,1,30,105.22c-.9.15-1.82.17-2.51.23" transform="translate(-0.35)"/><path class="cls-5" d="M6.61,119.15a21,21,0,0,1,18.14-9.82c12.5.11,24.8,8.86,27.27,14.47a1,1,0,0,1-1.85.77c-1.69-4.39-13.93-13.35-25.42-13.24-6.11,0-12,2.33-16.48,8.94a1,1,0,1,1-1.66-1.12Z" transform="translate(-0.35)"/></g></svg>