<?xml version="1.0" encoding="utf-8"?>
<!-- Generator: Adobe Illustrator 21.1.0, SVG Export Plug-In . SVG Version: 6.00 Build 0)  -->
<svg version="1.1" id="Layer_1" xmlns="http://www.w3.org/2000/svg" xmlns:xlink="http://www.w3.org/1999/xlink" x="0px" y="0px"
	 viewBox="0 0 2000 25" style="enable-background:new 0 0 2000 25;" xml:space="preserve">
<style type="text/css">
	.st0{fill:#BFD730;}
	.st1{clip-path:url(#SVGID_2_);}
	.st2{fill:#09B261;}
	.st3{fill:#ED0F69;}
	.st4{fill:#8B1820;}
	.st5{fill:#01949F;}
	.st6{fill:#26B3E8;}
	.st7{fill:#047B8D;}
</style>
<title>footer-texture</title>
<polygon class="st0" points="1193.9,0 1172.6,25 1640.4,25 1699.5,0 "/>
<g>
	<defs>
		<rect id="SVGID_1_" width="2000" height="25"/>
	</defs>
	<clipPath id="SVGID_2_">
		<use xlink:href="#SVGID_1_"  style="overflow:visible;"/>
	</clipPath>
	<g class="st1">
		<path class="st0" d="M2257.8,1469.8L604.8,242.6c-7.3-5.4-2.1-28.2,6.3-25L3146.1,944L2257.8,1469.8z"/>
	</g>
</g>
<polygon class="st2" points="768.2,0 778.8,25 1172.7,25 1193.9,0 "/>
<polygon class="st3" points="0,0 0,25 124.2,25 130.5,0 "/>
<polygon class="st4" points="130.5,0 124.2,25 301.2,25 329.5,0 "/>
<polygon class="st5" points="329.5,0 301.2,25 778.8,25 768.2,0 "/>
<polygon class="st6" points="1699.9,0 1640.7,25 1768.7,25 1746.1,0 "/>
<polygon class="st7" points="1700.6,0 1675.2,10.9 1689.1,25 2000,25 2000,0 "/>
</svg>
