<svg id="Layer_1" data-name="Layer 1" xmlns="http://www.w3.org/2000/svg" viewBox="0 0 145.11 148.71"><defs><style>.cls-1{fill:#808284;}.cls-2{fill:none;stroke:#808284;stroke-miterlimit:10;stroke-width:7px;}</style></defs><title>icons-numbers</title><path class="cls-1" d="M72.71,64.64a31.65,31.65,0,0,1,11.67,2.12,28.78,28.78,0,0,1,9.43,6,27.78,27.78,0,0,1,6.35,9.17,29.19,29.19,0,0,1,2.31,11.74A29.92,29.92,0,0,1,100,106a28.37,28.37,0,0,1-6.8,9.49,31.16,31.16,0,0,1-10.07,6.09,36,36,0,0,1-21.61,1A30.94,30.94,0,0,1,53.35,119a33.3,33.3,0,0,1-6.73-5.52,28.65,28.65,0,0,1-4.94-7.18L47.45,102a28.19,28.19,0,0,0,9.81,10.13,25.46,25.46,0,0,0,13.66,3.85,24.13,24.13,0,0,0,8.85-1.6,21.68,21.68,0,0,0,7.18-4.55,20.91,20.91,0,0,0,4.81-7.05,22.86,22.86,0,0,0,1.73-9,21.89,21.89,0,0,0-1.67-8.66,20.14,20.14,0,0,0-4.62-6.73A20.76,20.76,0,0,0,80.28,74a23.6,23.6,0,0,0-8.59-1.54,25.3,25.3,0,0,0-11.35,2.63,21.91,21.91,0,0,0-8.66,7.63H43.6q.13-.77.64-3.46t1.28-6.41q.77-3.72,1.67-8.27T49,55.4q2.18-10.77,4.75-24h44V39.5H60.27L54,72.21a22.89,22.89,0,0,1,8.14-5.58A27.45,27.45,0,0,1,72.71,64.64Z"/><circle class="cls-2" cx="72.55" cy="76.16" r="69.05"/></svg>