<svg id="Layer_1" data-name="Layer 1" xmlns="http://www.w3.org/2000/svg" viewBox="0 0 145.11 148.71"><defs><style>.cls-1{fill:#808284;}.cls-2{fill:none;stroke:#808284;stroke-miterlimit:10;stroke-width:7px;}</style></defs><title>icons-numbers</title><path class="cls-1" d="M44.83,109.66a51.24,51.24,0,0,1,.77-8.79,30.61,30.61,0,0,1,3-8.79A32.54,32.54,0,0,1,55,83.69a46.88,46.88,0,0,1,11.09-7.63q3.72-1.92,7.76-3.78a51.53,51.53,0,0,0,7.44-4.17,23.39,23.39,0,0,0,5.58-5.19,10.86,10.86,0,0,0,2.18-6.73A11.44,11.44,0,0,0,88,51.37a12.66,12.66,0,0,0-3.21-4.23,16.51,16.51,0,0,0-5.26-3A21.37,21.37,0,0,0,72.15,43a22,22,0,0,0-7.57,1.22,27.63,27.63,0,0,0-5.84,2.89,26,26,0,0,0-4.3,3.53,39.72,39.72,0,0,0-2.69,3L46,47.33q.77-.77,3-2.82a31.35,31.35,0,0,1,5.71-4.1,45.41,45.41,0,0,1,8.27-3.66,33.14,33.14,0,0,1,10.65-1.6,32,32,0,0,1,10.52,1.6,23.26,23.26,0,0,1,7.82,4.42,19.22,19.22,0,0,1,4.87,6.48,18.21,18.21,0,0,1,1.67,7.63,17.36,17.36,0,0,1-2.31,9.11,26,26,0,0,1-5.71,6.67,40.2,40.2,0,0,1-7.25,4.81q-3.85,2-6.93,3.4a83.23,83.23,0,0,0-8,4,43.28,43.28,0,0,0-7,4.94,25,25,0,0,0-5.07,6,14.24,14.24,0,0,0-2,7.44H99.85v8Z"/><circle class="cls-2" cx="72.55" cy="76.16" r="69.05"/></svg>