<svg id="Layer_1" data-name="Layer 1" xmlns="http://www.w3.org/2000/svg" viewBox="0 0 216 216"><defs><style>.cls-1{fill:#ed0f69;}.cls-2{fill:#231f20;}.cls-3,.cls-4{fill:#fff;}.cls-4{stroke:#fff;stroke-miterlimit:10;stroke-width:6.53px;}</style></defs><title>icons</title><polygon class="cls-1" points="161.97 18.4 54.19 18.4 0.31 111.73 54.19 205.06 161.97 205.06 215.85 111.73 161.97 18.4"/><polygon class="cls-2" points="156.33 26.23 59.28 26.23 10.75 111.38 59.28 196.54 156.33 196.54 204.86 111.38 156.33 26.23"/><path class="cls-3" d="M131.69,81.94H83V68a4.29,4.29,0,0,1,4.29-4.29h40.11a4.29,4.29,0,0,1,4.3,4.29Z"/><path class="cls-3" d="M146.1,81.94H138v18.57H76.68V81.94H68.5a9.91,9.91,0,0,0-9.91,9.91v35.31a9.91,9.91,0,0,0,9.91,9.91h8.18V118.5H138v18.57h8.11a9.91,9.91,0,0,0,9.91-9.91V91.85a9.91,9.91,0,0,0-9.91-9.91"/><line class="cls-4" x1="85.49" y1="139.75" x2="128.98" y2="139.75"/><path class="cls-3" d="M131.69,124.45H83V151.5a3.55,3.55,0,0,0,3.55,3.55h41.61a3.55,3.55,0,0,0,3.54-3.55Zm-6,24.65H88.94V130.42h36.79Z"/></svg>