<svg id="Layer_1" data-name="Layer 1" xmlns="http://www.w3.org/2000/svg" viewBox="0 0 216 216"><defs><style>.cls-1{fill:#adc32b;}.cls-2{fill:#231f20;}.cls-3{fill:#fff;}</style></defs><title>icons</title><polygon class="cls-1" points="161.97 18.4 54.19 18.4 0.31 111.73 54.19 205.06 161.97 205.06 215.85 111.73 161.97 18.4"/><polygon class="cls-2" points="156.33 26.23 59.28 26.23 10.76 111.38 59.28 196.54 156.33 196.54 204.86 111.38 156.33 26.23"/><path class="cls-3" d="M108.08,62.46a49.33,49.33,0,0,0-49.27,49.27h0a49.26,49.26,0,0,0,84.27,34.66,4,4,0,0,0-.19-5.68L135.11,133a7.12,7.12,0,0,0,.51-7.74,21,21,0,0,0-8.33-8.62,8,8,0,0,0-4.05-1.21,6.86,6.86,0,0,0-1.54.18,13.79,13.79,0,0,0-4.93,2.4,3.07,3.07,0,0,1-1.88.58,4.46,4.46,0,0,1-2.51-.8A59.85,59.85,0,0,1,100,105.42a4,4,0,0,1-.23-4.39,13.68,13.68,0,0,0,2.4-4.93,7.35,7.35,0,0,0-1-5.58,21,21,0,0,0-8.62-8.33,7.72,7.72,0,0,0-3.57-.93,7.38,7.38,0,0,0-5.41,2.51,57.31,57.31,0,0,0-4.11,5c-1.32,1.77-1.21,3.81-1.12,5.61v0a23.3,23.3,0,0,0,2.61,8.26A61.24,61.24,0,0,0,92.6,118.8c1.06,1.09,5.31,5.33,6.4,6.4a61.35,61.35,0,0,0,16.09,11.7,23.3,23.3,0,0,0,8.26,2.61h0c.47,0,1,.05,1.46.05a6.8,6.8,0,0,0,4-1.09l5.11,5a41,41,0,0,1-66.92-31.78h0a41,41,0,0,1,82.05,0,4.12,4.12,0,1,0,8.24,0A49.33,49.33,0,0,0,108.08,62.46Z"/></svg>