<svg id="Layer_1" data-name="Layer 1" xmlns="http://www.w3.org/2000/svg" viewBox="0 0 145.11 148.71"><defs><style>.cls-1{fill:#808284;}.cls-2{fill:none;stroke:#808284;stroke-miterlimit:10;stroke-width:7px;}</style></defs><title>icons-numbers</title><path class="cls-1" d="M83.18,71.38a21.22,21.22,0,0,1,13.53,7.7q5.07,6.29,5.07,15.52a26,26,0,0,1-2.12,10.58,23,23,0,0,1-6,8.21,27.81,27.81,0,0,1-9.36,5.26,37.41,37.41,0,0,1-12.12,1.86,35.63,35.63,0,0,1-17.06-3.91,26.2,26.2,0,0,1-11-10.84l6-5.51a20.78,20.78,0,0,0,8.21,9q5.51,3.33,13.85,3.33,9.62,0,15.13-4.68t5.51-13.4q0-8.85-5.77-14T70.35,75.36H67.15V67.92h3.46q9.87,0,15.13-4.55A15,15,0,0,0,91,51.5a15.6,15.6,0,0,0-1.41-6.8,13.87,13.87,0,0,0-3.91-4.94,17.54,17.54,0,0,0-5.9-3,25.46,25.46,0,0,0-7.37-1A25,25,0,0,0,59.52,39a20.92,20.92,0,0,0-8.4,9l-5.64-5.39a20.52,20.52,0,0,1,4.36-6.09,28.08,28.08,0,0,1,6.41-4.68,34.47,34.47,0,0,1,8-3,37,37,0,0,1,9-1.09A33.75,33.75,0,0,1,84,29.44a26.15,26.15,0,0,1,8.53,4.68,21.07,21.07,0,0,1,5.58,7.25,21.77,21.77,0,0,1,2,9.36A23.55,23.55,0,0,1,99,58.11a20.14,20.14,0,0,1-3.33,6.28A19.13,19.13,0,0,1,90.3,69,18.43,18.43,0,0,1,83.18,71.38Z"/><circle class="cls-2" cx="72.55" cy="76.16" r="69.05"/></svg>