<svg id="Layer_1" data-name="Layer 1" xmlns="http://www.w3.org/2000/svg" viewBox="0 0 145.11 148.71"><defs><style>.cls-1{fill:#808284;}.cls-2{fill:none;stroke:#808284;stroke-miterlimit:10;stroke-width:7px;}</style></defs><title>icons-numbers</title><path class="cls-1" d="M104.88,91.66a30.18,30.18,0,0,1-2.5,12.25,31.11,31.11,0,0,1-6.86,9.94,32.22,32.22,0,0,1-10.26,6.67,34.4,34.4,0,0,1-25.91-.19A29,29,0,0,1,49,112.82a35,35,0,0,1-6.73-12,49.09,49.09,0,0,1-2.44-16,106.1,106.1,0,0,1,2.44-24.18A54.85,54.85,0,0,1,49.15,43.5,29.3,29.3,0,0,1,59.73,33.3,28.34,28.34,0,0,1,73.46,30a30.11,30.11,0,0,1,16.29,4.49,28.64,28.64,0,0,1,10.9,12.44L95,52A22.95,22.95,0,0,0,73.46,37.66,20,20,0,0,0,63.2,40.35a23.53,23.53,0,0,0-7.89,7.76,41.55,41.55,0,0,0-5.13,12.5,69.43,69.43,0,0,0-1.86,16.8A24.18,24.18,0,0,1,58,65.36a27.82,27.82,0,0,1,15.58-4.49,31.6,31.6,0,0,1,12.25,2.37A30.52,30.52,0,0,1,102.44,79.6,30.1,30.1,0,0,1,104.88,91.66Zm-32.06,23.6A22.83,22.83,0,0,0,82,113.39a24.73,24.73,0,0,0,7.57-5.07,23.42,23.42,0,0,0,5.13-7.5,22.86,22.86,0,0,0,1.86-9.17,22.19,22.19,0,0,0-1.92-9.17A24.32,24.32,0,0,0,89.42,75a24.79,24.79,0,0,0-7.57-5.07,23.54,23.54,0,0,0-18.34,0A24.77,24.77,0,0,0,55.95,75a23.43,23.43,0,0,0-5.13,7.5A22.83,22.83,0,0,0,49,91.66a21.73,21.73,0,0,0,1.92,9.11,25.36,25.36,0,0,0,5.19,7.5,24.14,24.14,0,0,0,7.57,5.13A22.82,22.82,0,0,0,72.81,115.25Z"/><circle class="cls-2" cx="72.55" cy="76.16" r="69.05"/></svg>