<svg id="Layer_1" data-name="Layer 1" xmlns="http://www.w3.org/2000/svg" viewBox="0 0 216 216"><defs><style>.cls-1{fill:#26b3e8;}.cls-2{fill:#231f20;}.cls-3{fill:#fff;}</style></defs><title>icons</title><polygon class="cls-1" points="162 18.2 54 18.2 0 111.73 54 205.26 162 205.26 216 111.73 162 18.2"/><polygon class="cls-2" points="156.36 26.05 59.1 26.05 10.47 111.38 59.1 196.72 156.36 196.72 204.99 111.38 156.36 26.05"/><path class="cls-3" d="M65.23,80.55s-6.81,0-6.81,6.81V137s0,6.81,6.81,6.81h84s6.81,0,6.81-6.81V87.36s0-6.81-6.81-6.81Z"/><path class="cls-2" d="M157.55,134.49a22.22,22.22,0,0,1-3.92,5.21,24.41,24.41,0,0,1-5.15,3.89,25,25,0,0,1-6,2.42,25.45,25.45,0,0,1-6.44.83,25,25,0,0,1-17.93-7.44,25.47,25.47,0,0,1-7.24-17.93,24,24,0,0,1,2-9.73,25.39,25.39,0,0,1,5.41-7.94,25.72,25.72,0,0,1,7.94-5.35,23.79,23.79,0,0,1,9.57-2,25.47,25.47,0,0,1,9,1.56,22.4,22.4,0,0,1,7.27,4.35,20.52,20.52,0,0,1,4.88,6.64,20.42,20.42,0,0,1,.37,15.88,23,23,0,0,1-3.65,6.18,18.18,18.18,0,0,1-5,4.22,10.94,10.94,0,0,1-5.41,1.56,7.69,7.69,0,0,1-3.42-.83,4.34,4.34,0,0,1-2.29-2.62,11.34,11.34,0,0,1-3.65,2.42,10.86,10.86,0,0,1-4.25.9,9.09,9.09,0,0,1-3.85-.79,8.66,8.66,0,0,1-2.92-2.15,9.47,9.47,0,0,1-1.83-3.15,11.45,11.45,0,0,1-.63-3.84,21.43,21.43,0,0,1,1.2-6.86,23.79,23.79,0,0,1,3.35-6.5,18.59,18.59,0,0,1,5.18-4.84,12.46,12.46,0,0,1,6.74-1.89,9,9,0,0,1,4.38,1.13,7,7,0,0,1,3.06,3.25l1-3h4.45l-6.71,20a21.4,21.4,0,0,0-.63,2.09,5.22,5.22,0,0,0-.17,1.69,1.8,1.8,0,0,0,.5,1.16,2,2,0,0,0,1.43.43,6.35,6.35,0,0,0,4-1.53A14.94,14.94,0,0,0,151.5,128a21.93,21.93,0,0,0,2.32-5.21,19,19,0,0,0,.86-5.51,17,17,0,0,0-1.53-7.31,16.55,16.55,0,0,0-4.12-5.51,18.23,18.23,0,0,0-6-3.45,21.37,21.37,0,0,0-7.17-1.2,20.39,20.39,0,0,0-15.14,6.54,22,22,0,0,0-4.35,7,23.37,23.37,0,0,0-1.56,8.54,21.76,21.76,0,0,0,1.63,8.44,21.44,21.44,0,0,0,4.48,6.84,21.22,21.22,0,0,0,6.71,4.62,20.56,20.56,0,0,0,8.37,1.69,21.73,21.73,0,0,0,9.86-2.36,21,21,0,0,0,4.25-2.86,22,22,0,0,0,3.49-3.82Zm-27-1.93a6.15,6.15,0,0,0,4.25-1.86,18.77,18.77,0,0,0,3.49-4.48,25.9,25.9,0,0,0,2.36-5.58,18.91,18.91,0,0,0,.86-5.21,5,5,0,0,0-1.26-3.39,4.18,4.18,0,0,0-3.32-1.46,7.67,7.67,0,0,0-4.78,1.63,14.87,14.87,0,0,0-3.62,4.05,21.83,21.83,0,0,0-2.32,5.18,17.52,17.52,0,0,0-.83,5,7.12,7.12,0,0,0,1.33,4.25A4.44,4.44,0,0,0,130.58,132.57Z"/></svg>