<svg id="Layer_1" data-name="Layer 1" xmlns="http://www.w3.org/2000/svg" viewBox="0 0 145.11 148.71"><defs><style>.cls-1{fill:#808284;}.cls-2{fill:none;stroke:#808284;stroke-miterlimit:10;stroke-width:7px;}</style></defs><title>icons-numbers</title><path class="cls-1" d="M95.26,101.71v8H51.78v-8H70V46.81a14.14,14.14,0,0,1-3.53,3.33A42.79,42.79,0,0,1,61,53.48,41.4,41.4,0,0,1,54.73,56a18.83,18.83,0,0,1-5.64,1V48.61a15.31,15.31,0,0,0,6.48-1.67,46.54,46.54,0,0,0,6.67-3.85A58.67,58.67,0,0,0,67.56,39,11.09,11.09,0,0,0,70,36.42h9v65.28Z"/><circle class="cls-2" cx="72.55" cy="76.16" r="69.05"/></svg>