<?xml version="1.0" encoding="utf-8"?>
<!-- Generator: Adobe Illustrator 21.1.0, SVG Export Plug-In . SVG Version: 6.00 Build 0)  -->
<svg version="1.1" id="Layer_1" xmlns="http://www.w3.org/2000/svg" xmlns:xlink="http://www.w3.org/1999/xlink" x="0px" y="0px"
	 viewBox="0 0 794 396.2" style="enable-background:new 0 0 794 396.2;" xml:space="preserve">
<style type="text/css">
	.st0{fill:#8F0028;}
	.st1{fill:#231F20;}
</style>
<rect y="97.5" class="st0" width="288.3" height="288.3"/>
<g>
	<path class="st1" d="M340.4,133.4V97.4h15.2c1.7,0,3.2,0.3,4.6,1c1.4,0.7,2.6,1.6,3.6,2.7c1,1.1,1.8,2.4,2.4,3.8
		c0.6,1.4,0.9,2.9,0.9,4.3c0,1.5-0.3,3-0.8,4.4c-0.5,1.4-1.3,2.7-2.3,3.8c-1,1.1-2.2,2-3.5,2.7c-1.4,0.7-2.9,1-4.6,1h-8.5v12H340.4z
		 M347.4,115.2h8.1c1.3,0,2.4-0.5,3.2-1.6c0.9-1,1.3-2.5,1.3-4.3c0-0.9-0.1-1.7-0.4-2.5s-0.6-1.3-1.1-1.8c-0.4-0.5-1-0.9-1.5-1.1
		c-0.6-0.3-1.2-0.4-1.8-0.4h-7.8V115.2z"/>
	<path class="st1" d="M401.2,133.4v-23.8l-9.3,17.7h-3.8l-9.3-17.7v23.8h-7V97.4h7.5l10.6,20.4l10.7-20.4h7.4v35.9H401.2z"/>
	<path class="st1" d="M437.1,106.9c-0.2-0.2-0.7-0.6-1.3-1s-1.4-0.8-2.3-1.2c-0.9-0.4-1.9-0.7-2.9-1c-1-0.3-2.1-0.4-3.2-0.4
		c-1.9,0-3.4,0.4-4.3,1.1c-0.9,0.7-1.4,1.7-1.4,3c0,0.7,0.2,1.4,0.5,1.8c0.4,0.5,0.9,0.9,1.5,1.3c0.7,0.4,1.5,0.7,2.6,1
		c1,0.3,2.2,0.6,3.6,1c1.8,0.5,3.3,1,4.8,1.5c1.4,0.5,2.6,1.2,3.6,2c1,0.8,1.8,1.8,2.3,2.9c0.5,1.1,0.8,2.5,0.8,4.2
		c0,1.9-0.4,3.6-1.1,4.9c-0.7,1.4-1.7,2.5-2.9,3.3c-1.2,0.8-2.6,1.5-4.3,1.8c-1.6,0.4-3.3,0.6-5,0.6c-2.7,0-5.4-0.4-8-1.2
		c-2.6-0.8-5-2-7.1-3.4l3.1-6c0.3,0.3,0.9,0.7,1.6,1.2c0.8,0.5,1.7,1,2.8,1.5c1.1,0.5,2.3,0.9,3.6,1.2c1.3,0.3,2.7,0.5,4,0.5
		c3.8,0,5.8-1.2,5.8-3.7c0-0.8-0.2-1.4-0.7-2c-0.4-0.5-1.1-1-1.9-1.4s-1.8-0.8-2.9-1.1c-1.1-0.3-2.4-0.7-3.8-1.1
		c-1.7-0.5-3.2-1-4.5-1.5c-1.3-0.6-2.3-1.2-3.2-2c-0.8-0.8-1.5-1.6-1.9-2.6c-0.4-1-0.6-2.2-0.6-3.6c0-1.8,0.3-3.4,1-4.9
		c0.7-1.4,1.6-2.6,2.8-3.5c1.2-0.9,2.6-1.7,4.2-2.2c1.6-0.5,3.3-0.7,5.1-0.7c2.5,0,4.9,0.4,7,1.2c2.1,0.8,4,1.7,5.6,2.8L437.1,106.9
		z"/>
</g>
<g>
	<path class="st1" d="M458,133.4c0-1.3,0.1-2.6,0.3-3.8c0.2-1.2,0.6-2.3,1.2-3.4c0.6-1.1,1.4-2.1,2.5-3.1c1.1-1,2.5-2,4.2-2.9
		c1-0.5,2-1.1,3.1-1.6c1-0.5,2-1.1,2.9-1.7c0.9-0.6,1.6-1.2,2.1-1.9c0.6-0.7,0.8-1.5,0.8-2.4c0-0.6-0.1-1.1-0.4-1.7
		c-0.3-0.6-0.7-1.1-1.2-1.5c-0.5-0.4-1.1-0.8-1.9-1.1c-0.8-0.3-1.6-0.4-2.6-0.4c-1,0-1.9,0.1-2.8,0.4c-0.8,0.3-1.6,0.6-2.2,1.1
		c-0.6,0.4-1.2,0.9-1.7,1.3c-0.5,0.5-0.9,0.9-1.2,1.3l-2.9-3.2c0.3-0.3,0.7-0.7,1.4-1.2c0.6-0.5,1.5-1.1,2.4-1.6
		c1-0.5,2.1-1,3.4-1.4c1.3-0.4,2.7-0.6,4.3-0.6c1.6,0,3,0.2,4.2,0.6c1.2,0.4,2.3,1,3.2,1.7c0.9,0.7,1.5,1.6,2,2.6
		c0.5,1,0.7,2,0.7,3.2c0,1.3-0.3,2.5-0.9,3.4c-0.6,1-1.3,1.8-2.1,2.6c-0.8,0.7-1.7,1.4-2.7,1.9c-0.9,0.5-1.8,1-2.5,1.3
		c-0.7,0.4-1.6,0.8-2.5,1.3c-0.9,0.5-1.8,1.1-2.7,1.8c-0.8,0.7-1.6,1.4-2.2,2.2c-0.6,0.8-1,1.7-1.2,2.6h17.3v4H458z"/>
	<path class="st1" d="M511.2,118.6c0,2.2-0.3,4.3-1,6.2c-0.6,1.9-1.5,3.5-2.7,4.9c-1.1,1.4-2.5,2.4-4.1,3.2
		c-1.6,0.8-3.3,1.1-5.1,1.1c-1.9,0-3.6-0.4-5.1-1.1c-1.6-0.8-2.9-1.8-4-3.2c-1.1-1.4-2-3-2.7-4.9c-0.6-1.9-1-3.9-1-6.2
		c0-2.2,0.3-4.3,1-6.2c0.6-1.9,1.5-3.5,2.7-4.9c1.1-1.4,2.5-2.4,4-3.2c1.6-0.8,3.3-1.2,5.1-1.2c1.8,0,3.5,0.4,5.1,1.2
		c1.6,0.8,2.9,1.8,4.1,3.2c1.1,1.4,2,3,2.7,4.9C510.9,114.3,511.2,116.3,511.2,118.6z M506.7,118.6c0-1.7-0.2-3.2-0.6-4.6
		c-0.4-1.4-1-2.6-1.7-3.6c-0.7-1-1.6-1.8-2.6-2.3c-1-0.5-2.1-0.8-3.3-0.8c-1.2,0-2.4,0.3-3.4,0.8c-1,0.5-1.9,1.3-2.6,2.3
		c-0.7,1-1.3,2.2-1.7,3.6c-0.4,1.4-0.6,2.9-0.6,4.6c0,1.7,0.2,3.2,0.6,4.6c0.4,1.4,1,2.5,1.7,3.5c0.7,1,1.6,1.7,2.6,2.3
		c1,0.5,2.2,0.8,3.4,0.8c1.2,0,2.3-0.3,3.3-0.8c1-0.5,1.9-1.3,2.6-2.3c0.7-1,1.3-2.2,1.7-3.5C506.5,121.8,506.7,120.2,506.7,118.6z"
		/>
	<path class="st1" d="M516.1,133.4c0-1.3,0.1-2.6,0.3-3.8c0.2-1.2,0.6-2.3,1.2-3.4c0.6-1.1,1.4-2.1,2.5-3.1c1.1-1,2.5-2,4.2-2.9
		c1-0.5,2-1.1,3.1-1.6c1-0.5,2-1.1,2.9-1.7c0.9-0.6,1.6-1.2,2.1-1.9c0.6-0.7,0.8-1.5,0.8-2.4c0-0.6-0.1-1.1-0.4-1.7
		c-0.3-0.6-0.7-1.1-1.2-1.5c-0.5-0.4-1.1-0.8-1.9-1.1c-0.8-0.3-1.6-0.4-2.6-0.4c-1,0-1.9,0.1-2.8,0.4c-0.8,0.3-1.6,0.6-2.2,1.1
		c-0.6,0.4-1.2,0.9-1.7,1.3c-0.5,0.5-0.9,0.9-1.2,1.3l-2.9-3.2c0.3-0.3,0.7-0.7,1.4-1.2c0.6-0.5,1.5-1.1,2.4-1.6
		c1-0.5,2.1-1,3.4-1.4c1.3-0.4,2.7-0.6,4.3-0.6c1.6,0,3,0.2,4.2,0.6c1.2,0.4,2.3,1,3.2,1.7c0.9,0.7,1.5,1.6,2,2.6
		c0.5,1,0.7,2,0.7,3.2c0,1.3-0.3,2.5-0.9,3.4c-0.6,1-1.3,1.8-2.1,2.6c-0.8,0.7-1.7,1.4-2.7,1.9c-0.9,0.5-1.8,1-2.5,1.3
		c-0.7,0.4-1.6,0.8-2.5,1.3c-0.9,0.5-1.8,1.1-2.7,1.8c-0.8,0.7-1.6,1.4-2.2,2.2c-0.6,0.8-1,1.7-1.2,2.6h17.3v4H516.1z"/>
	<path class="st1" d="M543,115.2c0-2.2,0.4-4.3,1.1-6.5c0.8-2.1,1.9-4.1,3.3-5.8c1.5-1.7,3.3-3.1,5.4-4.1s4.5-1.6,7.2-1.6
		c3.2,0,6,0.7,8.3,2.2c2.3,1.5,4,3.3,5.1,5.7l-3.6,2.3c-0.5-1.1-1.2-2.1-1.9-2.9c-0.8-0.8-1.6-1.4-2.5-1.9c-0.9-0.5-1.8-0.8-2.8-1
		c-0.9-0.2-1.9-0.3-2.8-0.3c-2,0-3.8,0.4-5.3,1.2c-1.5,0.8-2.8,1.9-3.9,3.2c-1,1.3-1.8,2.8-2.4,4.5c-0.5,1.7-0.8,3.3-0.8,5
		c0,1.9,0.3,3.7,0.9,5.4c0.6,1.7,1.5,3.2,2.6,4.5c1.1,1.3,2.4,2.4,3.9,3.1c1.5,0.8,3.2,1.2,5,1.2c0.9,0,1.9-0.1,2.9-0.4
		c1-0.2,1.9-0.6,2.9-1.1c0.9-0.5,1.8-1.2,2.6-2c0.8-0.8,1.4-1.7,1.9-2.9l3.8,2.1c-0.6,1.3-1.4,2.5-2.4,3.6c-1,1-2.2,1.9-3.5,2.6
		c-1.3,0.7-2.7,1.2-4.1,1.6c-1.5,0.4-2.9,0.6-4.3,0.6c-2.5,0-4.7-0.5-6.8-1.6c-2.1-1.1-3.8-2.5-5.3-4.2c-1.5-1.7-2.7-3.7-3.5-5.9
		C543.4,119.7,543,117.5,543,115.2z"/>
</g>
<g>
	<path class="st1" d="M340.4,194.1v-35.9h15.2c1.7,0,3.2,0.3,4.6,1c1.4,0.7,2.6,1.6,3.6,2.7c1,1.1,1.8,2.4,2.4,3.8
		c0.6,1.4,0.9,2.9,0.9,4.3c0,1.5-0.3,3-0.8,4.4s-1.3,2.7-2.3,3.8c-1,1.1-2.2,2-3.5,2.7c-1.4,0.7-2.9,1-4.6,1h-8.5v12H340.4z
		 M347.4,176h8.1c1.3,0,2.4-0.5,3.2-1.6c0.9-1,1.3-2.5,1.3-4.3c0-0.9-0.1-1.7-0.4-2.5s-0.6-1.3-1.1-1.8c-0.4-0.5-1-0.9-1.5-1.1
		c-0.6-0.3-1.2-0.4-1.8-0.4h-7.8V176z"/>
	<path class="st1" d="M401.2,194.1v-23.8l-9.3,17.7h-3.8l-9.3-17.7v23.8h-7v-35.9h7.5l10.6,20.4l10.7-20.4h7.4v35.9H401.2z"/>
	<path class="st1" d="M437.1,167.6c-0.2-0.2-0.7-0.6-1.3-1s-1.4-0.8-2.3-1.2c-0.9-0.4-1.9-0.7-2.9-1c-1-0.3-2.1-0.4-3.2-0.4
		c-1.9,0-3.4,0.4-4.3,1.1c-0.9,0.7-1.4,1.7-1.4,3c0,0.7,0.2,1.4,0.5,1.8c0.4,0.5,0.9,0.9,1.5,1.3c0.7,0.4,1.5,0.7,2.6,1
		c1,0.3,2.2,0.6,3.6,1c1.8,0.5,3.3,1,4.8,1.5c1.4,0.5,2.6,1.2,3.6,2c1,0.8,1.8,1.8,2.3,2.9c0.5,1.1,0.8,2.5,0.8,4.2
		c0,1.9-0.4,3.6-1.1,4.9c-0.7,1.4-1.7,2.5-2.9,3.3c-1.2,0.8-2.6,1.5-4.3,1.8c-1.6,0.4-3.3,0.6-5,0.6c-2.7,0-5.4-0.4-8-1.2
		c-2.6-0.8-5-2-7.1-3.4l3.1-6c0.3,0.3,0.9,0.7,1.6,1.2c0.8,0.5,1.7,1,2.8,1.5c1.1,0.5,2.3,0.9,3.6,1.2c1.3,0.3,2.7,0.5,4,0.5
		c3.8,0,5.8-1.2,5.8-3.7c0-0.8-0.2-1.4-0.7-2c-0.4-0.5-1.1-1-1.9-1.4s-1.8-0.8-2.9-1.1c-1.1-0.3-2.4-0.7-3.8-1.1
		c-1.7-0.5-3.2-1-4.5-1.5c-1.3-0.6-2.3-1.2-3.2-2c-0.8-0.8-1.5-1.6-1.9-2.6c-0.4-1-0.6-2.2-0.6-3.6c0-1.8,0.3-3.4,1-4.9
		c0.7-1.4,1.6-2.6,2.8-3.5c1.2-0.9,2.6-1.7,4.2-2.2c1.6-0.5,3.3-0.7,5.1-0.7c2.5,0,4.9,0.4,7,1.2c2.1,0.8,4,1.7,5.6,2.8L437.1,167.6
		z"/>
</g>
<g>
	<path class="st1" d="M475.6,168.7h-18.5v-4.1h25.5l-18.1,35.9h-5.1L475.6,168.7z"/>
	<path class="st1" d="M511.2,179.3c0,2.2-0.3,4.3-1,6.2c-0.6,1.9-1.5,3.5-2.7,4.9c-1.1,1.4-2.5,2.4-4.1,3.2
		c-1.6,0.8-3.3,1.1-5.1,1.1c-1.9,0-3.6-0.4-5.1-1.1c-1.6-0.8-2.9-1.8-4-3.2c-1.1-1.4-2-3-2.7-4.9c-0.6-1.9-1-3.9-1-6.2
		c0-2.2,0.3-4.3,1-6.2c0.6-1.9,1.5-3.5,2.7-4.9c1.1-1.4,2.5-2.4,4-3.2c1.6-0.8,3.3-1.2,5.1-1.2c1.8,0,3.5,0.4,5.1,1.2
		c1.6,0.8,2.9,1.8,4.1,3.2c1.1,1.4,2,3,2.7,4.9C510.9,175,511.2,177.1,511.2,179.3z M506.7,179.3c0-1.7-0.2-3.2-0.6-4.6
		c-0.4-1.4-1-2.6-1.7-3.6c-0.7-1-1.6-1.8-2.6-2.3c-1-0.5-2.1-0.8-3.3-0.8c-1.2,0-2.4,0.3-3.4,0.8c-1,0.5-1.9,1.3-2.6,2.3
		c-0.7,1-1.3,2.2-1.7,3.6c-0.4,1.4-0.6,2.9-0.6,4.6c0,1.7,0.2,3.2,0.6,4.6c0.4,1.4,1,2.5,1.7,3.5c0.7,1,1.6,1.7,2.6,2.3
		c1,0.5,2.2,0.8,3.4,0.8c1.2,0,2.3-0.3,3.3-0.8c1-0.5,1.9-1.3,2.6-2.3c0.7-1,1.3-2.2,1.7-3.5C506.5,182.5,506.7,181,506.7,179.3z"/>
	<path class="st1" d="M531.4,200.6V192h-16.2v-3.9l17.7-22.8h3V188h4.5v4h-4.5v8.6H531.4z M519.8,188h12.1v-15.8L519.8,188z"/>
	<path class="st1" d="M561.3,190.3c2.1,0,3.8-0.4,5.2-1.2c1.4-0.8,2.5-1.9,3.3-3.2c0.8-1.3,1.4-2.8,1.7-4.5c0.3-1.7,0.5-3.4,0.5-5.1
		v-18.2h4.6v18.2c0,2.4-0.3,4.7-0.8,6.9s-1.4,4.1-2.7,5.7c-1.2,1.7-2.8,3-4.7,3.9c-1.9,1-4.3,1.4-7.1,1.4c-2.9,0-5.3-0.5-7.2-1.5
		c-2-1-3.5-2.4-4.7-4c-1.2-1.7-2.1-3.6-2.6-5.8c-0.5-2.2-0.8-4.4-0.8-6.7v-18.2h4.6v18.2c0,1.8,0.2,3.5,0.5,5.2
		c0.4,1.7,0.9,3.1,1.8,4.4c0.8,1.3,1.9,2.3,3.3,3.1S559.2,190.3,561.3,190.3z"/>
</g>
<g>
	<path class="st1" d="M338.2,236.6c0-2.2,0.4-4.4,1.2-6.5c0.8-2.1,1.9-4.1,3.5-5.7c1.5-1.7,3.4-3.1,5.6-4.1c2.2-1,4.7-1.6,7.5-1.6
		c3.3,0,6.2,0.7,8.6,2.2c2.4,1.5,4.2,3.3,5.4,5.7l-5.4,3.7c-0.5-1-1-1.9-1.7-2.6c-0.7-0.7-1.4-1.2-2.2-1.6c-0.8-0.4-1.6-0.7-2.4-0.9
		c-0.8-0.2-1.7-0.3-2.5-0.3c-1.8,0-3.3,0.4-4.6,1.1c-1.3,0.7-2.4,1.6-3.2,2.8c-0.9,1.1-1.5,2.4-1.9,3.8c-0.4,1.4-0.7,2.9-0.7,4.3
		c0,1.6,0.3,3.1,0.8,4.6c0.5,1.5,1.2,2.8,2.2,3.9c0.9,1.1,2,2,3.3,2.7c1.3,0.7,2.7,1,4.3,1c0.8,0,1.7-0.1,2.5-0.3
		c0.9-0.2,1.7-0.5,2.5-1c0.8-0.4,1.5-1,2.2-1.7c0.7-0.7,1.2-1.5,1.6-2.5l5.7,3.3c-0.6,1.3-1.4,2.5-2.5,3.6c-1.1,1-2.3,1.9-3.6,2.6
		c-1.3,0.7-2.8,1.2-4.3,1.6c-1.5,0.4-3,0.6-4.5,0.6c-2.6,0-4.9-0.5-7-1.6c-2.1-1.1-4-2.5-5.5-4.2c-1.5-1.7-2.7-3.7-3.6-5.9
		C338.6,241.2,338.2,238.9,338.2,236.6z"/>
	<path class="st1" d="M404.4,254.9v-23.8l-9.3,17.7h-3.8l-9.3-17.7v23.8h-7v-35.9h7.5l10.6,20.4l10.7-20.4h7.4v35.9H404.4z"/>
	<path class="st1" d="M422.9,218.9l8.9,17.3l9-17.3h7.5l-13.1,23.4v12.6h-6.9v-12.7l-13-23.3H422.9z"/>
	<path class="st1" d="M452.3,254.9V219h7V236l15.1-17.1h7.7l-13.8,15.9l14.6,20h-7.8l-11.2-15.5l-4.6,4.8v10.7H452.3z"/>
</g>
<g>
	<path class="st1" d="M522.3,240c0,2.2-0.3,4.3-1,6.2c-0.6,1.9-1.5,3.5-2.7,4.9c-1.1,1.4-2.5,2.4-4.1,3.2c-1.6,0.8-3.3,1.1-5.1,1.1
		c-1.9,0-3.6-0.4-5.1-1.1c-1.6-0.8-2.9-1.8-4-3.2c-1.1-1.4-2-3-2.7-4.9c-0.6-1.9-1-3.9-1-6.2c0-2.2,0.3-4.3,1-6.2
		c0.6-1.9,1.5-3.5,2.7-4.9c1.1-1.4,2.5-2.4,4-3.2c1.6-0.8,3.3-1.2,5.1-1.2c1.8,0,3.5,0.4,5.1,1.2c1.6,0.8,2.9,1.8,4.1,3.2
		c1.1,1.4,2,3,2.7,4.9C522,235.8,522.3,237.8,522.3,240z M517.8,240c0-1.7-0.2-3.2-0.6-4.6c-0.4-1.4-1-2.6-1.7-3.6
		c-0.7-1-1.6-1.8-2.6-2.3c-1-0.5-2.1-0.8-3.3-0.8c-1.2,0-2.4,0.3-3.4,0.8c-1,0.5-1.9,1.3-2.6,2.3c-0.7,1-1.3,2.2-1.7,3.6
		c-0.4,1.4-0.6,2.9-0.6,4.6c0,1.7,0.2,3.2,0.6,4.6c0.4,1.4,1,2.5,1.7,3.5c0.7,1,1.6,1.7,2.6,2.3c1,0.5,2.2,0.8,3.4,0.8
		c1.2,0,2.3-0.3,3.3-0.8c1-0.5,1.9-1.3,2.6-2.3s1.3-2.2,1.7-3.5C517.6,243.2,517.8,241.7,517.8,240z"/>
	<path class="st1" d="M528.8,259l1-4.5h-1.5v-5.3h4.2v5.3L531,259H528.8z"/>
	<path class="st1" d="M570.1,250.8v4h-18.2v-4h7.2v-19.7c-0.3,0.4-0.8,0.8-1.4,1.3c-0.6,0.5-1.4,0.9-2.2,1.3c-0.8,0.4-1.6,0.7-2.5,1
		c-0.8,0.3-1.6,0.4-2.2,0.4v-4.3c0.7,0,1.6-0.2,2.5-0.6c0.9-0.4,1.8-0.9,2.6-1.5c0.8-0.6,1.5-1.1,2.1-1.6c0.6-0.5,0.9-0.9,1-1.1h4.6
		v24.9H570.1z"/>
	<path class="st1" d="M599.7,240c0,2.2-0.3,4.3-1,6.2c-0.6,1.9-1.5,3.5-2.7,4.9c-1.1,1.4-2.5,2.4-4.1,3.2c-1.6,0.8-3.3,1.1-5.1,1.1
		c-1.9,0-3.6-0.4-5.1-1.1c-1.6-0.8-2.9-1.8-4-3.2c-1.1-1.4-2-3-2.7-4.9c-0.6-1.9-1-3.9-1-6.2c0-2.2,0.3-4.3,1-6.2
		c0.6-1.9,1.5-3.5,2.7-4.9c1.1-1.4,2.5-2.4,4-3.2c1.6-0.8,3.3-1.2,5.1-1.2c1.8,0,3.5,0.4,5.1,1.2c1.6,0.8,2.9,1.8,4.1,3.2
		c1.1,1.4,2,3,2.7,4.9C599.3,235.8,599.7,237.8,599.7,240z M595.1,240c0-1.7-0.2-3.2-0.6-4.6s-1-2.6-1.7-3.6c-0.7-1-1.6-1.8-2.6-2.3
		c-1-0.5-2.1-0.8-3.3-0.8c-1.2,0-2.4,0.3-3.4,0.8c-1,0.5-1.9,1.3-2.6,2.3c-0.7,1-1.3,2.2-1.7,3.6s-0.6,2.9-0.6,4.6
		c0,1.7,0.2,3.2,0.6,4.6c0.4,1.4,1,2.5,1.7,3.5c0.7,1,1.6,1.7,2.6,2.3c1,0.5,2.2,0.8,3.4,0.8c1.2,0,2.3-0.3,3.3-0.8
		c1-0.5,1.9-1.3,2.6-2.3s1.3-2.2,1.7-3.5C594.9,243.2,595.1,241.7,595.1,240z"/>
	<path class="st1" d="M630.7,240c0,2.2-0.3,4.3-1,6.2c-0.6,1.9-1.5,3.5-2.7,4.9c-1.1,1.4-2.5,2.4-4.1,3.2c-1.6,0.8-3.3,1.1-5.1,1.1
		c-1.9,0-3.6-0.4-5.1-1.1c-1.6-0.8-2.9-1.8-4-3.2c-1.1-1.4-2-3-2.7-4.9c-0.6-1.9-1-3.9-1-6.2c0-2.2,0.3-4.3,1-6.2
		c0.6-1.9,1.5-3.5,2.7-4.9c1.1-1.4,2.5-2.4,4-3.2c1.6-0.8,3.3-1.2,5.1-1.2c1.8,0,3.5,0.4,5.1,1.2c1.6,0.8,2.9,1.8,4.1,3.2
		c1.1,1.4,2,3,2.7,4.9C630.4,235.8,630.7,237.8,630.7,240z M626.2,240c0-1.7-0.2-3.2-0.6-4.6s-1-2.6-1.7-3.6c-0.7-1-1.6-1.8-2.6-2.3
		c-1-0.5-2.1-0.8-3.3-0.8c-1.2,0-2.4,0.3-3.4,0.8c-1,0.5-1.9,1.3-2.6,2.3c-0.7,1-1.3,2.2-1.7,3.6c-0.4,1.4-0.6,2.9-0.6,4.6
		c0,1.7,0.2,3.2,0.6,4.6c0.4,1.4,1,2.5,1.7,3.5c0.7,1,1.6,1.7,2.6,2.3c1,0.5,2.2,0.8,3.4,0.8c1.2,0,2.3-0.3,3.3-0.8
		c1-0.5,1.9-1.3,2.6-2.3s1.3-2.2,1.7-3.5C626,243.2,626.2,241.7,626.2,240z"/>
	<path class="st1" d="M637.2,259l1-4.5h-1.5v-5.3h4.2v5.3l-1.5,4.5H637.2z"/>
	<path class="st1" d="M685.4,243c0,1.7-0.3,3.3-1,4.8c-0.7,1.5-1.6,2.8-2.7,3.9c-1.2,1.1-2.5,2-4.1,2.7c-1.6,0.6-3.2,1-5.1,1
		c-1.9,0-3.7-0.4-5.3-1.1c-1.6-0.7-3-1.7-4.1-3.1c-1.1-1.3-2-3-2.7-4.9c-0.6-1.9-0.9-4.1-0.9-6.5c0-3.5,0.3-6.6,1-9.3
		c0.6-2.6,1.6-4.9,2.7-6.6c1.2-1.8,2.6-3.1,4.3-4c1.7-0.9,3.5-1.3,5.5-1.3c2.3,0,4.4,0.6,6.4,1.7c1.9,1.1,3.4,2.7,4.5,4.7l-2.7,2.7
		c-0.7-1.6-1.8-2.8-3.3-3.8s-3.1-1.4-4.9-1.4c-1.4,0-2.6,0.3-3.7,0.9c-1.1,0.6-2.1,1.5-2.9,2.8c-0.8,1.2-1.4,2.7-1.9,4.4
		s-0.7,3.7-0.7,5.9c0.7-1.8,1.9-3.2,3.6-4.2c1.7-1,3.5-1.6,5.7-1.6c1.7,0,3.3,0.3,4.9,0.9c1.5,0.6,2.8,1.5,3.9,2.6
		c1.1,1.1,2,2.4,2.6,3.8C685.1,239.7,685.4,241.3,685.4,243z M672.6,251.5c1.1,0,2.2-0.2,3.3-0.7c1-0.5,2-1.1,2.7-1.8
		c0.8-0.8,1.4-1.7,1.8-2.7c0.5-1,0.7-2.1,0.7-3.3c0-1.1-0.2-2.2-0.7-3.3c-0.5-1-1.1-1.9-1.8-2.7c-0.8-0.8-1.7-1.4-2.7-1.8
		s-2.1-0.7-3.3-0.7c-1.2,0-2.3,0.2-3.3,0.7c-1,0.5-1.9,1.1-2.7,1.8c-0.8,0.8-1.4,1.7-1.8,2.7c-0.5,1-0.7,2.1-0.7,3.3
		c0,1.2,0.2,2.3,0.7,3.3c0.5,1,1.1,1.9,1.8,2.7c0.8,0.8,1.7,1.4,2.7,1.8C670.3,251.3,671.4,251.5,672.6,251.5z"/>
	<path class="st1" d="M701.8,239c1.7,0,3.2,0.3,4.6,0.8c1.4,0.6,2.7,1.3,3.7,2.4c1,1,1.9,2.2,2.5,3.6c0.6,1.4,0.9,3,0.9,4.7
		c0,1.8-0.3,3.4-1,4.9c-0.7,1.5-1.6,2.7-2.7,3.8c-1.1,1-2.5,1.9-4,2.4c-1.6,0.6-3.2,0.9-5,0.9c-2.6,0-4.9-0.6-6.9-1.8
		c-2.1-1.2-3.6-2.8-4.7-4.9l2.8-2.4c0.9,1.6,2.2,2.8,3.8,3.7c1.6,0.9,3.3,1.4,5.1,1.4c1.1,0,2.2-0.2,3.2-0.6c1-0.4,1.9-0.9,2.6-1.6
		c0.7-0.7,1.3-1.5,1.7-2.5c0.4-1,0.6-2.1,0.6-3.2c0-1.1-0.2-2.1-0.6-3.1c-0.4-0.9-1-1.8-1.6-2.4c-0.7-0.7-1.5-1.2-2.5-1.6
		s-2-0.6-3-0.6c-1.5,0-2.8,0.3-4.1,1c-1.3,0.6-2.3,1.6-3.1,2.7h-4c0-0.2,0.1-0.6,0.3-1.3c0.1-0.7,0.3-1.5,0.5-2.5
		c0.2-1,0.4-2.1,0.7-3.3c0.2-1.2,0.5-2.4,0.7-3.7c0.6-2.9,1.2-6.2,1.9-9.8h17.5v4.1h-14.2l-2.2,11.4c0.7-0.8,1.7-1.4,2.8-1.8
		C699.2,239.2,700.4,239,701.8,239z"/>
	<path class="st1" d="M719.1,259l1-4.5h-1.5v-5.3h4.2v5.3l-1.5,4.5H719.1z"/>
	<path class="st1" d="M756.3,261.3v-8.6h-16.2v-3.9l17.7-22.8h3v22.7h4.5v4h-4.5v8.6H756.3z M744.7,248.7h12.1v-15.8L744.7,248.7z"
		/>
	<path class="st1" d="M786.9,229.5h-18.5v-4.1H794l-18.1,35.9h-5.1L786.9,229.5z"/>
</g>
<g>
	<path class="st1" d="M340.4,315.6v-35.9h15.9c1.7,0,3.2,0.3,4.6,1c1.4,0.7,2.6,1.6,3.6,2.7c1,1.1,1.8,2.4,2.4,3.8
		c0.6,1.4,0.9,2.9,0.9,4.3c0,2.3-0.6,4.4-1.7,6.4c-1.2,1.9-2.7,3.3-4.7,4.1l8.2,13.5h-7.8l-7.3-12h-6.9v12H340.4z M347.4,297.4h8.8
		c0.6,0,1.2-0.2,1.8-0.5c0.6-0.3,1-0.7,1.4-1.2c0.4-0.5,0.7-1.1,1-1.8c0.2-0.7,0.4-1.5,0.4-2.3c0-0.8-0.1-1.6-0.4-2.3
		c-0.3-0.7-0.6-1.3-1.1-1.8c-0.5-0.5-1-0.9-1.6-1.2c-0.6-0.3-1.2-0.4-1.8-0.4h-8.5V297.4z"/>
	<path class="st1" d="M399,311.6c-2.9,2.9-6.2,4.3-10,4.3c-2.4,0-4.6-0.5-6.7-1.4c-2.1-0.9-3.9-2.2-5.4-3.9
		c-1.5-1.7-2.8-3.6-3.6-5.8c-0.9-2.2-1.3-4.7-1.3-7.3c0-2.5,0.4-4.8,1.3-7c0.9-2.2,2.1-4.1,3.7-5.7s3.4-2.9,5.5-3.9
		c2.1-1,4.4-1.4,6.9-1.4c3.4,0,6.3,0.7,8.7,2.1c2.4,1.4,4.2,3.3,5.4,5.7l-5.2,3.8c-0.9-1.8-2.2-3.2-3.8-4.1
		c-1.6-0.9-3.4-1.4-5.3-1.4c-1.5,0-2.9,0.3-4.2,1c-1.3,0.6-2.3,1.5-3.2,2.6c-0.9,1.1-1.6,2.4-2.1,3.8c-0.5,1.5-0.7,3-0.7,4.6
		c0,1.7,0.3,3.3,0.8,4.7s1.3,2.7,2.2,3.8c0.9,1.1,2.1,1.9,3.4,2.6c1.3,0.6,2.7,0.9,4.2,0.9c3.5,0,6.6-1.6,9.4-4.9v-2.5h-7.2v-5.1h13
		v18.5H399V311.6z"/>
	<path class="st1" d="M439.7,306.3c0,1.5-0.3,2.9-0.9,4c-0.6,1.1-1.4,2.1-2.5,2.9c-1.1,0.8-2.3,1.4-3.7,1.8
		c-1.4,0.4-2.9,0.6-4.5,0.6h-17.4v-35.9H430c1.2,0,2.4,0.3,3.4,0.8s1.9,1.2,2.6,2.1c0.7,0.9,1.3,1.8,1.6,2.9s0.6,2.2,0.6,3.3
		c0,1.8-0.4,3.4-1.3,4.9c-0.9,1.5-2.2,2.7-3.8,3.4c2.1,0.6,3.7,1.7,4.9,3.3C439.1,302,439.7,304,439.7,306.3z M417.7,285.6v9.1h9.3
		c1.2,0,2.2-0.4,3-1.2c0.8-0.8,1.2-1.9,1.2-3.3c0-1.4-0.4-2.5-1.1-3.3s-1.7-1.2-2.8-1.2H417.7z M432.7,305c0-0.6-0.1-1.3-0.3-1.8
		c-0.2-0.6-0.5-1.1-0.9-1.5c-0.4-0.4-0.8-0.8-1.3-1c-0.5-0.3-1.1-0.4-1.7-0.4h-10.7v9.5h10.4c0.6,0,1.2-0.1,1.8-0.4
		c0.6-0.2,1-0.6,1.4-1c0.4-0.4,0.7-0.9,1-1.5C432.5,306.3,432.7,305.7,432.7,305z"/>
</g>
<g>
	<path class="st1" d="M475.8,311.6v4h-18.2v-4h7.2v-19.7c-0.3,0.4-0.8,0.8-1.4,1.3c-0.6,0.5-1.4,0.9-2.2,1.3c-0.8,0.4-1.6,0.7-2.5,1
		c-0.8,0.3-1.6,0.4-2.2,0.4v-4.3c0.7,0,1.6-0.2,2.5-0.6c0.9-0.4,1.8-0.9,2.6-1.5c0.8-0.6,1.5-1.1,2.1-1.6c0.6-0.5,0.9-0.9,1-1.1h4.6
		v24.9H475.8z"/>
	<path class="st1" d="M491.2,299.7c1.7,0,3.2,0.3,4.6,0.8c1.4,0.6,2.7,1.3,3.7,2.4c1,1,1.9,2.2,2.5,3.6c0.6,1.4,0.9,3,0.9,4.7
		c0,1.8-0.3,3.4-1,4.9c-0.7,1.5-1.6,2.7-2.7,3.8s-2.5,1.9-4,2.4c-1.6,0.6-3.2,0.9-5,0.9c-2.6,0-4.9-0.6-6.9-1.8
		c-2.1-1.2-3.6-2.8-4.7-4.9l2.8-2.4c0.9,1.6,2.2,2.8,3.8,3.7c1.6,0.9,3.3,1.4,5.1,1.4c1.1,0,2.2-0.2,3.2-0.6s1.9-0.9,2.6-1.6
		c0.7-0.7,1.3-1.5,1.7-2.5c0.4-1,0.6-2.1,0.6-3.2c0-1.1-0.2-2.1-0.6-3.1c-0.4-0.9-1-1.8-1.6-2.4c-0.7-0.7-1.5-1.2-2.5-1.6
		c-0.9-0.4-2-0.6-3-0.6c-1.5,0-2.8,0.3-4.1,1c-1.3,0.6-2.3,1.6-3.1,2.7h-4c0-0.2,0.1-0.6,0.3-1.3c0.1-0.7,0.3-1.5,0.5-2.5
		c0.2-1,0.4-2.1,0.7-3.3c0.2-1.2,0.5-2.4,0.7-3.7c0.6-2.9,1.2-6.2,1.9-9.8H501v4.1h-14.2l-2.2,11.4c0.7-0.8,1.7-1.4,2.8-1.8
		C488.5,299.9,489.8,299.7,491.2,299.7z"/>
	<path class="st1" d="M522.9,303.7c2.2,0.4,3.9,1.4,5.1,3c1.3,1.6,1.9,3.6,1.9,6c0,1.6-0.3,3-0.9,4.3c-0.6,1.3-1.4,2.4-2.5,3.3
		c-1.1,0.9-2.3,1.6-3.8,2.1c-1.5,0.5-3.1,0.7-5,0.7c-2.6,0-4.8-0.5-6.8-1.4s-3.5-2.3-4.5-4.1l3-3c0.8,1.4,1.8,2.5,3.1,3.3
		c1.3,0.8,3,1.2,5.2,1.2c2.3,0,4.2-0.5,5.5-1.6c1.3-1,2-2.6,2-4.8c0-2.1-0.7-3.8-2.2-5.1c-1.4-1.3-3.5-1.9-6.3-1.9h-1.3v-3.7h1.4
		c2.4,0,4.3-0.6,5.6-1.7c1.3-1.2,1.9-2.6,1.9-4.4c0-1.8-0.6-3.1-1.9-4c-1.2-0.9-2.8-1.3-4.7-1.3c-1.9,0-3.5,0.4-4.9,1.2
		c-1.4,0.8-2.5,1.9-3.3,3.3l-2.7-2.8c0.4-0.8,1-1.6,1.8-2.3c0.8-0.7,1.6-1.3,2.6-1.8c1-0.5,2.1-0.9,3.2-1.2c1.2-0.3,2.4-0.4,3.7-0.4
		c1.6,0,3,0.2,4.4,0.7c1.3,0.4,2.5,1,3.4,1.8c1,0.8,1.7,1.7,2.2,2.8c0.5,1.1,0.8,2.3,0.8,3.7c0,1-0.1,2-0.4,2.9
		c-0.3,0.9-0.7,1.7-1.3,2.5c-0.6,0.7-1.2,1.4-2,1.8C524.7,303.2,523.8,303.5,522.9,303.7z"/>
	<path class="st1" d="M535.8,319.7l1-4.5h-1.5v-5.3h4.2v5.3l-1.5,4.5H535.8z"/>
	<path class="st1" d="M583.9,300.8c0,2.2-0.3,4.3-1,6.2c-0.6,1.9-1.5,3.5-2.7,4.9c-1.1,1.4-2.5,2.4-4.1,3.2
		c-1.6,0.8-3.3,1.1-5.1,1.1c-1.9,0-3.6-0.4-5.1-1.1c-1.6-0.8-2.9-1.8-4-3.2c-1.1-1.4-2-3-2.7-4.9c-0.6-1.9-1-3.9-1-6.2
		c0-2.2,0.3-4.3,1-6.2c0.6-1.9,1.5-3.5,2.7-4.9c1.1-1.4,2.5-2.4,4-3.2c1.6-0.8,3.3-1.2,5.1-1.2c1.8,0,3.5,0.4,5.1,1.2
		c1.6,0.8,2.9,1.8,4.1,3.2c1.1,1.4,2,3,2.7,4.9C583.6,296.5,583.9,298.5,583.9,300.8z M579.4,300.8c0-1.7-0.2-3.2-0.6-4.6
		c-0.4-1.4-1-2.6-1.7-3.6c-0.7-1-1.6-1.8-2.6-2.3c-1-0.5-2.1-0.8-3.3-0.8c-1.2,0-2.4,0.3-3.4,0.8c-1,0.5-1.9,1.3-2.6,2.3
		c-0.7,1-1.3,2.2-1.7,3.6c-0.4,1.4-0.6,2.9-0.6,4.6c0,1.7,0.2,3.2,0.6,4.6c0.4,1.4,1,2.5,1.7,3.5c0.7,1,1.6,1.7,2.6,2.3
		c1,0.5,2.2,0.8,3.4,0.8c1.2,0,2.3-0.3,3.3-0.8c1-0.5,1.9-1.3,2.6-2.3c0.7-1,1.3-2.2,1.7-3.5C579.2,304,579.4,302.5,579.4,300.8z"/>
	<path class="st1" d="M590.4,319.7l1-4.5h-1.5v-5.3h4.2v5.3l-1.5,4.5H590.4z"/>
	<path class="st1" d="M638.5,300.8c0,2.2-0.3,4.3-1,6.2c-0.6,1.9-1.5,3.5-2.7,4.9c-1.1,1.4-2.5,2.4-4.1,3.2
		c-1.6,0.8-3.3,1.1-5.1,1.1c-1.9,0-3.6-0.4-5.1-1.1c-1.6-0.8-2.9-1.8-4-3.2c-1.1-1.4-2-3-2.7-4.9c-0.6-1.9-1-3.9-1-6.2
		c0-2.2,0.3-4.3,1-6.2c0.6-1.9,1.5-3.5,2.7-4.9c1.1-1.4,2.5-2.4,4-3.2c1.6-0.8,3.3-1.2,5.1-1.2c1.8,0,3.5,0.4,5.1,1.2
		c1.6,0.8,2.9,1.8,4.1,3.2c1.1,1.4,2,3,2.7,4.9C638.2,296.5,638.5,298.5,638.5,300.8z M634,300.8c0-1.7-0.2-3.2-0.6-4.6
		c-0.4-1.4-1-2.6-1.7-3.6c-0.7-1-1.6-1.8-2.6-2.3c-1-0.5-2.1-0.8-3.3-0.8c-1.2,0-2.4,0.3-3.4,0.8c-1,0.5-1.9,1.3-2.6,2.3
		c-0.7,1-1.3,2.2-1.7,3.6c-0.4,1.4-0.6,2.9-0.6,4.6c0,1.7,0.2,3.2,0.6,4.6c0.4,1.4,1,2.5,1.7,3.5c0.7,1,1.6,1.7,2.6,2.3
		c1,0.5,2.2,0.8,3.4,0.8c1.2,0,2.3-0.3,3.3-0.8c1-0.5,1.9-1.3,2.6-2.3c0.7-1,1.3-2.2,1.7-3.5C633.8,304,634,302.5,634,300.8z"/>
</g>
<g>
	<path class="st1" d="M352.8,349.9h6.4l4,11.9l4-11.9h6.5l-6.1,16.4l4.6,11.5l10.2-27.9h7.6l-14.6,35.9h-5.9l-6.2-15.1l-6.2,15.1
		h-5.9l-14.5-35.9h7.5l10.2,27.9l4.5-11.5L352.8,349.9z"/>
	<path class="st1" d="M402.1,386.2c-2.1,0-4-0.4-5.8-1.1c-1.7-0.7-3.2-1.7-4.4-3c-1.2-1.2-2.2-2.7-2.8-4.4c-0.7-1.7-1-3.4-1-5.2
		c0-1.9,0.3-3.7,1-5.3c0.6-1.7,1.6-3.1,2.8-4.4c1.2-1.3,2.7-2.3,4.4-3c1.7-0.7,3.7-1.1,5.8-1.1c2.2,0,4.1,0.4,5.8,1.1
		c1.7,0.7,3.2,1.7,4.4,3c1.2,1.2,2.1,2.7,2.7,4.4c0.6,1.7,0.9,3.4,0.9,5.2c0,0.4,0,0.9,0,1.3c0,0.4-0.1,0.7-0.1,1h-20.5
		c0.1,1,0.4,2,0.8,2.8c0.4,0.8,0.9,1.5,1.6,2.1c0.6,0.6,1.4,1,2.2,1.3c0.8,0.3,1.7,0.5,2.5,0.5c1.3,0,2.6-0.3,3.8-1
		c1.2-0.7,2-1.5,2.5-2.6l5.8,1.6c-1,2-2.5,3.7-4.7,5C407.6,385.6,405.1,386.2,402.1,386.2z M409,370.2c-0.2-2-0.9-3.6-2.2-4.8
		c-1.3-1.2-2.9-1.8-4.7-1.8c-0.9,0-1.8,0.2-2.6,0.5c-0.8,0.3-1.5,0.8-2.1,1.3c-0.6,0.6-1.1,1.3-1.5,2.1c-0.4,0.8-0.6,1.7-0.7,2.7
		H409z"/>
	<path class="st1" d="M435.2,386.2c-2,0-3.8-0.5-5.4-1.4c-1.6-0.9-2.8-2.2-3.7-3.7v4.6h-5.9v-37h6.8v15.1c0.9-1.6,2.2-2.9,3.7-3.8
		c1.5-0.9,3.3-1.3,5.4-1.3c1.7,0,3.3,0.4,4.7,1.1c1.4,0.7,2.6,1.7,3.7,3c1,1.2,1.8,2.7,2.4,4.4c0.6,1.7,0.8,3.5,0.8,5.3
		c0,1.9-0.3,3.7-0.9,5.4c-0.6,1.7-1.5,3.1-2.6,4.3c-1.1,1.2-2.4,2.2-3.9,2.9C438.6,385.9,436.9,386.2,435.2,386.2z M433.3,380.4
		c1.1,0,2.1-0.2,3-0.6c0.9-0.4,1.7-1,2.3-1.7c0.6-0.7,1.1-1.5,1.5-2.5c0.4-0.9,0.5-2,0.5-3c0-1.1-0.2-2.1-0.5-3.1
		c-0.3-1-0.8-1.8-1.4-2.6c-0.6-0.7-1.4-1.3-2.2-1.8s-1.8-0.7-2.8-0.7c-1.5,0-2.9,0.5-4.1,1.5c-1.2,1-2.1,2.2-2.8,3.7v6.3
		c0.2,0.7,0.6,1.3,1,1.8c0.5,0.5,1,1,1.5,1.4c0.6,0.4,1.2,0.7,1.9,0.9C432,380.3,432.7,380.4,433.3,380.4z"/>
</g>
<g>
	<path class="st1" d="M495.1,363.1h-6.8l-2.2,9h6.7v3.4h-7.5l-2.5,10.2h-3.7l2.5-10.2h-8.5l-2.5,10.2H467l2.5-10.2h-5.7v-3.4h6.5
		l2.2-9H466v-3.2h7.3l2.4-10.1h3.7l-2.5,10.1h8.5l2.4-10.1h3.7l-2.5,10.1h6V363.1z M482.5,372.1l2.2-9h-8.5l-2.2,9H482.5z"/>
	<path class="st1" d="M498.8,369.2c0-1.7,0.3-3.3,1-4.8c0.7-1.5,1.6-2.8,2.7-3.9c1.2-1.1,2.5-2,4.1-2.7c1.6-0.6,3.2-1,5.1-1
		c1.9,0,3.7,0.4,5.3,1.1c1.6,0.7,3,1.7,4.1,3.1c1.1,1.3,2,3,2.7,4.9c0.6,1.9,0.9,4.1,0.9,6.5c0,3.5-0.3,6.6-1,9.3
		c-0.6,2.7-1.6,4.9-2.7,6.6c-1.2,1.8-2.6,3.1-4.3,4c-1.7,0.9-3.5,1.3-5.5,1.3c-2.3,0-4.4-0.6-6.4-1.7c-1.9-1.1-3.4-2.7-4.5-4.7
		l2.7-2.7c0.7,1.6,1.8,2.8,3.3,3.8c1.5,0.9,3.1,1.4,4.9,1.4c2.8,0,5-1.2,6.6-3.7c1.7-2.5,2.5-5.9,2.6-10.4c-0.7,1.8-1.9,3.2-3.6,4.2
		c-1.7,1-3.5,1.6-5.7,1.6c-1.7,0-3.3-0.3-4.9-0.9c-1.5-0.6-2.8-1.5-3.9-2.6c-1.1-1.1-2-2.4-2.6-3.8
		C499.1,372.5,498.8,370.9,498.8,369.2z M511.6,360.7c-1.2,0-2.3,0.2-3.3,0.7c-1,0.5-1.9,1.1-2.7,1.8c-0.8,0.8-1.4,1.7-1.8,2.7
		c-0.5,1-0.7,2.1-0.7,3.3c0,1.2,0.2,2.3,0.7,3.3c0.5,1,1.1,1.9,1.8,2.7c0.8,0.8,1.7,1.4,2.7,1.8c1,0.5,2.1,0.7,3.3,0.7
		c1.2,0,2.3-0.2,3.3-0.7c1-0.5,1.9-1.1,2.7-1.8c0.8-0.8,1.4-1.7,1.8-2.7c0.5-1,0.7-2.1,0.7-3.3c0-1.1-0.2-2.2-0.7-3.3
		c-0.5-1-1.1-2-1.8-2.7c-0.8-0.8-1.7-1.4-2.7-1.8C513.8,360.9,512.7,360.7,511.6,360.7z"/>
	<path class="st1" d="M528.6,369.2c0-1.7,0.3-3.3,1-4.8c0.7-1.5,1.6-2.8,2.7-3.9c1.2-1.1,2.5-2,4.1-2.7c1.6-0.6,3.2-1,5.1-1
		c1.9,0,3.7,0.4,5.3,1.1c1.6,0.7,3,1.7,4.1,3.1c1.1,1.3,2,3,2.7,4.9c0.6,1.9,0.9,4.1,0.9,6.5c0,3.5-0.3,6.6-1,9.3
		c-0.6,2.7-1.6,4.9-2.7,6.6c-1.2,1.8-2.6,3.1-4.3,4c-1.7,0.9-3.5,1.3-5.5,1.3c-2.3,0-4.4-0.6-6.4-1.7c-1.9-1.1-3.4-2.7-4.5-4.7
		l2.7-2.7c0.7,1.6,1.8,2.8,3.3,3.8c1.5,0.9,3.1,1.4,4.9,1.4c2.8,0,5-1.2,6.6-3.7c1.7-2.5,2.5-5.9,2.6-10.4c-0.7,1.8-1.9,3.2-3.6,4.2
		c-1.7,1-3.5,1.6-5.7,1.6c-1.7,0-3.3-0.3-4.9-0.9c-1.5-0.6-2.8-1.5-3.9-2.6c-1.1-1.1-2-2.4-2.6-3.8
		C528.9,372.5,528.6,370.9,528.6,369.2z M541.4,360.7c-1.2,0-2.3,0.2-3.3,0.7c-1,0.5-1.9,1.1-2.7,1.8c-0.8,0.8-1.4,1.7-1.8,2.7
		c-0.5,1-0.7,2.1-0.7,3.3c0,1.2,0.2,2.3,0.7,3.3c0.5,1,1.1,1.9,1.8,2.7c0.8,0.8,1.7,1.4,2.7,1.8c1,0.5,2.1,0.7,3.3,0.7
		c1.2,0,2.3-0.2,3.3-0.7c1-0.5,1.9-1.1,2.7-1.8c0.8-0.8,1.4-1.7,1.8-2.7c0.5-1,0.7-2.1,0.7-3.3c0-1.1-0.2-2.2-0.7-3.3
		s-1.1-2-1.8-2.7c-0.8-0.8-1.7-1.4-2.7-1.8C543.6,360.9,542.5,360.7,541.4,360.7z"/>
	<path class="st1" d="M584.9,370.9c0,2.2-0.3,4.3-1,6.2c-0.6,1.9-1.5,3.5-2.7,4.9c-1.1,1.4-2.5,2.4-4.1,3.2
		c-1.6,0.8-3.3,1.1-5.1,1.1c-1.9,0-3.6-0.4-5.1-1.1c-1.6-0.8-2.9-1.8-4-3.2c-1.1-1.4-2-3-2.7-4.9c-0.6-1.9-1-3.9-1-6.2
		c0-2.2,0.3-4.3,1-6.2c0.6-1.9,1.5-3.5,2.7-4.9c1.1-1.4,2.5-2.4,4-3.2c1.6-0.8,3.3-1.2,5.1-1.2c1.8,0,3.5,0.4,5.1,1.2
		c1.6,0.8,2.9,1.8,4.1,3.2c1.1,1.4,2,3,2.7,4.9C584.6,366.6,584.9,368.7,584.9,370.9z M580.4,370.9c0-1.7-0.2-3.2-0.6-4.6
		c-0.4-1.4-1-2.6-1.7-3.6c-0.7-1-1.6-1.8-2.6-2.3c-1-0.5-2.1-0.8-3.3-0.8c-1.2,0-2.4,0.3-3.4,0.8c-1,0.5-1.9,1.3-2.6,2.3
		c-0.7,1-1.3,2.2-1.7,3.6c-0.4,1.4-0.6,2.9-0.6,4.6c0,1.7,0.2,3.2,0.6,4.6c0.4,1.4,1,2.5,1.7,3.5c0.7,1,1.6,1.7,2.6,2.3
		c1,0.5,2.2,0.8,3.4,0.8c1.2,0,2.3-0.3,3.3-0.8c1-0.5,1.9-1.3,2.6-2.3c0.7-1,1.3-2.2,1.7-3.5C580.2,374.1,580.4,372.6,580.4,370.9z"
		/>
	<path class="st1" d="M616,370.9c0,2.2-0.3,4.3-1,6.2c-0.6,1.9-1.5,3.5-2.7,4.9c-1.1,1.4-2.5,2.4-4.1,3.2c-1.6,0.8-3.3,1.1-5.1,1.1
		c-1.9,0-3.6-0.4-5.1-1.1c-1.6-0.8-2.9-1.8-4-3.2c-1.1-1.4-2-3-2.7-4.9c-0.6-1.9-1-3.9-1-6.2c0-2.2,0.3-4.3,1-6.2
		c0.6-1.9,1.5-3.5,2.7-4.9c1.1-1.4,2.5-2.4,4-3.2c1.6-0.8,3.3-1.2,5.1-1.2c1.8,0,3.5,0.4,5.1,1.2c1.6,0.8,2.9,1.8,4.1,3.2
		c1.1,1.4,2,3,2.7,4.9C615.7,366.6,616,368.7,616,370.9z M611.5,370.9c0-1.7-0.2-3.2-0.6-4.6s-1-2.6-1.7-3.6c-0.7-1-1.6-1.8-2.6-2.3
		c-1-0.5-2.1-0.8-3.3-0.8c-1.2,0-2.4,0.3-3.4,0.8c-1,0.5-1.9,1.3-2.6,2.3c-0.7,1-1.3,2.2-1.7,3.6s-0.6,2.9-0.6,4.6
		c0,1.7,0.2,3.2,0.6,4.6c0.4,1.4,1,2.5,1.7,3.5c0.7,1,1.6,1.7,2.6,2.3c1,0.5,2.2,0.8,3.4,0.8c1.2,0,2.3-0.3,3.3-0.8
		c1-0.5,1.9-1.3,2.6-2.3c0.7-1,1.3-2.2,1.7-3.5C611.3,374.1,611.5,372.6,611.5,370.9z"/>
	<path class="st1" d="M647.1,370.9c0,2.2-0.3,4.3-1,6.2c-0.6,1.9-1.5,3.5-2.7,4.9c-1.1,1.4-2.5,2.4-4.1,3.2
		c-1.6,0.8-3.3,1.1-5.1,1.1c-1.9,0-3.6-0.4-5.1-1.1c-1.6-0.8-2.9-1.8-4-3.2c-1.1-1.4-2-3-2.7-4.9c-0.6-1.9-1-3.9-1-6.2
		c0-2.2,0.3-4.3,1-6.2c0.6-1.9,1.5-3.5,2.7-4.9c1.1-1.4,2.5-2.4,4-3.2c1.6-0.8,3.3-1.2,5.1-1.2c1.8,0,3.5,0.4,5.1,1.2
		c1.6,0.8,2.9,1.8,4.1,3.2c1.1,1.4,2,3,2.7,4.9C646.8,366.6,647.1,368.7,647.1,370.9z M642.6,370.9c0-1.7-0.2-3.2-0.6-4.6
		s-1-2.6-1.7-3.6c-0.7-1-1.6-1.8-2.6-2.3c-1-0.5-2.1-0.8-3.3-0.8c-1.2,0-2.4,0.3-3.4,0.8c-1,0.5-1.9,1.3-2.6,2.3
		c-0.7,1-1.3,2.2-1.7,3.6c-0.4,1.4-0.6,2.9-0.6,4.6c0,1.7,0.2,3.2,0.6,4.6c0.4,1.4,1,2.5,1.7,3.5c0.7,1,1.6,1.7,2.6,2.3
		c1,0.5,2.2,0.8,3.4,0.8c1.2,0,2.3-0.3,3.3-0.8c1-0.5,1.9-1.3,2.6-2.3c0.7-1,1.3-2.2,1.7-3.5C642.4,374.1,642.6,372.6,642.6,370.9z"
		/>
	<path class="st1" d="M678.2,370.9c0,2.2-0.3,4.3-1,6.2c-0.6,1.9-1.5,3.5-2.7,4.9c-1.1,1.4-2.5,2.4-4.1,3.2
		c-1.6,0.8-3.3,1.1-5.1,1.1c-1.9,0-3.6-0.4-5.1-1.1c-1.6-0.8-2.9-1.8-4-3.2c-1.1-1.4-2-3-2.7-4.9c-0.6-1.9-1-3.9-1-6.2
		c0-2.2,0.3-4.3,1-6.2c0.6-1.9,1.5-3.5,2.7-4.9c1.1-1.4,2.5-2.4,4-3.2c1.6-0.8,3.3-1.2,5.1-1.2c1.8,0,3.5,0.4,5.1,1.2
		c1.6,0.8,2.9,1.8,4.1,3.2c1.1,1.4,2,3,2.7,4.9C677.8,366.6,678.2,368.7,678.2,370.9z M673.7,370.9c0-1.7-0.2-3.2-0.6-4.6
		c-0.4-1.4-1-2.6-1.7-3.6c-0.7-1-1.6-1.8-2.6-2.3c-1-0.5-2.1-0.8-3.3-0.8c-1.2,0-2.4,0.3-3.4,0.8c-1,0.5-1.9,1.3-2.6,2.3
		c-0.7,1-1.3,2.2-1.7,3.6s-0.6,2.9-0.6,4.6c0,1.7,0.2,3.2,0.6,4.6c0.4,1.4,1,2.5,1.7,3.5c0.7,1,1.6,1.7,2.6,2.3
		c1,0.5,2.2,0.8,3.4,0.8c1.2,0,2.3-0.3,3.3-0.8c1-0.5,1.9-1.3,2.6-2.3c0.7-1,1.3-2.2,1.7-3.5C673.4,374.1,673.7,372.6,673.7,370.9z"
		/>
</g>
<path class="st1" d="M29.4,10.5c-1.2-1.3-2.7-2.4-4.7-3.2c-1.9-0.8-4.2-1.2-6.7-1.2c-3.7,0-6.3,0.7-8,2.1c-1.7,1.4-2.5,3.3-2.5,5.6
	c0,1.2,0.2,2.3,0.7,3.1c0.4,0.8,1.1,1.5,2.1,2.1c0.9,0.6,2.1,1.1,3.6,1.5c1.5,0.4,3.2,0.9,5.2,1.3c2.2,0.5,4.2,1,6,1.6
	c1.8,0.6,3.3,1.3,4.5,2.2c1.2,0.9,2.2,1.9,2.9,3.2c0.7,1.2,1,2.8,1,4.7c0,1.9-0.4,3.6-1.1,5c-0.7,1.4-1.8,2.6-3.1,3.5
	c-1.3,0.9-2.9,1.6-4.7,2.1c-1.8,0.4-3.8,0.7-6,0.7c-6.4,0-12-2-16.6-6l2-3.3c0.7,0.8,1.6,1.5,2.7,2.2c1,0.7,2.2,1.3,3.4,1.8
	c1.3,0.5,2.6,0.9,4.1,1.2c1.4,0.3,3,0.4,4.6,0.4c3.3,0,5.9-0.6,7.7-1.8c1.8-1.2,2.8-3,2.8-5.4c0-1.3-0.3-2.4-0.8-3.2
	c-0.5-0.9-1.3-1.6-2.4-2.3c-1.1-0.6-2.4-1.2-3.9-1.7c-1.6-0.5-3.4-0.9-5.4-1.4c-2.2-0.5-4.1-1-5.7-1.6c-1.6-0.5-3-1.2-4.1-2
	c-1.1-0.8-2-1.8-2.5-2.9c-0.6-1.1-0.8-2.6-0.8-4.2c0-1.9,0.4-3.6,1.1-5.1c0.7-1.5,1.7-2.7,3.1-3.7c1.3-1,2.9-1.8,4.7-2.3
	c1.8-0.5,3.8-0.8,6-0.8c2.8,0,5.2,0.4,7.4,1.3c2.2,0.8,4.1,2,5.9,3.5L29.4,10.5z M53,44.8c-2.2,0-4.3-0.4-6.1-1.3
	c-1.8-0.8-3.5-2-4.8-3.4c-1.4-1.5-2.4-3.1-3.2-5.1c-0.8-1.9-1.1-4-1.1-6.1c0-2.1,0.4-4.2,1.1-6c0.8-1.9,1.8-3.5,3.2-5
	c1.3-1.4,2.9-2.5,4.8-3.4c1.9-0.8,3.9-1.3,6.1-1.3c2.2,0,4.3,0.4,6.1,1.3c1.8,0.8,3.4,2,4.8,3.4c1.3,1.4,2.4,3.1,3.1,5
	c0.7,1.9,1.1,3.9,1.1,6c0,0.3,0,0.6,0,0.9c0,0.3,0,0.5-0.1,0.6h-26c0.1,1.6,0.5,3.1,1.1,4.5c0.6,1.4,1.5,2.6,2.5,3.6
	c1,1,2.2,1.8,3.5,2.4c1.3,0.6,2.7,0.8,4.2,0.8c1,0,1.9-0.1,2.9-0.4c1-0.3,1.9-0.6,2.7-1.1c0.8-0.5,1.6-1,2.2-1.7
	c0.7-0.7,1.2-1.4,1.5-2.2l3.4,0.9c-0.5,1.1-1.1,2.2-2,3.1c-0.9,0.9-1.8,1.7-3,2.4c-1.1,0.7-2.4,1.2-3.7,1.6
	C55.9,44.6,54.5,44.8,53,44.8z M64.2,27.4c-0.1-1.6-0.5-3.1-1.1-4.5c-0.6-1.3-1.5-2.5-2.5-3.5c-1-1-2.1-1.7-3.4-2.3
	c-1.3-0.5-2.7-0.8-4.2-0.8c-1.5,0-2.9,0.3-4.2,0.8c-1.3,0.5-2.5,1.3-3.5,2.3c-1,1-1.8,2.1-2.4,3.5c-0.6,1.4-1,2.8-1.1,4.4H64.2z
	 M99.7,44.2h-4v-17c0-3.6-0.5-6.2-1.6-7.9c-1.1-1.6-2.7-2.5-4.9-2.5c-1.2,0-2.3,0.2-3.5,0.6c-1.2,0.4-2.2,1-3.2,1.8
	c-1,0.8-1.9,1.7-2.7,2.8c-0.8,1.1-1.3,2.2-1.7,3.5v18.6h-4V13.8h3.6v6.9c1.2-2.2,3-4,5.3-5.4c2.3-1.4,4.8-2,7.6-2
	c1.7,0,3.1,0.3,4.3,0.9c1.2,0.6,2.1,1.5,2.8,2.6c0.7,1.1,1.2,2.5,1.5,4.1c0.3,1.6,0.5,3.4,0.5,5.4V44.2z M115.8,44.8
	c-1.4,0-2.8-0.2-4-0.7c-1.2-0.5-2.3-1.2-3.2-2c-0.9-0.9-1.6-1.9-2.1-3c-0.5-1.1-0.8-2.4-0.8-3.7c0-1.3,0.3-2.5,0.9-3.7
	c0.6-1.1,1.5-2.1,2.6-2.9c1.1-0.8,2.5-1.5,4-1.9c1.6-0.4,3.3-0.7,5.1-0.7c1.6,0,3.1,0.1,4.7,0.4c1.6,0.3,3,0.7,4.3,1.2V25
	c0-2.7-0.8-4.8-2.3-6.4c-1.5-1.6-3.6-2.4-6.3-2.4c-1.6,0-3.2,0.3-4.8,0.9c-1.6,0.6-3.3,1.5-5,2.7l-1.4-2.6c3.9-2.6,7.7-4,11.4-4
	c3.8,0,6.8,1.1,9,3.2c2.2,2.1,3.3,5.1,3.3,8.9v13.7c0,1.1,0.5,1.6,1.5,1.6v3.5c-0.7,0.1-1.2,0.2-1.5,0.2c-1,0-1.8-0.3-2.4-0.8
	c-0.6-0.5-0.9-1.2-0.9-2.1l-0.1-2.4c-1.4,1.8-3.2,3.2-5.3,4.2C120.6,44.3,118.3,44.8,115.8,44.8z M116.8,41.8c2.1,0,4-0.4,5.7-1.2
	c1.7-0.8,3-1.8,3.9-3.1c0.4-0.4,0.6-0.7,0.8-1.1c0.2-0.4,0.3-0.8,0.3-1.1v-5c-1.3-0.5-2.7-0.9-4.1-1.2c-1.4-0.3-2.9-0.4-4.4-0.4
	c-2.8,0-5.1,0.6-6.8,1.8c-1.8,1.2-2.6,2.7-2.6,4.6c0,0.9,0.2,1.8,0.6,2.6c0.4,0.8,0.9,1.5,1.5,2.1c0.6,0.6,1.4,1.1,2.3,1.4
	C114.8,41.6,115.7,41.8,116.8,41.8z M154.4,42.8c-0.2,0.1-0.6,0.3-1,0.5c-0.4,0.2-1,0.4-1.5,0.6c-0.6,0.2-1.2,0.4-2,0.5
	c-0.7,0.2-1.5,0.2-2.3,0.2c-0.9,0-1.7-0.1-2.5-0.4c-0.8-0.2-1.5-0.6-2-1.1c-0.6-0.5-1.1-1.1-1.4-1.8c-0.4-0.7-0.5-1.6-0.5-2.6V16.9
	h-4.2v-3.2h4.2V3.5h4v10.3h7v3.2h-7v20.7c0.1,1.1,0.5,2,1.2,2.5c0.7,0.5,1.5,0.8,2.5,0.8c1.1,0,2.1-0.2,3-0.6
	c0.9-0.4,1.4-0.6,1.6-0.8L154.4,42.8z M171.7,44.8c-2.2,0-4.3-0.4-6.1-1.3c-1.8-0.8-3.5-2-4.8-3.4c-1.4-1.5-2.4-3.1-3.2-5.1
	c-0.8-1.9-1.1-4-1.1-6.1c0-2.1,0.4-4.2,1.1-6c0.8-1.9,1.8-3.5,3.2-5c1.3-1.4,2.9-2.5,4.8-3.4c1.9-0.8,3.9-1.3,6.1-1.3
	c2.2,0,4.3,0.4,6.1,1.3c1.8,0.8,3.4,2,4.8,3.4c1.3,1.4,2.4,3.1,3.1,5c0.7,1.9,1.1,3.9,1.1,6c0,0.3,0,0.6,0,0.9c0,0.3,0,0.5-0.1,0.6
	h-26c0.1,1.6,0.5,3.1,1.1,4.5c0.6,1.4,1.5,2.6,2.5,3.6c1,1,2.2,1.8,3.5,2.4c1.3,0.6,2.7,0.8,4.2,0.8c1,0,1.9-0.1,2.9-0.4
	c1-0.3,1.9-0.6,2.7-1.1c0.8-0.5,1.6-1,2.2-1.7c0.7-0.7,1.2-1.4,1.5-2.2l3.4,0.9c-0.5,1.1-1.1,2.2-2,3.1c-0.9,0.9-1.8,1.7-3,2.4
	c-1.1,0.7-2.4,1.2-3.7,1.6C174.6,44.6,173.2,44.8,171.7,44.8z M182.9,27.4c-0.1-1.6-0.5-3.1-1.1-4.5c-0.6-1.3-1.5-2.5-2.5-3.5
	c-1-1-2.1-1.7-3.4-2.3c-1.3-0.5-2.7-0.8-4.2-0.8c-1.5,0-2.9,0.3-4.2,0.8c-1.3,0.5-2.5,1.3-3.5,2.3c-1,1-1.8,2.1-2.4,3.5
	c-0.6,1.4-1,2.8-1.1,4.4H182.9z M220.7,44.8c-2.2,0-4.2-0.4-6.1-1.3c-1.8-0.8-3.4-2-4.8-3.4c-1.3-1.4-2.4-3.1-3.1-5
	c-0.7-1.9-1.1-3.9-1.1-6c0-2.1,0.4-4.2,1.1-6.1c0.8-1.9,1.8-3.6,3.2-5c1.3-1.4,2.9-2.6,4.8-3.4c1.8-0.9,3.8-1.3,6-1.3
	c2.2,0,4.2,0.4,6,1.3c1.8,0.9,3.4,2,4.8,3.4c1.3,1.4,2.4,3.1,3.2,5c0.8,1.9,1.1,3.9,1.1,6.1c0,2.1-0.4,4.1-1.1,6
	c-0.7,1.9-1.8,3.6-3.1,5c-1.3,1.4-2.9,2.6-4.8,3.4C225,44.4,222.9,44.8,220.7,44.8z M209.7,29.2c0,1.7,0.3,3.3,0.9,4.8
	c0.6,1.5,1.4,2.7,2.4,3.9c1,1.1,2.2,2,3.5,2.6c1.3,0.6,2.8,0.9,4.3,0.9c1.5,0,2.9-0.3,4.3-1c1.3-0.6,2.5-1.5,3.5-2.6
	c1-1.1,1.8-2.4,2.4-3.9c0.6-1.5,0.9-3.1,0.9-4.8c0-1.7-0.3-3.3-0.9-4.8c-0.6-1.5-1.4-2.8-2.4-3.9c-1-1.1-2.2-2-3.5-2.6
	c-1.3-0.6-2.8-1-4.3-1c-1.5,0-2.9,0.3-4.3,1c-1.3,0.6-2.5,1.5-3.5,2.7c-1,1.1-1.8,2.4-2.4,3.9C210,25.8,209.7,27.4,209.7,29.2z
	 M243.5,16.9h-4.2v-3.2h4.2v-0.4c0-1.2,0.2-2.4,0.6-3.7c0.4-1.2,1-2.3,1.7-3.3c0.8-1,1.7-1.7,2.9-2.3c1.2-0.6,2.5-0.9,4.1-0.9
	c1.4,0,2.6,0.2,3.7,0.5c1.1,0.3,2.1,0.7,2.8,1.1c0.9-1.1,2-2,3.4-2.7c1.4-0.7,3-1.1,5-1.1c1,0,2,0.1,2.9,0.3
	c0.9,0.2,1.8,0.4,2.5,0.7c0.8,0.3,1.4,0.6,2,0.9c0.6,0.3,1.1,0.6,1.4,0.8l-1.8,2.9c-0.6-0.5-1.5-1-2.8-1.5c-1.2-0.4-2.5-0.6-3.8-0.6
	c-1.3,0-2.4,0.3-3.3,0.8c-0.9,0.5-1.7,1.1-2.2,1.9c-0.6,0.8-1,1.7-1.3,2.7c-0.3,1-0.4,2-0.4,3v0.9h15.2v30.4h-4V16.9h-11.3v27.3h-4
	V16.9h-9.5v27.3h-4V16.9z M256.9,13.8c0-1,0.1-2.1,0.3-3.2c0.2-1.1,0.5-2,0.9-2.7c-0.7-0.5-1.4-0.8-2.3-0.9
	c-0.9-0.2-1.7-0.2-2.3-0.2c-1.1,0-2.1,0.2-2.8,0.6c-0.8,0.4-1.4,0.9-1.8,1.6c-0.5,0.6-0.8,1.4-1,2.2c-0.2,0.8-0.3,1.6-0.3,2.3v0.4
	H256.9z M282.8,28.9c0-2.1,0.4-4.2,1.1-6.1c0.7-1.9,1.8-3.6,3.1-5c1.3-1.4,2.9-2.5,4.8-3.4c1.9-0.8,3.9-1.2,6.2-1.2
	c2.9,0,5.4,0.7,7.5,2c2.1,1.3,3.8,3.1,4.8,5.3l-3.9,1.2c-0.9-1.6-2.1-2.8-3.6-3.7c-1.5-0.9-3.2-1.3-5.1-1.3c-1.6,0-3,0.3-4.4,0.9
	c-1.3,0.6-2.5,1.5-3.5,2.5c-1,1.1-1.8,2.3-2.3,3.8c-0.6,1.5-0.8,3.1-0.8,4.8c0,1.7,0.3,3.3,0.9,4.8c0.6,1.5,1.4,2.8,2.4,3.9
	c1,1.1,2.2,2,3.5,2.6c1.3,0.6,2.8,1,4.3,1c1,0,1.9-0.1,2.9-0.4c1-0.3,1.8-0.7,2.7-1.1c0.8-0.5,1.5-1,2.1-1.7c0.6-0.6,1-1.3,1.2-2
	l3.9,1.2c-0.4,1.1-1.1,2.1-1.9,3c-0.8,0.9-1.8,1.7-2.9,2.4c-1.1,0.7-2.3,1.2-3.7,1.6c-1.3,0.4-2.7,0.6-4.2,0.6
	c-2.2,0-4.3-0.4-6.1-1.3c-1.9-0.8-3.5-2-4.8-3.4c-1.4-1.5-2.4-3.1-3.2-5.1C283.2,33.1,282.8,31.1,282.8,28.9z M317,7.4V1.6h4v5.8
	H317z M317,44.2V13.8h4v30.4H317z M337.3,44.8c-1.4,0-2.8-0.2-4-0.7c-1.2-0.5-2.3-1.2-3.2-2c-0.9-0.9-1.6-1.9-2.1-3
	c-0.5-1.1-0.8-2.4-0.8-3.7c0-1.3,0.3-2.5,0.9-3.7c0.6-1.1,1.5-2.1,2.6-2.9c1.1-0.8,2.5-1.5,4-1.9c1.6-0.4,3.3-0.7,5.1-0.7
	c1.6,0,3.1,0.1,4.7,0.4c1.6,0.3,3,0.7,4.3,1.2V25c0-2.7-0.8-4.8-2.3-6.4c-1.5-1.6-3.6-2.4-6.3-2.4c-1.6,0-3.2,0.3-4.8,0.9
	c-1.6,0.6-3.3,1.5-5,2.7l-1.4-2.6c3.9-2.6,7.7-4,11.4-4c3.8,0,6.8,1.1,9,3.2c2.2,2.1,3.3,5.1,3.3,8.9v13.7c0,1.1,0.5,1.6,1.5,1.6
	v3.5c-0.7,0.1-1.2,0.2-1.5,0.2c-1,0-1.8-0.3-2.4-0.8c-0.6-0.5-0.9-1.2-0.9-2.1l-0.1-2.4c-1.4,1.8-3.2,3.2-5.3,4.2
	C342.1,44.3,339.8,44.8,337.3,44.8z M338.3,41.8c2.1,0,4-0.4,5.7-1.2c1.7-0.8,3-1.8,3.9-3.1c0.4-0.4,0.6-0.7,0.8-1.1
	c0.2-0.4,0.3-0.8,0.3-1.1v-5c-1.3-0.5-2.7-0.9-4.1-1.2c-1.4-0.3-2.9-0.4-4.4-0.4c-2.8,0-5.1,0.6-6.8,1.8c-1.8,1.2-2.6,2.7-2.6,4.6
	c0,0.9,0.2,1.8,0.6,2.6c0.4,0.8,0.9,1.5,1.5,2.1c0.6,0.6,1.4,1.1,2.3,1.4C336.3,41.6,337.3,41.8,338.3,41.8z M361.7,1.6h4v35.7
	c0,1.1,0.3,2,0.9,2.7c0.6,0.6,1.5,1,2.6,1c0.4,0,0.9-0.1,1.5-0.2c0.6-0.1,1.1-0.3,1.6-0.5l0.7,3.2c-0.7,0.3-1.6,0.6-2.7,0.8
	c-1.1,0.2-2,0.3-2.8,0.3c-1.8,0-3.3-0.5-4.3-1.5c-1.1-1-1.6-2.5-1.6-4.4V1.6z M388.4,28.9c0-2.1,0.4-4.2,1.1-6.1
	c0.7-1.9,1.8-3.6,3.1-5c1.3-1.4,2.9-2.5,4.8-3.4c1.9-0.8,3.9-1.2,6.2-1.2c2.9,0,5.4,0.7,7.5,2c2.1,1.3,3.8,3.1,4.8,5.3l-3.9,1.2
	c-0.9-1.6-2.1-2.8-3.6-3.7c-1.5-0.9-3.2-1.3-5.1-1.3c-1.6,0-3,0.3-4.4,0.9c-1.3,0.6-2.5,1.5-3.5,2.5c-1,1.1-1.8,2.3-2.3,3.8
	c-0.6,1.5-0.8,3.1-0.8,4.8c0,1.7,0.3,3.3,0.9,4.8s1.4,2.8,2.4,3.9c1,1.1,2.2,2,3.5,2.6c1.3,0.6,2.8,1,4.3,1c1,0,1.9-0.1,2.9-0.4
	c1-0.3,1.8-0.7,2.7-1.1c0.8-0.5,1.5-1,2.1-1.7c0.6-0.6,1-1.3,1.2-2l3.9,1.2c-0.4,1.1-1.1,2.1-1.9,3c-0.8,0.9-1.8,1.7-2.9,2.4
	c-1.1,0.7-2.3,1.2-3.7,1.6c-1.3,0.4-2.7,0.6-4.2,0.6c-2.2,0-4.3-0.4-6.1-1.3c-1.9-0.8-3.5-2-4.8-3.4c-1.4-1.5-2.4-3.1-3.2-5.1
	C388.8,33.1,388.4,31.1,388.4,28.9z M435.2,44.8c-2.2,0-4.2-0.4-6.1-1.3c-1.8-0.8-3.4-2-4.8-3.4c-1.3-1.4-2.4-3.1-3.1-5
	c-0.7-1.9-1.1-3.9-1.1-6c0-2.1,0.4-4.2,1.1-6.1c0.8-1.9,1.8-3.6,3.2-5c1.3-1.4,2.9-2.6,4.8-3.4c1.8-0.9,3.8-1.3,6-1.3
	c2.2,0,4.2,0.4,6,1.3c1.8,0.9,3.4,2,4.8,3.4c1.3,1.4,2.4,3.1,3.2,5c0.8,1.9,1.1,3.9,1.1,6.1c0,2.1-0.4,4.1-1.1,6
	c-0.7,1.9-1.8,3.6-3.1,5c-1.3,1.4-2.9,2.6-4.8,3.4C439.5,44.4,437.4,44.8,435.2,44.8z M424.2,29.2c0,1.7,0.3,3.3,0.9,4.8
	c0.6,1.5,1.4,2.7,2.4,3.9c1,1.1,2.2,2,3.5,2.6c1.3,0.6,2.8,0.9,4.3,0.9c1.5,0,2.9-0.3,4.3-1c1.3-0.6,2.5-1.5,3.5-2.6
	c1-1.1,1.8-2.4,2.4-3.9c0.6-1.5,0.9-3.1,0.9-4.8c0-1.7-0.3-3.3-0.9-4.8c-0.6-1.5-1.4-2.8-2.4-3.9c-1-1.1-2.2-2-3.5-2.6
	c-1.3-0.6-2.8-1-4.3-1c-1.5,0-2.9,0.3-4.3,1c-1.3,0.6-2.5,1.5-3.5,2.7c-1,1.1-1.8,2.4-2.4,3.9C424.5,25.8,424.2,27.4,424.2,29.2z
	 M457.2,1.6h4v35.7c0,1.1,0.3,2,0.9,2.7c0.6,0.6,1.5,1,2.6,1c0.4,0,0.9-0.1,1.5-0.2c0.6-0.1,1.1-0.3,1.6-0.5l0.7,3.2
	c-0.7,0.3-1.6,0.6-2.7,0.8c-1.1,0.2-2,0.3-2.8,0.3c-1.8,0-3.3-0.5-4.3-1.5c-1.1-1-1.6-2.5-1.6-4.4V1.6z M485.9,44.8
	c-2.2,0-4.2-0.4-6.1-1.3c-1.8-0.8-3.4-2-4.8-3.4c-1.3-1.4-2.4-3.1-3.1-5c-0.7-1.9-1.1-3.9-1.1-6c0-2.1,0.4-4.2,1.1-6.1
	c0.8-1.9,1.8-3.6,3.2-5c1.3-1.4,2.9-2.6,4.8-3.4c1.8-0.9,3.8-1.3,6-1.3c2.2,0,4.2,0.4,6,1.3c1.8,0.9,3.4,2,4.8,3.4
	c1.3,1.4,2.4,3.1,3.2,5c0.8,1.9,1.1,3.9,1.1,6.1c0,2.1-0.4,4.1-1.1,6c-0.7,1.9-1.8,3.6-3.1,5c-1.3,1.4-2.9,2.6-4.8,3.4
	C490.1,44.4,488.1,44.8,485.9,44.8z M474.8,29.2c0,1.7,0.3,3.3,0.9,4.8c0.6,1.5,1.4,2.7,2.4,3.9c1,1.1,2.2,2,3.5,2.6
	c1.3,0.6,2.8,0.9,4.3,0.9s2.9-0.3,4.3-1c1.3-0.6,2.5-1.5,3.5-2.6c1-1.1,1.8-2.4,2.4-3.9c0.6-1.5,0.9-3.1,0.9-4.8
	c0-1.7-0.3-3.3-0.9-4.8c-0.6-1.5-1.4-2.8-2.4-3.9c-1-1.1-2.2-2-3.5-2.6c-1.3-0.6-2.8-1-4.3-1s-2.9,0.3-4.3,1
	c-1.3,0.6-2.5,1.5-3.5,2.7c-1,1.1-1.8,2.4-2.4,3.9C475.1,25.8,474.8,27.4,474.8,29.2z M517.2,44.8c-3.3,0-5.8-1.1-7.4-3.3
	c-1.6-2.2-2.4-5.5-2.4-9.8V13.8h4V31c0,6.9,2.4,10.3,7.1,10.3c1.2,0,2.3-0.2,3.4-0.6c1.1-0.4,2.2-1,3.1-1.7c1-0.7,1.8-1.6,2.6-2.6
	c0.8-1,1.4-2.2,1.8-3.4V13.8h4v25.3c0,1.1,0.5,1.6,1.4,1.6v3.5c-0.5,0.1-0.8,0.1-1.1,0.1s-0.5,0-0.6,0c-0.9,0-1.7-0.4-2.3-1
	c-0.6-0.6-0.9-1.5-0.9-2.5v-3.5c-1.3,2.4-3.1,4.2-5.4,5.5C522.2,44.2,519.7,44.8,517.2,44.8z M557.5,17.3c-2.7,0.1-5,0.8-7,2.2
	c-2,1.4-3.4,3.3-4.2,5.8v18.9h-4V13.8h3.7v7.3c1.1-2.3,2.6-4.2,4.6-5.5c1.9-1.3,4-2,6.1-2c0.3,0,0.6,0,0.8,0.1V17.3z"/>
</svg>
