<?xml version="1.0" encoding="utf-8"?>
<!-- Generator: Adobe Illustrator 21.1.0, SVG Export Plug-In . SVG Version: 6.00 Build 0)  -->
<svg version="1.1" id="Layer_1" xmlns="http://www.w3.org/2000/svg" xmlns:xlink="http://www.w3.org/1999/xlink" x="0px" y="0px"
	 viewBox="0 0 794 396.2" style="enable-background:new 0 0 794 396.2;" xml:space="preserve">
<style type="text/css">
	.st0{fill:#8F0028;}
	.st1{fill:#231F20;}
</style>
<rect y="97.5" class="st0" width="288.3" height="288.3"/>
<g>
	<path class="st1" d="M340.4,133.4v-36h15.2c1.7,0,3.2,0.3,4.6,1s2.6,1.6,3.6,2.7s1.8,2.4,2.4,3.8s0.9,2.9,0.9,4.3
		c0,1.5-0.3,3-0.8,4.4s-1.3,2.7-2.3,3.8c-1,1.1-2.2,2-3.5,2.7c-1.4,0.7-2.9,1-4.6,1h-8.5v12h-7V133.4z M347.4,115.2h8.1
		c1.3,0,2.4-0.5,3.2-1.6c0.9-1,1.3-2.5,1.3-4.3c0-0.9-0.1-1.7-0.4-2.5s-0.6-1.3-1.1-1.8c-0.4-0.5-1-0.9-1.5-1.1
		c-0.6-0.3-1.2-0.4-1.8-0.4h-7.8L347.4,115.2L347.4,115.2z"/>
	<path class="st1" d="M401.2,133.4v-23.8l-9.3,17.7h-3.8l-9.3-17.7v23.8h-7v-36h7.5l10.6,20.4l10.7-20.4h7.4v35.9L401.2,133.4
		L401.2,133.4z"/>
	<path class="st1" d="M437.1,106.9c-0.2-0.2-0.7-0.6-1.3-1s-1.4-0.8-2.3-1.2c-0.9-0.4-1.9-0.7-2.9-1s-2.1-0.4-3.2-0.4
		c-1.9,0-3.4,0.4-4.3,1.1s-1.4,1.7-1.4,3c0,0.7,0.2,1.4,0.5,1.8c0.4,0.5,0.9,0.9,1.5,1.3c0.7,0.4,1.5,0.7,2.6,1c1,0.3,2.2,0.6,3.6,1
		c1.8,0.5,3.3,1,4.8,1.5c1.4,0.5,2.6,1.2,3.6,2s1.8,1.8,2.3,2.9s0.8,2.5,0.8,4.2c0,1.9-0.4,3.6-1.1,4.9c-0.7,1.4-1.7,2.5-2.9,3.3
		c-1.2,0.8-2.6,1.5-4.3,1.8c-1.6,0.4-3.3,0.6-5,0.6c-2.7,0-5.4-0.4-8-1.2s-5-2-7.1-3.4l3.1-6c0.3,0.3,0.9,0.7,1.6,1.2
		c0.8,0.5,1.7,1,2.8,1.5c1.1,0.5,2.3,0.9,3.6,1.2c1.3,0.3,2.7,0.5,4,0.5c3.8,0,5.8-1.2,5.8-3.7c0-0.8-0.2-1.4-0.7-2
		c-0.4-0.5-1.1-1-1.9-1.4s-1.8-0.8-2.9-1.1c-1.1-0.3-2.4-0.7-3.8-1.1c-1.7-0.5-3.2-1-4.5-1.5c-1.3-0.6-2.3-1.2-3.2-2
		c-0.8-0.8-1.5-1.6-1.9-2.6s-0.6-2.2-0.6-3.6c0-1.8,0.3-3.4,1-4.9c0.7-1.4,1.6-2.6,2.8-3.5c1.2-0.9,2.6-1.7,4.2-2.2s3.3-0.7,5.1-0.7
		c2.5,0,4.9,0.4,7,1.2c2.1,0.8,4,1.7,5.6,2.8L437.1,106.9z"/>
</g>
<g>
	<path class="st1" d="M458,133.4c0-1.3,0.1-2.6,0.3-3.8c0.2-1.2,0.6-2.3,1.2-3.4s1.4-2.1,2.5-3.1s2.5-2,4.2-2.9c1-0.5,2-1.1,3.1-1.6
		c1-0.5,2-1.1,2.9-1.7s1.6-1.2,2.1-1.9c0.6-0.7,0.8-1.5,0.8-2.4c0-0.6-0.1-1.1-0.4-1.7s-0.7-1.1-1.2-1.5s-1.1-0.8-1.9-1.1
		c-0.8-0.3-1.6-0.4-2.6-0.4s-1.9,0.1-2.8,0.4c-0.8,0.3-1.6,0.6-2.2,1.1c-0.6,0.4-1.2,0.9-1.7,1.3c-0.5,0.5-0.9,0.9-1.2,1.3l-2.9-3.2
		c0.3-0.3,0.7-0.7,1.4-1.2c0.6-0.5,1.5-1.1,2.4-1.6c1-0.5,2.1-1,3.4-1.4s2.7-0.6,4.3-0.6c1.6,0,3,0.2,4.2,0.6s2.3,1,3.2,1.7
		c0.9,0.7,1.5,1.6,2,2.6s0.7,2,0.7,3.2c0,1.3-0.3,2.5-0.9,3.4c-0.6,1-1.3,1.8-2.1,2.6c-0.8,0.7-1.7,1.4-2.7,1.9
		c-0.9,0.5-1.8,1-2.5,1.3c-0.7,0.4-1.6,0.8-2.5,1.3s-1.8,1.1-2.7,1.8c-0.8,0.7-1.6,1.4-2.2,2.2c-0.6,0.8-1,1.7-1.2,2.6h17.3v4H458
		V133.4z"/>
	<path class="st1" d="M511.2,118.6c0,2.2-0.3,4.3-1,6.2c-0.6,1.9-1.5,3.5-2.7,4.9c-1.1,1.4-2.5,2.4-4.1,3.2s-3.3,1.1-5.1,1.1
		c-1.9,0-3.6-0.4-5.1-1.1c-1.6-0.8-2.9-1.8-4-3.2s-2-3-2.7-4.9c-0.6-1.9-1-3.9-1-6.2c0-2.2,0.3-4.3,1-6.2c0.6-1.9,1.5-3.5,2.7-4.9
		c1.1-1.4,2.5-2.4,4-3.2c1.6-0.8,3.3-1.2,5.1-1.2c1.8,0,3.5,0.4,5.1,1.2c1.6,0.8,2.9,1.8,4.1,3.2c1.1,1.4,2,3,2.7,4.9
		C510.9,114.3,511.2,116.3,511.2,118.6z M506.7,118.6c0-1.7-0.2-3.2-0.6-4.6s-1-2.6-1.7-3.6s-1.6-1.8-2.6-2.3s-2.1-0.8-3.3-0.8
		c-1.2,0-2.4,0.3-3.4,0.8s-1.9,1.3-2.6,2.3s-1.3,2.2-1.7,3.6c-0.4,1.4-0.6,2.9-0.6,4.6s0.2,3.2,0.6,4.6s1,2.5,1.7,3.5
		s1.6,1.7,2.6,2.3c1,0.5,2.2,0.8,3.4,0.8c1.2,0,2.3-0.3,3.3-0.8s1.9-1.3,2.6-2.3s1.3-2.2,1.7-3.5
		C506.5,121.8,506.7,120.2,506.7,118.6z"/>
	<path class="st1" d="M516.1,133.4c0-1.3,0.1-2.6,0.3-3.8s0.6-2.3,1.2-3.4c0.6-1.1,1.4-2.1,2.5-3.1s2.5-2,4.2-2.9
		c1-0.5,2-1.1,3.1-1.6c1-0.5,2-1.1,2.9-1.7s1.6-1.2,2.1-1.9c0.6-0.7,0.8-1.5,0.8-2.4c0-0.6-0.1-1.1-0.4-1.7
		c-0.3-0.6-0.7-1.1-1.2-1.5s-1.1-0.8-1.9-1.1c-0.8-0.3-1.6-0.4-2.6-0.4s-1.9,0.1-2.8,0.4c-0.8,0.3-1.6,0.6-2.2,1.1
		c-0.6,0.4-1.2,0.9-1.7,1.3c-0.5,0.5-0.9,0.9-1.2,1.3l-2.9-3.2c0.3-0.3,0.7-0.7,1.4-1.2c0.6-0.5,1.5-1.1,2.4-1.6
		c1-0.5,2.1-1,3.4-1.4c1.3-0.4,2.7-0.6,4.3-0.6s3,0.2,4.2,0.6s2.3,1,3.2,1.7s1.5,1.6,2,2.6s0.7,2,0.7,3.2c0,1.3-0.3,2.5-0.9,3.4
		c-0.6,1-1.3,1.8-2.1,2.6c-0.8,0.7-1.7,1.4-2.7,1.9c-0.9,0.5-1.8,1-2.5,1.3c-0.7,0.4-1.6,0.8-2.5,1.3s-1.8,1.1-2.7,1.8
		c-0.8,0.7-1.6,1.4-2.2,2.2c-0.6,0.8-1,1.7-1.2,2.6h17.3v4h-22.3V133.4z"/>
	<path class="st1" d="M543,115.2c0-2.2,0.4-4.3,1.1-6.5c0.8-2.1,1.9-4.1,3.3-5.8c1.5-1.7,3.3-3.1,5.4-4.1s4.5-1.6,7.2-1.6
		c3.2,0,6,0.7,8.3,2.2s4,3.3,5.1,5.7l-3.6,2.3c-0.5-1.1-1.2-2.1-1.9-2.9c-0.8-0.8-1.6-1.4-2.5-1.9s-1.8-0.8-2.8-1
		c-0.9-0.2-1.9-0.3-2.8-0.3c-2,0-3.8,0.4-5.3,1.2c-1.5,0.8-2.8,1.9-3.9,3.2c-1,1.3-1.8,2.8-2.4,4.5c-0.5,1.7-0.8,3.3-0.8,5
		c0,1.9,0.3,3.7,0.9,5.4c0.6,1.7,1.5,3.2,2.6,4.5s2.4,2.4,3.9,3.1c1.5,0.8,3.2,1.2,5,1.2c0.9,0,1.9-0.1,2.9-0.4
		c1-0.2,1.9-0.6,2.9-1.1c0.9-0.5,1.8-1.2,2.6-2s1.4-1.7,1.9-2.9l3.8,2.1c-0.6,1.3-1.4,2.5-2.4,3.6c-1,1-2.2,1.9-3.5,2.6
		c-1.3,0.7-2.7,1.2-4.1,1.6c-1.5,0.4-2.9,0.6-4.3,0.6c-2.5,0-4.7-0.5-6.8-1.6s-3.8-2.5-5.3-4.2s-2.7-3.7-3.5-5.9
		C543.4,119.7,543,117.5,543,115.2z"/>
</g>
<g>
	<path class="st1" d="M340.4,194.1v-35.9h15.2c1.7,0,3.2,0.3,4.6,1s2.6,1.6,3.6,2.7c1,1.1,1.8,2.4,2.4,3.8c0.6,1.4,0.9,2.9,0.9,4.3
		c0,1.5-0.3,3-0.8,4.4s-1.3,2.7-2.3,3.8s-2.2,2-3.5,2.7c-1.4,0.7-2.9,1-4.6,1h-8.5v12h-7V194.1z M347.4,176h8.1
		c1.3,0,2.4-0.5,3.2-1.6c0.9-1,1.3-2.5,1.3-4.3c0-0.9-0.1-1.7-0.4-2.5s-0.6-1.3-1.1-1.8c-0.4-0.5-1-0.9-1.5-1.1
		c-0.6-0.3-1.2-0.4-1.8-0.4h-7.8L347.4,176L347.4,176z"/>
	<path class="st1" d="M401.2,194.1v-23.8l-9.3,17.7h-3.8l-9.3-17.7v23.8h-7v-35.9h7.5l10.6,20.4l10.7-20.4h7.4v35.9H401.2z"/>
	<path class="st1" d="M437.1,167.6c-0.2-0.2-0.7-0.6-1.3-1s-1.4-0.8-2.3-1.2s-1.9-0.7-2.9-1s-2.1-0.4-3.2-0.4
		c-1.9,0-3.4,0.4-4.3,1.1c-0.9,0.7-1.4,1.7-1.4,3c0,0.7,0.2,1.4,0.5,1.8c0.4,0.5,0.9,0.9,1.5,1.3c0.7,0.4,1.5,0.7,2.6,1
		c1,0.3,2.2,0.6,3.6,1c1.8,0.5,3.3,1,4.8,1.5c1.4,0.5,2.6,1.2,3.6,2s1.8,1.8,2.3,2.9c0.5,1.1,0.8,2.5,0.8,4.2c0,1.9-0.4,3.6-1.1,4.9
		c-0.7,1.4-1.7,2.5-2.9,3.3c-1.2,0.8-2.6,1.5-4.3,1.8c-1.6,0.4-3.3,0.6-5,0.6c-2.7,0-5.4-0.4-8-1.2s-5-2-7.1-3.4l3.1-6
		c0.3,0.3,0.9,0.7,1.6,1.2c0.8,0.5,1.7,1,2.8,1.5c1.1,0.5,2.3,0.9,3.6,1.2c1.3,0.3,2.7,0.5,4,0.5c3.8,0,5.8-1.2,5.8-3.7
		c0-0.8-0.2-1.4-0.7-2c-0.4-0.5-1.1-1-1.9-1.4s-1.8-0.8-2.9-1.1s-2.4-0.7-3.8-1.1c-1.7-0.5-3.2-1-4.5-1.5c-1.3-0.6-2.3-1.2-3.2-2
		c-0.8-0.8-1.5-1.6-1.9-2.6s-0.6-2.2-0.6-3.6c0-1.8,0.3-3.4,1-4.9c0.7-1.4,1.6-2.6,2.8-3.5c1.2-0.9,2.6-1.7,4.2-2.2s3.3-0.7,5.1-0.7
		c2.5,0,4.9,0.4,7,1.2s4,1.7,5.6,2.8L437.1,167.6z"/>
</g>
<g>
	<path class="st1" d="M475.6,168.7h-18.5v-4.1h25.5l-18.1,35.9h-5.1L475.6,168.7z"/>
	<path class="st1" d="M511.2,179.3c0,2.2-0.3,4.3-1,6.2c-0.6,1.9-1.5,3.5-2.7,4.9c-1.1,1.4-2.5,2.4-4.1,3.2s-3.3,1.1-5.1,1.1
		c-1.9,0-3.6-0.4-5.1-1.1c-1.6-0.8-2.9-1.8-4-3.2s-2-3-2.7-4.9c-0.6-1.9-1-3.9-1-6.2c0-2.2,0.3-4.3,1-6.2c0.6-1.9,1.5-3.5,2.7-4.9
		c1.1-1.4,2.5-2.4,4-3.2c1.6-0.8,3.3-1.2,5.1-1.2c1.8,0,3.5,0.4,5.1,1.2s2.9,1.8,4.1,3.2c1.1,1.4,2,3,2.7,4.9
		C510.9,175,511.2,177.1,511.2,179.3z M506.7,179.3c0-1.7-0.2-3.2-0.6-4.6c-0.4-1.4-1-2.6-1.7-3.6s-1.6-1.8-2.6-2.3
		s-2.1-0.8-3.3-0.8c-1.2,0-2.4,0.3-3.4,0.8s-1.9,1.3-2.6,2.3s-1.3,2.2-1.7,3.6c-0.4,1.4-0.6,2.9-0.6,4.6c0,1.7,0.2,3.2,0.6,4.6
		c0.4,1.4,1,2.5,1.7,3.5s1.6,1.7,2.6,2.3c1,0.5,2.2,0.8,3.4,0.8c1.2,0,2.3-0.3,3.3-0.8s1.9-1.3,2.6-2.3s1.3-2.2,1.7-3.5
		C506.5,182.5,506.7,181,506.7,179.3z"/>
	<path class="st1" d="M531.4,200.6V192h-16.2v-3.9l17.7-22.8h3V188h4.5v4h-4.5v8.6H531.4z M519.8,188h12.1v-15.8L519.8,188z"/>
	<path class="st1" d="M561.3,190.3c2.1,0,3.8-0.4,5.2-1.2s2.5-1.9,3.3-3.2s1.4-2.8,1.7-4.5s0.5-3.4,0.5-5.1v-18.2h4.6v18.2
		c0,2.4-0.3,4.7-0.8,6.9s-1.4,4.1-2.7,5.7c-1.2,1.7-2.8,3-4.7,3.9c-1.9,1-4.3,1.4-7.1,1.4c-2.9,0-5.3-0.5-7.2-1.5
		c-2-1-3.5-2.4-4.7-4c-1.2-1.7-2.1-3.6-2.6-5.8s-0.8-4.4-0.8-6.7V158h4.6v18.2c0,1.8,0.2,3.5,0.5,5.2c0.4,1.7,0.9,3.1,1.8,4.4
		c0.8,1.3,1.9,2.3,3.3,3.1S559.2,190.3,561.3,190.3z"/>
</g>
<g>
	<path class="st1" d="M338.2,236.6c0-2.2,0.4-4.4,1.2-6.5c0.8-2.1,1.9-4.1,3.5-5.7c1.5-1.7,3.4-3.1,5.6-4.1s4.7-1.6,7.5-1.6
		c3.3,0,6.2,0.7,8.6,2.2s4.2,3.3,5.4,5.7l-5.4,3.7c-0.5-1-1-1.9-1.7-2.6c-0.7-0.7-1.4-1.2-2.2-1.6c-0.8-0.4-1.6-0.7-2.4-0.9
		s-1.7-0.3-2.5-0.3c-1.8,0-3.3,0.4-4.6,1.1c-1.3,0.7-2.4,1.6-3.2,2.8c-0.9,1.1-1.5,2.4-1.9,3.8c-0.4,1.4-0.7,2.9-0.7,4.3
		c0,1.6,0.3,3.1,0.8,4.6s1.2,2.8,2.2,3.9c0.9,1.1,2,2,3.3,2.7s2.7,1,4.3,1c0.8,0,1.7-0.1,2.5-0.3c0.9-0.2,1.7-0.5,2.5-1
		c0.8-0.4,1.5-1,2.2-1.7s1.2-1.5,1.6-2.5l5.7,3.3c-0.6,1.3-1.4,2.5-2.5,3.6c-1.1,1-2.3,1.9-3.6,2.6c-1.3,0.7-2.8,1.2-4.3,1.6
		c-1.5,0.4-3,0.6-4.5,0.6c-2.6,0-4.9-0.5-7-1.6s-4-2.5-5.5-4.2s-2.7-3.7-3.6-5.9C338.6,241.2,338.2,238.9,338.2,236.6z"/>
	<path class="st1" d="M404.4,254.9v-23.8l-9.3,17.7h-3.8l-9.3-17.7v23.8h-7V219h7.5l10.6,20.4l10.7-20.4h7.4v35.9H404.4z"/>
	<path class="st1" d="M422.9,218.9l8.9,17.3l9-17.3h7.5l-13.1,23.4v12.6h-6.9v-12.7l-13-23.3H422.9z"/>
	<path class="st1" d="M452.3,254.9V219h7v17l15.1-17.1h7.7l-13.8,15.9l14.6,20h-7.8l-11.2-15.5l-4.6,4.8v10.7h-7V254.9z"/>
</g>
<g>
	<path class="st1" d="M522.3,240c0,2.2-0.3,4.3-1,6.2c-0.6,1.9-1.5,3.5-2.7,4.9c-1.1,1.4-2.5,2.4-4.1,3.2s-3.3,1.1-5.1,1.1
		c-1.9,0-3.6-0.4-5.1-1.1c-1.6-0.8-2.9-1.8-4-3.2s-2-3-2.7-4.9c-0.6-1.9-1-3.9-1-6.2c0-2.2,0.3-4.3,1-6.2c0.6-1.9,1.5-3.5,2.7-4.9
		c1.1-1.4,2.5-2.4,4-3.2c1.6-0.8,3.3-1.2,5.1-1.2c1.8,0,3.5,0.4,5.1,1.2s2.9,1.8,4.1,3.2c1.1,1.4,2,3,2.7,4.9
		C522,235.8,522.3,237.8,522.3,240z M517.8,240c0-1.7-0.2-3.2-0.6-4.6c-0.4-1.4-1-2.6-1.7-3.6s-1.6-1.8-2.6-2.3s-2.1-0.8-3.3-0.8
		c-1.2,0-2.4,0.3-3.4,0.8s-1.9,1.3-2.6,2.3s-1.3,2.2-1.7,3.6c-0.4,1.4-0.6,2.9-0.6,4.6c0,1.7,0.2,3.2,0.6,4.6c0.4,1.4,1,2.5,1.7,3.5
		s1.6,1.7,2.6,2.3c1,0.5,2.2,0.8,3.4,0.8c1.2,0,2.3-0.3,3.3-0.8s1.9-1.3,2.6-2.3s1.3-2.2,1.7-3.5C517.6,243.2,517.8,241.7,517.8,240
		z"/>
	<path class="st1" d="M528.8,259l1-4.5h-1.5v-5.3h4.2v5.3L531,259H528.8z"/>
	<path class="st1" d="M570.1,250.8v4h-18.2v-4h7.2v-19.7c-0.3,0.4-0.8,0.8-1.4,1.3c-0.6,0.5-1.4,0.9-2.2,1.3c-0.8,0.4-1.6,0.7-2.5,1
		c-0.8,0.3-1.6,0.4-2.2,0.4v-4.3c0.7,0,1.6-0.2,2.5-0.6c0.9-0.4,1.8-0.9,2.6-1.5s1.5-1.1,2.1-1.6s0.9-0.9,1-1.1h4.6v24.9
		L570.1,250.8L570.1,250.8z"/>
	<path class="st1" d="M599.7,240c0,2.2-0.3,4.3-1,6.2c-0.6,1.9-1.5,3.5-2.7,4.9c-1.1,1.4-2.5,2.4-4.1,3.2s-3.3,1.1-5.1,1.1
		c-1.9,0-3.6-0.4-5.1-1.1c-1.6-0.8-2.9-1.8-4-3.2s-2-3-2.7-4.9c-0.6-1.9-1-3.9-1-6.2c0-2.2,0.3-4.3,1-6.2c0.6-1.9,1.5-3.5,2.7-4.9
		c1.1-1.4,2.5-2.4,4-3.2c1.6-0.8,3.3-1.2,5.1-1.2s3.5,0.4,5.1,1.2s2.9,1.8,4.1,3.2c1.1,1.4,2,3,2.7,4.9
		C599.3,235.8,599.7,237.8,599.7,240z M595.1,240c0-1.7-0.2-3.2-0.6-4.6s-1-2.6-1.7-3.6s-1.6-1.8-2.6-2.3s-2.1-0.8-3.3-0.8
		s-2.4,0.3-3.4,0.8s-1.9,1.3-2.6,2.3c-0.7,1-1.3,2.2-1.7,3.6s-0.6,2.9-0.6,4.6c0,1.7,0.2,3.2,0.6,4.6c0.4,1.4,1,2.5,1.7,3.5
		s1.6,1.7,2.6,2.3c1,0.5,2.2,0.8,3.4,0.8s2.3-0.3,3.3-0.8s1.9-1.3,2.6-2.3s1.3-2.2,1.7-3.5C594.9,243.2,595.1,241.7,595.1,240z"/>
	<path class="st1" d="M630.7,240c0,2.2-0.3,4.3-1,6.2c-0.6,1.9-1.5,3.5-2.7,4.9c-1.1,1.4-2.5,2.4-4.1,3.2s-3.3,1.1-5.1,1.1
		c-1.9,0-3.6-0.4-5.1-1.1c-1.6-0.8-2.9-1.8-4-3.2s-2-3-2.7-4.9c-0.6-1.9-1-3.9-1-6.2c0-2.2,0.3-4.3,1-6.2c0.6-1.9,1.5-3.5,2.7-4.9
		c1.1-1.4,2.5-2.4,4-3.2c1.6-0.8,3.3-1.2,5.1-1.2s3.5,0.4,5.1,1.2s2.9,1.8,4.1,3.2c1.1,1.4,2,3,2.7,4.9
		C630.4,235.8,630.7,237.8,630.7,240z M626.2,240c0-1.7-0.2-3.2-0.6-4.6s-1-2.6-1.7-3.6s-1.6-1.8-2.6-2.3s-2.1-0.8-3.3-0.8
		s-2.4,0.3-3.4,0.8s-1.9,1.3-2.6,2.3c-0.7,1-1.3,2.2-1.7,3.6c-0.4,1.4-0.6,2.9-0.6,4.6c0,1.7,0.2,3.2,0.6,4.6c0.4,1.4,1,2.5,1.7,3.5
		s1.6,1.7,2.6,2.3c1,0.5,2.2,0.8,3.4,0.8s2.3-0.3,3.3-0.8s1.9-1.3,2.6-2.3s1.3-2.2,1.7-3.5C626,243.2,626.2,241.7,626.2,240z"/>
	<path class="st1" d="M637.2,259l1-4.5h-1.5v-5.3h4.2v5.3l-1.5,4.5H637.2z"/>
	<path class="st1" d="M685.4,243c0,1.7-0.3,3.3-1,4.8s-1.6,2.8-2.7,3.9c-1.2,1.1-2.5,2-4.1,2.7c-1.6,0.6-3.2,1-5.1,1
		c-1.9,0-3.7-0.4-5.3-1.1c-1.6-0.7-3-1.7-4.1-3.1c-1.1-1.3-2-3-2.7-4.9c-0.6-1.9-0.9-4.1-0.9-6.5c0-3.5,0.3-6.6,1-9.3
		c0.6-2.6,1.6-4.9,2.7-6.6c1.2-1.8,2.6-3.1,4.3-4s3.5-1.3,5.5-1.3c2.3,0,4.4,0.6,6.4,1.7c1.9,1.1,3.4,2.7,4.5,4.7l-2.7,2.7
		c-0.7-1.6-1.8-2.8-3.3-3.8s-3.1-1.4-4.9-1.4c-1.4,0-2.6,0.3-3.7,0.9c-1.1,0.6-2.1,1.5-2.9,2.8c-0.8,1.2-1.4,2.7-1.9,4.4
		s-0.7,3.7-0.7,5.9c0.7-1.8,1.9-3.2,3.6-4.2c1.7-1,3.5-1.6,5.7-1.6c1.7,0,3.3,0.3,4.9,0.9c1.5,0.6,2.8,1.5,3.9,2.6
		c1.1,1.1,2,2.4,2.6,3.8C685.1,239.7,685.4,241.3,685.4,243z M672.6,251.5c1.1,0,2.2-0.2,3.3-0.7c1-0.5,2-1.1,2.7-1.8
		c0.8-0.8,1.4-1.7,1.8-2.7c0.5-1,0.7-2.1,0.7-3.3c0-1.1-0.2-2.2-0.7-3.3c-0.5-1-1.1-1.9-1.8-2.7c-0.8-0.8-1.7-1.4-2.7-1.8
		s-2.1-0.7-3.3-0.7s-2.3,0.2-3.3,0.7s-1.9,1.1-2.7,1.8c-0.8,0.8-1.4,1.7-1.8,2.7c-0.5,1-0.7,2.1-0.7,3.3s0.2,2.3,0.7,3.3
		s1.1,1.9,1.8,2.7c0.8,0.8,1.7,1.4,2.7,1.8C670.3,251.3,671.4,251.5,672.6,251.5z"/>
	<path class="st1" d="M701.8,239c1.7,0,3.2,0.3,4.6,0.8c1.4,0.6,2.7,1.3,3.7,2.4c1,1,1.9,2.2,2.5,3.6c0.6,1.4,0.9,3,0.9,4.7
		c0,1.8-0.3,3.4-1,4.9s-1.6,2.7-2.7,3.8c-1.1,1-2.5,1.9-4,2.4c-1.6,0.6-3.2,0.9-5,0.9c-2.6,0-4.9-0.6-6.9-1.8
		c-2.1-1.2-3.6-2.8-4.7-4.9l2.8-2.4c0.9,1.6,2.2,2.8,3.8,3.7c1.6,0.9,3.3,1.4,5.1,1.4c1.1,0,2.2-0.2,3.2-0.6s1.9-0.9,2.6-1.6
		c0.7-0.7,1.3-1.5,1.7-2.5s0.6-2.1,0.6-3.2c0-1.1-0.2-2.1-0.6-3.1c-0.4-0.9-1-1.8-1.6-2.4c-0.7-0.7-1.5-1.2-2.5-1.6s-2-0.6-3-0.6
		c-1.5,0-2.8,0.3-4.1,1c-1.3,0.6-2.3,1.6-3.1,2.7h-4c0-0.2,0.1-0.6,0.3-1.3c0.1-0.7,0.3-1.5,0.5-2.5s0.4-2.1,0.7-3.3
		c0.2-1.2,0.5-2.4,0.7-3.7c0.6-2.9,1.2-6.2,1.9-9.8h17.5v4.1h-14.2l-2.2,11.4c0.7-0.8,1.7-1.4,2.8-1.8
		C699.2,239.2,700.4,239,701.8,239z"/>
	<path class="st1" d="M719.1,259l1-4.5h-1.5v-5.3h4.2v5.3l-1.5,4.5H719.1z"/>
	<path class="st1" d="M756.3,261.3v-8.6h-16.2v-3.9l17.7-22.8h3v22.7h4.5v4h-4.5v8.6H756.3z M744.7,248.7h12.1v-15.8L744.7,248.7z"
		/>
	<path class="st1" d="M786.9,229.5h-18.5v-4.1H794l-18.1,35.9h-5.1L786.9,229.5z"/>
</g>
<g>
	<path class="st1" d="M340.4,315.6v-35.9h15.9c1.7,0,3.2,0.3,4.6,1s2.6,1.6,3.6,2.7s1.8,2.4,2.4,3.8s0.9,2.9,0.9,4.3
		c0,2.3-0.6,4.4-1.7,6.4c-1.2,1.9-2.7,3.3-4.7,4.1l8.2,13.5h-7.8l-7.3-12h-6.9v12h-7.2V315.6z M347.4,297.4h8.8
		c0.6,0,1.2-0.2,1.8-0.5c0.6-0.3,1-0.7,1.4-1.2s0.7-1.1,1-1.8c0.2-0.7,0.4-1.5,0.4-2.3s-0.1-1.6-0.4-2.3c-0.3-0.7-0.6-1.3-1.1-1.8
		s-1-0.9-1.6-1.2c-0.6-0.3-1.2-0.4-1.8-0.4h-8.5L347.4,297.4L347.4,297.4z"/>
	<path class="st1" d="M399,311.6c-2.9,2.9-6.2,4.3-10,4.3c-2.4,0-4.6-0.5-6.7-1.4s-3.9-2.2-5.4-3.9c-1.5-1.7-2.8-3.6-3.6-5.8
		c-0.9-2.2-1.3-4.7-1.3-7.3c0-2.5,0.4-4.8,1.3-7s2.1-4.1,3.7-5.7s3.4-2.9,5.5-3.9s4.4-1.4,6.9-1.4c3.4,0,6.3,0.7,8.7,2.1
		c2.4,1.4,4.2,3.3,5.4,5.7l-5.2,3.8c-0.9-1.8-2.2-3.2-3.8-4.1c-1.6-0.9-3.4-1.4-5.3-1.4c-1.5,0-2.9,0.3-4.2,1
		c-1.3,0.6-2.3,1.5-3.2,2.6c-0.9,1.1-1.6,2.4-2.1,3.8c-0.5,1.5-0.7,3-0.7,4.6c0,1.7,0.3,3.3,0.8,4.7s1.3,2.7,2.2,3.8
		c0.9,1.1,2.1,1.9,3.4,2.6c1.3,0.6,2.7,0.9,4.2,0.9c3.5,0,6.6-1.6,9.4-4.9v-2.5h-7.2v-5.1h13v18.5H399V311.6z"/>
	<path class="st1" d="M439.7,306.3c0,1.5-0.3,2.9-0.9,4s-1.4,2.1-2.5,2.9s-2.3,1.4-3.7,1.8c-1.4,0.4-2.9,0.6-4.5,0.6h-17.4v-35.9
		H430c1.2,0,2.4,0.3,3.4,0.8s1.9,1.2,2.6,2.1s1.3,1.8,1.6,2.9s0.6,2.2,0.6,3.3c0,1.8-0.4,3.4-1.3,4.9s-2.2,2.7-3.8,3.4
		c2.1,0.6,3.7,1.7,4.9,3.3C439.1,302,439.7,304,439.7,306.3z M417.7,285.6v9.1h9.3c1.2,0,2.2-0.4,3-1.2c0.8-0.8,1.2-1.9,1.2-3.3
		s-0.4-2.5-1.1-3.3s-1.7-1.2-2.8-1.2h-9.6V285.6z M432.7,305c0-0.6-0.1-1.3-0.3-1.8c-0.2-0.6-0.5-1.1-0.9-1.5s-0.8-0.8-1.3-1
		c-0.5-0.3-1.1-0.4-1.7-0.4h-10.7v9.5h10.4c0.6,0,1.2-0.1,1.8-0.4c0.6-0.2,1-0.6,1.4-1s0.7-0.9,1-1.5
		C432.5,306.3,432.7,305.7,432.7,305z"/>
</g>
<g>
	<path class="st1" d="M475.8,311.6v4h-18.2v-4h7.2v-19.7c-0.3,0.4-0.8,0.8-1.4,1.3s-1.4,0.9-2.2,1.3c-0.8,0.4-1.6,0.7-2.5,1
		c-0.8,0.3-1.6,0.4-2.2,0.4v-4.3c0.7,0,1.6-0.2,2.5-0.6s1.8-0.9,2.6-1.5c0.8-0.6,1.5-1.1,2.1-1.6s0.9-0.9,1-1.1h4.6v24.9
		L475.8,311.6L475.8,311.6z"/>
	<path class="st1" d="M491.2,299.7c1.7,0,3.2,0.3,4.6,0.8c1.4,0.6,2.7,1.3,3.7,2.4c1,1,1.9,2.2,2.5,3.6s0.9,3,0.9,4.7
		c0,1.8-0.3,3.4-1,4.9s-1.6,2.7-2.7,3.8s-2.5,1.9-4,2.4c-1.6,0.6-3.2,0.9-5,0.9c-2.6,0-4.9-0.6-6.9-1.8c-2.1-1.2-3.6-2.8-4.7-4.9
		l2.8-2.4c0.9,1.6,2.2,2.8,3.8,3.7c1.6,0.9,3.3,1.4,5.1,1.4c1.1,0,2.2-0.2,3.2-0.6s1.9-0.9,2.6-1.6s1.3-1.5,1.7-2.5
		c0.4-1,0.6-2.1,0.6-3.2s-0.2-2.1-0.6-3.1c-0.4-0.9-1-1.8-1.6-2.4c-0.7-0.7-1.5-1.2-2.5-1.6c-0.9-0.4-2-0.6-3-0.6
		c-1.5,0-2.8,0.3-4.1,1c-1.3,0.6-2.3,1.6-3.1,2.7h-4c0-0.2,0.1-0.6,0.3-1.3c0.1-0.7,0.3-1.5,0.5-2.5s0.4-2.1,0.7-3.3
		c0.2-1.2,0.5-2.4,0.7-3.7c0.6-2.9,1.2-6.2,1.9-9.8H501v4.1h-14.2l-2.2,11.4c0.7-0.8,1.7-1.4,2.8-1.8
		C488.5,299.9,489.8,299.7,491.2,299.7z"/>
	<path class="st1" d="M522.9,303.7c2.2,0.4,3.9,1.4,5.1,3c1.3,1.6,1.9,3.6,1.9,6c0,1.6-0.3,3-0.9,4.3c-0.6,1.3-1.4,2.4-2.5,3.3
		s-2.3,1.6-3.8,2.1s-3.1,0.7-5,0.7c-2.6,0-4.8-0.5-6.8-1.4s-3.5-2.3-4.5-4.1l3-3c0.8,1.4,1.8,2.5,3.1,3.3s3,1.2,5.2,1.2
		c2.3,0,4.2-0.5,5.5-1.6c1.3-1,2-2.6,2-4.8c0-2.1-0.7-3.8-2.2-5.1c-1.4-1.3-3.5-1.9-6.3-1.9h-1.3V302h1.4c2.4,0,4.3-0.6,5.6-1.7
		c1.3-1.2,1.9-2.6,1.9-4.4s-0.6-3.1-1.9-4c-1.2-0.9-2.8-1.3-4.7-1.3s-3.5,0.4-4.9,1.2c-1.4,0.8-2.5,1.9-3.3,3.3l-2.7-2.8
		c0.4-0.8,1-1.6,1.8-2.3c0.8-0.7,1.6-1.3,2.6-1.8c1-0.5,2.1-0.9,3.2-1.2c1.2-0.3,2.4-0.4,3.7-0.4c1.6,0,3,0.2,4.4,0.7
		c1.3,0.4,2.5,1,3.4,1.8c1,0.8,1.7,1.7,2.2,2.8c0.5,1.1,0.8,2.3,0.8,3.7c0,1-0.1,2-0.4,2.9c-0.3,0.9-0.7,1.7-1.3,2.5
		c-0.6,0.7-1.2,1.4-2,1.8C524.7,303.2,523.8,303.5,522.9,303.7z"/>
	<path class="st1" d="M535.8,319.7l1-4.5h-1.5v-5.3h4.2v5.3l-1.5,4.5H535.8z"/>
	<path class="st1" d="M583.9,300.8c0,2.2-0.3,4.3-1,6.2c-0.6,1.9-1.5,3.5-2.7,4.9c-1.1,1.4-2.5,2.4-4.1,3.2
		c-1.6,0.8-3.3,1.1-5.1,1.1c-1.9,0-3.6-0.4-5.1-1.1c-1.6-0.8-2.9-1.8-4-3.2c-1.1-1.4-2-3-2.7-4.9c-0.6-1.9-1-3.9-1-6.2
		c0-2.2,0.3-4.3,1-6.2c0.6-1.9,1.5-3.5,2.7-4.9c1.1-1.4,2.5-2.4,4-3.2c1.6-0.8,3.3-1.2,5.1-1.2s3.5,0.4,5.1,1.2
		c1.6,0.8,2.9,1.8,4.1,3.2c1.1,1.4,2,3,2.7,4.9C583.6,296.5,583.9,298.5,583.9,300.8z M579.4,300.8c0-1.7-0.2-3.2-0.6-4.6
		c-0.4-1.4-1-2.6-1.7-3.6s-1.6-1.8-2.6-2.3s-2.1-0.8-3.3-0.8s-2.4,0.3-3.4,0.8s-1.9,1.3-2.6,2.3c-0.7,1-1.3,2.2-1.7,3.6
		s-0.6,2.9-0.6,4.6s0.2,3.2,0.6,4.6c0.4,1.4,1,2.5,1.7,3.5s1.6,1.7,2.6,2.3c1,0.5,2.2,0.8,3.4,0.8s2.3-0.3,3.3-0.8s1.9-1.3,2.6-2.3
		c0.7-1,1.3-2.2,1.7-3.5C579.2,304,579.4,302.5,579.4,300.8z"/>
	<path class="st1" d="M590.4,319.7l1-4.5h-1.5v-5.3h4.2v5.3l-1.5,4.5H590.4z"/>
	<path class="st1" d="M638.5,300.8c0,2.2-0.3,4.3-1,6.2c-0.6,1.9-1.5,3.5-2.7,4.9c-1.1,1.4-2.5,2.4-4.1,3.2
		c-1.6,0.8-3.3,1.1-5.1,1.1c-1.9,0-3.6-0.4-5.1-1.1c-1.6-0.8-2.9-1.8-4-3.2c-1.1-1.4-2-3-2.7-4.9c-0.6-1.9-1-3.9-1-6.2
		c0-2.2,0.3-4.3,1-6.2c0.6-1.9,1.5-3.5,2.7-4.9c1.1-1.4,2.5-2.4,4-3.2c1.6-0.8,3.3-1.2,5.1-1.2s3.5,0.4,5.1,1.2
		c1.6,0.8,2.9,1.8,4.1,3.2c1.1,1.4,2,3,2.7,4.9C638.2,296.5,638.5,298.5,638.5,300.8z M634,300.8c0-1.7-0.2-3.2-0.6-4.6
		c-0.4-1.4-1-2.6-1.7-3.6s-1.6-1.8-2.6-2.3s-2.1-0.8-3.3-0.8s-2.4,0.3-3.4,0.8s-1.9,1.3-2.6,2.3c-0.7,1-1.3,2.2-1.7,3.6
		s-0.6,2.9-0.6,4.6s0.2,3.2,0.6,4.6c0.4,1.4,1,2.5,1.7,3.5s1.6,1.7,2.6,2.3c1,0.5,2.2,0.8,3.4,0.8s2.3-0.3,3.3-0.8s1.9-1.3,2.6-2.3
		c0.7-1,1.3-2.2,1.7-3.5C633.8,304,634,302.5,634,300.8z"/>
</g>
<g>
	<path class="st1" d="M352.8,349.9h6.4l4,11.9l4-11.9h6.5l-6.1,16.4l4.6,11.5l10.2-27.9h7.6l-14.6,35.9h-5.9l-6.2-15.1l-6.2,15.1
		h-5.9l-14.5-35.9h7.5l10.2,27.9l4.5-11.5L352.8,349.9z"/>
	<path class="st1" d="M402.1,386.2c-2.1,0-4-0.4-5.8-1.1c-1.7-0.7-3.2-1.7-4.4-3c-1.2-1.2-2.2-2.7-2.8-4.4c-0.7-1.7-1-3.4-1-5.2
		c0-1.9,0.3-3.7,1-5.3c0.6-1.7,1.6-3.1,2.8-4.4c1.2-1.3,2.7-2.3,4.4-3c1.7-0.7,3.7-1.1,5.8-1.1c2.2,0,4.1,0.4,5.8,1.1
		c1.7,0.7,3.2,1.7,4.4,3c1.2,1.2,2.1,2.7,2.7,4.4c0.6,1.7,0.9,3.4,0.9,5.2c0,0.4,0,0.9,0,1.3s-0.1,0.7-0.1,1h-20.5
		c0.1,1,0.4,2,0.8,2.8s0.9,1.5,1.6,2.1c0.6,0.6,1.4,1,2.2,1.3c0.8,0.3,1.7,0.5,2.5,0.5c1.3,0,2.6-0.3,3.8-1c1.2-0.7,2-1.5,2.5-2.6
		l5.8,1.6c-1,2-2.5,3.7-4.7,5C407.6,385.6,405.1,386.2,402.1,386.2z M409,370.2c-0.2-2-0.9-3.6-2.2-4.8c-1.3-1.2-2.9-1.8-4.7-1.8
		c-0.9,0-1.8,0.2-2.6,0.5c-0.8,0.3-1.5,0.8-2.1,1.3c-0.6,0.6-1.1,1.3-1.5,2.1c-0.4,0.8-0.6,1.7-0.7,2.7L409,370.2L409,370.2z"/>
	<path class="st1" d="M435.2,386.2c-2,0-3.8-0.5-5.4-1.4s-2.8-2.2-3.7-3.7v4.6h-5.9v-37h6.8v15.1c0.9-1.6,2.2-2.9,3.7-3.8
		s3.3-1.3,5.4-1.3c1.7,0,3.3,0.4,4.7,1.1c1.4,0.7,2.6,1.7,3.7,3c1,1.2,1.8,2.7,2.4,4.4c0.6,1.7,0.8,3.5,0.8,5.3
		c0,1.9-0.3,3.7-0.9,5.4c-0.6,1.7-1.5,3.1-2.6,4.3c-1.1,1.2-2.4,2.2-3.9,2.9C438.6,385.9,436.9,386.2,435.2,386.2z M433.3,380.4
		c1.1,0,2.1-0.2,3-0.6s1.7-1,2.3-1.7c0.6-0.7,1.1-1.5,1.5-2.5c0.4-0.9,0.5-2,0.5-3c0-1.1-0.2-2.1-0.5-3.1s-0.8-1.8-1.4-2.6
		c-0.6-0.7-1.4-1.3-2.2-1.8s-1.8-0.7-2.8-0.7c-1.5,0-2.9,0.5-4.1,1.5s-2.1,2.2-2.8,3.7v6.3c0.2,0.7,0.6,1.3,1,1.8
		c0.5,0.5,1,1,1.5,1.4c0.6,0.4,1.2,0.7,1.9,0.9C432,380.3,432.7,380.4,433.3,380.4z"/>
</g>
<g>
	<path class="st1" d="M495.1,363.1h-6.8l-2.2,9h6.7v3.4h-7.5l-2.5,10.2h-3.7l2.5-10.2h-8.5l-2.5,10.2H467l2.5-10.2h-5.7v-3.4h6.5
		l2.2-9H466v-3.2h7.3l2.4-10.1h3.7l-2.5,10.1h8.5l2.4-10.1h3.7l-2.5,10.1h6v3.2H495.1z M482.5,372.1l2.2-9h-8.5l-2.2,9H482.5z"/>
	<path class="st1" d="M498.8,369.2c0-1.7,0.3-3.3,1-4.8s1.6-2.8,2.7-3.9c1.2-1.1,2.5-2,4.1-2.7c1.6-0.6,3.2-1,5.1-1
		c1.9,0,3.7,0.4,5.3,1.1s3,1.7,4.1,3.1c1.1,1.3,2,3,2.7,4.9c0.6,1.9,0.9,4.1,0.9,6.5c0,3.5-0.3,6.6-1,9.3c-0.6,2.7-1.6,4.9-2.7,6.6
		c-1.2,1.8-2.6,3.1-4.3,4s-3.5,1.3-5.5,1.3c-2.3,0-4.4-0.6-6.4-1.7c-1.9-1.1-3.4-2.7-4.5-4.7l2.7-2.7c0.7,1.6,1.8,2.8,3.3,3.8
		c1.5,0.9,3.1,1.4,4.9,1.4c2.8,0,5-1.2,6.6-3.7c1.7-2.5,2.5-5.9,2.6-10.4c-0.7,1.8-1.9,3.2-3.6,4.2c-1.7,1-3.5,1.6-5.7,1.6
		c-1.7,0-3.3-0.3-4.9-0.9c-1.5-0.6-2.8-1.5-3.9-2.6s-2-2.4-2.6-3.8C499.1,372.5,498.8,370.9,498.8,369.2z M511.6,360.7
		c-1.2,0-2.3,0.2-3.3,0.7s-1.9,1.1-2.7,1.8c-0.8,0.8-1.4,1.7-1.8,2.7c-0.5,1-0.7,2.1-0.7,3.3c0,1.2,0.2,2.3,0.7,3.3s1.1,1.9,1.8,2.7
		c0.8,0.8,1.7,1.4,2.7,1.8c1,0.5,2.1,0.7,3.3,0.7s2.3-0.2,3.3-0.7s1.9-1.1,2.7-1.8c0.8-0.8,1.4-1.7,1.8-2.7c0.5-1,0.7-2.1,0.7-3.3
		c0-1.1-0.2-2.2-0.7-3.3c-0.5-1-1.1-2-1.8-2.7c-0.8-0.8-1.7-1.4-2.7-1.8C513.8,360.9,512.7,360.7,511.6,360.7z"/>
	<path class="st1" d="M528.6,369.2c0-1.7,0.3-3.3,1-4.8s1.6-2.8,2.7-3.9c1.2-1.1,2.5-2,4.1-2.7c1.6-0.6,3.2-1,5.1-1
		c1.9,0,3.7,0.4,5.3,1.1s3,1.7,4.1,3.1c1.1,1.3,2,3,2.7,4.9c0.6,1.9,0.9,4.1,0.9,6.5c0,3.5-0.3,6.6-1,9.3c-0.6,2.7-1.6,4.9-2.7,6.6
		c-1.2,1.8-2.6,3.1-4.3,4s-3.5,1.3-5.5,1.3c-2.3,0-4.4-0.6-6.4-1.7c-1.9-1.1-3.4-2.7-4.5-4.7l2.7-2.7c0.7,1.6,1.8,2.8,3.3,3.8
		c1.5,0.9,3.1,1.4,4.9,1.4c2.8,0,5-1.2,6.6-3.7c1.7-2.5,2.5-5.9,2.6-10.4c-0.7,1.8-1.9,3.2-3.6,4.2c-1.7,1-3.5,1.6-5.7,1.6
		c-1.7,0-3.3-0.3-4.9-0.9c-1.5-0.6-2.8-1.5-3.9-2.6c-1.1-1.1-2-2.4-2.6-3.8C528.9,372.5,528.6,370.9,528.6,369.2z M541.4,360.7
		c-1.2,0-2.3,0.2-3.3,0.7s-1.9,1.1-2.7,1.8c-0.8,0.8-1.4,1.7-1.8,2.7c-0.5,1-0.7,2.1-0.7,3.3c0,1.2,0.2,2.3,0.7,3.3s1.1,1.9,1.8,2.7
		c0.8,0.8,1.7,1.4,2.7,1.8c1,0.5,2.1,0.7,3.3,0.7s2.3-0.2,3.3-0.7s1.9-1.1,2.7-1.8c0.8-0.8,1.4-1.7,1.8-2.7c0.5-1,0.7-2.1,0.7-3.3
		c0-1.1-0.2-2.2-0.7-3.3s-1.1-2-1.8-2.7c-0.8-0.8-1.7-1.4-2.7-1.8C543.6,360.9,542.5,360.7,541.4,360.7z"/>
	<path class="st1" d="M584.9,370.9c0,2.2-0.3,4.3-1,6.2c-0.6,1.9-1.5,3.5-2.7,4.9c-1.1,1.4-2.5,2.4-4.1,3.2
		c-1.6,0.8-3.3,1.1-5.1,1.1c-1.9,0-3.6-0.4-5.1-1.1c-1.6-0.8-2.9-1.8-4-3.2c-1.1-1.4-2-3-2.7-4.9c-0.6-1.9-1-3.9-1-6.2
		c0-2.2,0.3-4.3,1-6.2c0.6-1.9,1.5-3.5,2.7-4.9c1.1-1.4,2.5-2.4,4-3.2c1.6-0.8,3.3-1.2,5.1-1.2s3.5,0.4,5.1,1.2
		c1.6,0.8,2.9,1.8,4.1,3.2c1.1,1.4,2,3,2.7,4.9C584.6,366.6,584.9,368.7,584.9,370.9z M580.4,370.9c0-1.7-0.2-3.2-0.6-4.6
		c-0.4-1.4-1-2.6-1.7-3.6s-1.6-1.8-2.6-2.3s-2.1-0.8-3.3-0.8s-2.4,0.3-3.4,0.8s-1.9,1.3-2.6,2.3c-0.7,1-1.3,2.2-1.7,3.6
		s-0.6,2.9-0.6,4.6s0.2,3.2,0.6,4.6c0.4,1.4,1,2.5,1.7,3.5s1.6,1.7,2.6,2.3c1,0.5,2.2,0.8,3.4,0.8s2.3-0.3,3.3-0.8s1.9-1.3,2.6-2.3
		c0.7-1,1.3-2.2,1.7-3.5C580.2,374.1,580.4,372.6,580.4,370.9z"/>
	<path class="st1" d="M616,370.9c0,2.2-0.3,4.3-1,6.2c-0.6,1.9-1.5,3.5-2.7,4.9c-1.1,1.4-2.5,2.4-4.1,3.2c-1.6,0.8-3.3,1.1-5.1,1.1
		c-1.9,0-3.6-0.4-5.1-1.1c-1.6-0.8-2.9-1.8-4-3.2c-1.1-1.4-2-3-2.7-4.9c-0.6-1.9-1-3.9-1-6.2c0-2.2,0.3-4.3,1-6.2
		c0.6-1.9,1.5-3.5,2.7-4.9c1.1-1.4,2.5-2.4,4-3.2c1.6-0.8,3.3-1.2,5.1-1.2s3.5,0.4,5.1,1.2c1.6,0.8,2.9,1.8,4.1,3.2
		c1.1,1.4,2,3,2.7,4.9C615.7,366.6,616,368.7,616,370.9z M611.5,370.9c0-1.7-0.2-3.2-0.6-4.6s-1-2.6-1.7-3.6s-1.6-1.8-2.6-2.3
		s-2.1-0.8-3.3-0.8s-2.4,0.3-3.4,0.8s-1.9,1.3-2.6,2.3c-0.7,1-1.3,2.2-1.7,3.6s-0.6,2.9-0.6,4.6s0.2,3.2,0.6,4.6
		c0.4,1.4,1,2.5,1.7,3.5s1.6,1.7,2.6,2.3c1,0.5,2.2,0.8,3.4,0.8s2.3-0.3,3.3-0.8s1.9-1.3,2.6-2.3c0.7-1,1.3-2.2,1.7-3.5
		C611.3,374.1,611.5,372.6,611.5,370.9z"/>
	<path class="st1" d="M647.1,370.9c0,2.2-0.3,4.3-1,6.2c-0.6,1.9-1.5,3.5-2.7,4.9c-1.1,1.4-2.5,2.4-4.1,3.2
		c-1.6,0.8-3.3,1.1-5.1,1.1c-1.9,0-3.6-0.4-5.1-1.1c-1.6-0.8-2.9-1.8-4-3.2c-1.1-1.4-2-3-2.7-4.9c-0.6-1.9-1-3.9-1-6.2
		c0-2.2,0.3-4.3,1-6.2c0.6-1.9,1.5-3.5,2.7-4.9c1.1-1.4,2.5-2.4,4-3.2c1.6-0.8,3.3-1.2,5.1-1.2s3.5,0.4,5.1,1.2
		c1.6,0.8,2.9,1.8,4.1,3.2c1.1,1.4,2,3,2.7,4.9C646.8,366.6,647.1,368.7,647.1,370.9z M642.6,370.9c0-1.7-0.2-3.2-0.6-4.6
		s-1-2.6-1.7-3.6s-1.6-1.8-2.6-2.3s-2.1-0.8-3.3-0.8s-2.4,0.3-3.4,0.8s-1.9,1.3-2.6,2.3c-0.7,1-1.3,2.2-1.7,3.6s-0.6,2.9-0.6,4.6
		s0.2,3.2,0.6,4.6c0.4,1.4,1,2.5,1.7,3.5s1.6,1.7,2.6,2.3c1,0.5,2.2,0.8,3.4,0.8s2.3-0.3,3.3-0.8s1.9-1.3,2.6-2.3
		c0.7-1,1.3-2.2,1.7-3.5C642.4,374.1,642.6,372.6,642.6,370.9z"/>
	<path class="st1" d="M678.2,370.9c0,2.2-0.3,4.3-1,6.2c-0.6,1.9-1.5,3.5-2.7,4.9c-1.1,1.4-2.5,2.4-4.1,3.2
		c-1.6,0.8-3.3,1.1-5.1,1.1c-1.9,0-3.6-0.4-5.1-1.1c-1.6-0.8-2.9-1.8-4-3.2c-1.1-1.4-2-3-2.7-4.9c-0.6-1.9-1-3.9-1-6.2
		c0-2.2,0.3-4.3,1-6.2c0.6-1.9,1.5-3.5,2.7-4.9c1.1-1.4,2.5-2.4,4-3.2c1.6-0.8,3.3-1.2,5.1-1.2s3.5,0.4,5.1,1.2
		c1.6,0.8,2.9,1.8,4.1,3.2c1.1,1.4,2,3,2.7,4.9C677.8,366.6,678.2,368.7,678.2,370.9z M673.7,370.9c0-1.7-0.2-3.2-0.6-4.6
		c-0.4-1.4-1-2.6-1.7-3.6s-1.6-1.8-2.6-2.3s-2.1-0.8-3.3-0.8s-2.4,0.3-3.4,0.8s-1.9,1.3-2.6,2.3c-0.7,1-1.3,2.2-1.7,3.6
		s-0.6,2.9-0.6,4.6s0.2,3.2,0.6,4.6c0.4,1.4,1,2.5,1.7,3.5s1.6,1.7,2.6,2.3c1,0.5,2.2,0.8,3.4,0.8s2.3-0.3,3.3-0.8s1.9-1.3,2.6-2.3
		c0.7-1,1.3-2.2,1.7-3.5C673.4,374.1,673.7,372.6,673.7,370.9z"/>
</g>
<g>
	<path d="M29.5,15.3c-0.8-3.3-2.2-5.7-4.2-7.1c-2.1-1.4-4.7-2.1-8-2.1c-2.3,0-4.4,0.5-6,1.4C9.5,8.5,8.1,9.7,7,11.3
		c-1.1,1.6-1.9,3.4-2.4,5.5c-0.5,2.1-0.8,4.3-0.8,6.6c0,2.2,0.2,4.3,0.7,6.4c0.4,2.1,1.2,4,2.2,5.6c1,1.6,2.4,3,4.2,4
		c1.8,1,4,1.5,6.6,1.5c1.7,0,3.2-0.3,4.5-0.8c1.4-0.5,2.6-1.3,3.6-2.2c1-1,1.9-2.1,2.6-3.4c0.7-1.3,1.2-2.7,1.6-4.3h3.8
		c-0.4,1.9-1.1,3.6-1.9,5.3c-0.8,1.7-1.9,3.1-3.3,4.4c-1.4,1.3-3,2.3-4.9,3c-1.9,0.7-4.2,1.1-6.8,1.1c-3,0-5.5-0.5-7.7-1.6
		c-2.1-1.1-3.9-2.6-5.2-4.5c-1.4-1.9-2.3-4-2.9-6.5c-0.6-2.5-0.9-5.1-0.9-7.9c0-3.7,0.5-6.9,1.4-9.5c0.9-2.6,2.2-4.7,3.8-6.3
		C6.9,6,8.9,4.8,11.1,4.1C13.2,3.4,15.6,3,18.2,3c2,0,3.8,0.3,5.5,0.8c1.7,0.5,3.2,1.3,4.5,2.3c1.3,1,2.4,2.3,3.2,3.9
		c0.8,1.5,1.4,3.3,1.8,5.3H29.5z"/>
	<path d="M51.6,43.6c-1.8,0-3.5-0.4-5-1c-1.6-0.6-2.9-1.5-4.1-2.8c-1.2-1.2-2.1-2.8-2.8-4.6c-0.7-1.8-1-4-1-6.4c0-2.1,0.3-4,0.8-5.8
		c0.5-1.8,1.4-3.3,2.4-4.7c1.1-1.3,2.4-2.4,4-3.2c1.6-0.8,3.5-1.2,5.7-1.2c2.2,0,4.1,0.4,5.7,1.2c1.6,0.8,3,1.8,4.1,3.1
		c1.1,1.3,1.9,2.9,2.4,4.7c0.5,1.8,0.8,3.7,0.8,5.8c0,2.2-0.3,4.2-0.9,6c-0.6,1.8-1.5,3.3-2.6,4.6c-1.1,1.3-2.5,2.3-4.1,3
		C55.3,43.3,53.5,43.6,51.6,43.6z M61.1,28.9c0-1.7-0.2-3.2-0.5-4.6c-0.4-1.4-0.9-2.7-1.7-3.8c-0.8-1.1-1.7-1.9-2.9-2.5
		c-1.2-0.6-2.6-0.9-4.4-0.9c-1.7,0-3.1,0.3-4.3,1c-1.2,0.7-2.2,1.5-2.9,2.6c-0.8,1.1-1.3,2.4-1.7,3.8c-0.4,1.4-0.5,2.9-0.5,4.4
		c0,1.7,0.2,3.3,0.6,4.8c0.4,1.5,1,2.7,1.8,3.8c0.8,1,1.8,1.9,3,2.4c1.2,0.6,2.6,0.9,4.1,0.9c1.7,0,3.1-0.3,4.3-1
		c1.2-0.7,2.2-1.6,2.9-2.7c0.8-1.1,1.3-2.4,1.7-3.8C60.9,31.9,61.1,30.4,61.1,28.9z"/>
	<path d="M89.4,14.9h3.2v28h-3.2V39c-0.4,0.5-0.9,1-1.5,1.6c-0.5,0.5-1.2,1-1.9,1.5c-0.7,0.5-1.5,0.8-2.5,1.1
		c-0.9,0.3-2,0.5-3.2,0.5c-1.9,0-3.4-0.3-4.7-0.8c-1.3-0.5-2.3-1.3-3.1-2.2c-0.8-0.9-1.3-2-1.7-3.3c-0.3-1.2-0.5-2.6-0.5-4.1V14.9
		h3.2v18.4c0,2.4,0.6,4.3,1.7,5.5c1.1,1.3,3,1.9,5.5,1.9c1.3,0,2.5-0.3,3.6-0.8c1.1-0.5,2-1.3,2.7-2.2c0.7-0.9,1.3-2.1,1.7-3.3
		c0.4-1.3,0.6-2.7,0.6-4.3V14.9z"/>
	<path d="M101,42.9V4h3.2v38.9H101z"/>
	<path d="M114.5,29.7c0,1.5,0.2,2.9,0.6,4.3c0.4,1.4,1,2.5,1.8,3.5c0.8,1,1.8,1.8,2.9,2.4c1.2,0.6,2.6,0.9,4.1,0.9
		c2.1,0,3.9-0.6,5.5-1.7c1.5-1.1,2.5-2.7,3-4.8h3.6c-0.4,1.3-0.9,2.6-1.6,3.7c-0.6,1.1-1.5,2.1-2.4,3c-1,0.8-2.1,1.5-3.5,2
		c-1.3,0.5-2.9,0.7-4.6,0.7c-2.2,0-4.2-0.4-5.8-1.1s-3-1.8-4-3.1c-1-1.3-1.8-2.9-2.3-4.6c-0.5-1.8-0.8-3.7-0.8-5.8
		c0-2.1,0.3-4,0.9-5.8c0.6-1.8,1.4-3.4,2.5-4.7c1.1-1.4,2.4-2.4,4-3.2c1.6-0.8,3.4-1.2,5.4-1.2c3.9,0,6.9,1.3,9.1,4
		c2.2,2.6,3.3,6.5,3.2,11.5H114.5z M132.7,27c0-1.4-0.2-2.7-0.6-3.9c-0.4-1.2-0.9-2.2-1.7-3.1c-0.7-0.9-1.7-1.6-2.8-2.1
		c-1.1-0.5-2.4-0.8-3.8-0.8c-1.4,0-2.7,0.3-3.8,0.8c-1.1,0.5-2,1.3-2.8,2.2c-0.8,0.9-1.4,1.9-1.9,3.1c-0.5,1.2-0.8,2.4-0.9,3.8
		H132.7z"/>
	<path d="M161.4,14.9h3.2v28h-3.2V39c-0.4,0.5-0.9,1-1.5,1.6c-0.5,0.5-1.2,1-1.9,1.5c-0.7,0.5-1.5,0.8-2.5,1.1
		c-0.9,0.3-2,0.5-3.2,0.5c-1.9,0-3.4-0.3-4.7-0.8c-1.3-0.5-2.3-1.3-3.1-2.2c-0.8-0.9-1.3-2-1.7-3.3c-0.3-1.2-0.5-2.6-0.5-4.1V14.9
		h3.2v18.4c0,2.4,0.6,4.3,1.7,5.5c1.1,1.3,3,1.9,5.5,1.9c1.3,0,2.5-0.3,3.6-0.8c1.1-0.5,2-1.3,2.7-2.2c0.7-0.9,1.3-2.1,1.7-3.3
		c0.4-1.3,0.6-2.7,0.6-4.3V14.9z"/>
	<path d="M175.9,42.9h-3.2v-28h3.2v5.2h0.1c0.9-2.2,2.1-3.8,3.5-4.7c1.4-0.9,3.3-1.3,5.6-1.3v3.5c-1.8,0-3.3,0.3-4.5,0.9
		c-1.2,0.6-2.1,1.4-2.8,2.5c-0.7,1-1.2,2.3-1.5,3.7c-0.3,1.4-0.4,2.9-0.4,4.5V42.9z"/>
	<path d="M216.6,43.6c-1.8,0-3.5-0.4-5-1c-1.6-0.6-2.9-1.5-4.1-2.8c-1.2-1.2-2.1-2.8-2.8-4.6c-0.7-1.8-1-4-1-6.4
		c0-2.1,0.3-4,0.8-5.8c0.5-1.8,1.4-3.3,2.4-4.7c1.1-1.3,2.4-2.4,4-3.2c1.6-0.8,3.5-1.2,5.7-1.2c2.2,0,4.1,0.4,5.7,1.2
		c1.6,0.8,3,1.8,4.1,3.1c1.1,1.3,1.9,2.9,2.4,4.7c0.5,1.8,0.8,3.7,0.8,5.8c0,2.2-0.3,4.2-0.9,6c-0.6,1.8-1.5,3.3-2.6,4.6
		c-1.1,1.3-2.5,2.3-4.1,3C220.3,43.3,218.6,43.6,216.6,43.6z M226.1,28.9c0-1.7-0.2-3.2-0.5-4.6c-0.4-1.4-0.9-2.7-1.7-3.8
		c-0.8-1.1-1.7-1.9-2.9-2.5c-1.2-0.6-2.6-0.9-4.4-0.9c-1.7,0-3.1,0.3-4.3,1c-1.2,0.7-2.2,1.5-2.9,2.6c-0.8,1.1-1.3,2.4-1.7,3.8
		c-0.4,1.4-0.5,2.9-0.5,4.4c0,1.7,0.2,3.3,0.6,4.8c0.4,1.5,1,2.7,1.8,3.8c0.8,1,1.8,1.9,3,2.4c1.2,0.6,2.6,0.9,4.1,0.9
		c1.7,0,3.1-0.3,4.3-1c1.2-0.7,2.2-1.6,2.9-2.7c0.8-1.1,1.3-2.4,1.7-3.8C226,31.9,226.1,30.4,226.1,28.9z"/>
	<path d="M232.7,17.6v-2.7h4.2v-4.4c0-2.2,0.4-4,1.4-5.3c0.9-1.3,2.4-1.9,4.6-1.9c0.5,0,1,0,1.4,0.1c0.4,0,0.9,0.1,1.3,0.2v3
		c-0.7-0.2-1.4-0.3-1.9-0.3c-0.8,0-1.5,0.2-1.9,0.5c-0.5,0.3-0.8,0.7-1,1.2c-0.2,0.5-0.4,1.1-0.4,1.7c-0.1,0.6-0.1,1.3-0.1,1.9v3.5
		h5.4v2.7h-5.4v25.3h-3.2V17.6H232.7z"/>
	<path d="M247.7,17.6v-2.7h4.2v-4.4c0-2.2,0.4-4,1.4-5.3c0.9-1.3,2.4-1.9,4.6-1.9c0.5,0,1,0,1.4,0.1c0.4,0,0.9,0.1,1.3,0.2v3
		c-0.7-0.2-1.4-0.3-1.9-0.3c-0.8,0-1.5,0.2-1.9,0.5c-0.5,0.3-0.8,0.7-1,1.2c-0.2,0.5-0.4,1.1-0.4,1.7c-0.1,0.6-0.1,1.3-0.1,1.9v3.5
		h5.4v2.7h-5.4v25.3h-3.2V17.6H247.7z"/>
	<path d="M265.9,8.8V4h3.6v4.8H265.9z M266,42.9v-28h3.2v28H266z"/>
	<path d="M297.4,23.7c-0.6-2.1-1.6-3.7-3-4.9c-1.4-1.2-3.2-1.8-5.3-1.8c-1.7,0-3.1,0.3-4.3,1c-1.2,0.7-2.2,1.6-2.9,2.7
		c-0.8,1.1-1.3,2.4-1.7,3.8c-0.4,1.4-0.5,2.9-0.5,4.3c0,1.5,0.2,2.9,0.5,4.3c0.3,1.4,0.9,2.7,1.6,3.8c0.8,1.1,1.7,2,2.9,2.7
		c1.2,0.7,2.6,1,4.3,1c2.4,0,4.3-0.7,5.8-2c1.5-1.3,2.4-3.2,2.8-5.5h3.5c-0.3,1.5-0.7,3-1.4,4.2c-0.6,1.3-1.4,2.4-2.4,3.3
		c-1,0.9-2.2,1.6-3.5,2.1c-1.4,0.5-2.9,0.8-4.7,0.8c-2.2,0-4.2-0.4-5.8-1.1c-1.6-0.8-3-1.8-4-3.1c-1-1.3-1.8-2.9-2.3-4.7
		c-0.5-1.8-0.8-3.7-0.8-5.8c0-1.9,0.3-3.8,0.8-5.6c0.6-1.8,1.4-3.4,2.5-4.7c1.1-1.4,2.4-2.5,4-3.3c1.6-0.8,3.4-1.2,5.5-1.2
		c3.2,0,5.9,0.8,7.9,2.3s3.2,4,3.8,7.2H297.4z"/>
	<path d="M307.9,8.8V4h3.6v4.8H307.9z M308,42.9v-28h3.2v28H308z"/>
	<path d="M321.5,29.7c0,1.5,0.2,2.9,0.6,4.3c0.4,1.4,1,2.5,1.8,3.5c0.8,1,1.8,1.8,2.9,2.4c1.2,0.6,2.6,0.9,4.1,0.9
		c2.1,0,3.9-0.6,5.5-1.7c1.5-1.1,2.5-2.7,3-4.8h3.6c-0.4,1.3-0.9,2.6-1.6,3.7c-0.6,1.1-1.5,2.1-2.4,3c-1,0.8-2.1,1.5-3.5,2
		c-1.3,0.5-2.9,0.7-4.6,0.7c-2.2,0-4.2-0.4-5.8-1.1s-3-1.8-4-3.1c-1-1.3-1.8-2.9-2.3-4.6c-0.5-1.8-0.8-3.7-0.8-5.8
		c0-2.1,0.3-4,0.9-5.8c0.6-1.8,1.4-3.4,2.5-4.7c1.1-1.4,2.4-2.4,4-3.2c1.6-0.8,3.4-1.2,5.4-1.2c3.9,0,6.9,1.3,9.1,4
		c2.2,2.6,3.3,6.5,3.2,11.5H321.5z M339.8,27c0-1.4-0.2-2.7-0.6-3.9c-0.4-1.2-0.9-2.2-1.7-3.1c-0.7-0.9-1.7-1.6-2.8-2.1
		c-1.1-0.5-2.4-0.8-3.8-0.8c-1.4,0-2.7,0.3-3.8,0.8c-1.1,0.5-2,1.3-2.8,2.2c-0.8,0.9-1.4,1.9-1.9,3.1c-0.5,1.2-0.8,2.4-0.9,3.8
		H339.8z"/>
	<path d="M350.1,42.9V4h3.2v38.9H350.1z"/>
	<path d="M362,42.9V4h3.2v38.9H362z"/>
	<path d="M375.5,29.7c0,1.5,0.2,2.9,0.6,4.3c0.4,1.4,1,2.5,1.8,3.5c0.8,1,1.8,1.8,2.9,2.4c1.2,0.6,2.6,0.9,4.1,0.9
		c2.1,0,3.9-0.6,5.5-1.7c1.5-1.1,2.5-2.7,3-4.8h3.6c-0.4,1.3-0.9,2.6-1.6,3.7c-0.6,1.1-1.5,2.1-2.4,3c-1,0.8-2.1,1.5-3.5,2
		c-1.3,0.5-2.9,0.7-4.6,0.7c-2.2,0-4.2-0.4-5.8-1.1s-3-1.8-4-3.1c-1-1.3-1.8-2.9-2.3-4.6c-0.5-1.8-0.8-3.7-0.8-5.8
		c0-2.1,0.3-4,0.9-5.8c0.6-1.8,1.4-3.4,2.5-4.7c1.1-1.4,2.4-2.4,4-3.2c1.6-0.8,3.4-1.2,5.4-1.2c3.9,0,6.9,1.3,9.1,4
		c2.2,2.6,3.3,6.5,3.2,11.5H375.5z M393.8,27c0-1.4-0.2-2.7-0.6-3.9c-0.4-1.2-0.9-2.2-1.7-3.1c-0.7-0.9-1.7-1.6-2.8-2.1
		c-1.1-0.5-2.4-0.8-3.8-0.8c-1.4,0-2.7,0.3-3.8,0.8c-1.1,0.5-2,1.3-2.8,2.2c-0.8,0.9-1.4,1.9-1.9,3.1c-0.5,1.2-0.8,2.4-0.9,3.8
		H393.8z"/>
	<path d="M440.2,4h3.2v38.9h-3.2V38h-0.1c-0.5,0.9-1.1,1.8-1.8,2.5c-0.7,0.7-1.5,1.3-2.4,1.8c-0.9,0.5-1.8,0.8-2.7,1.1
		c-0.9,0.3-1.9,0.4-2.8,0.4c-2.3,0-4.2-0.4-5.8-1.1s-2.9-1.8-3.9-3.1c-1-1.3-1.8-2.9-2.2-4.7c-0.5-1.8-0.7-3.7-0.7-5.8
		c0-1.9,0.3-3.8,0.8-5.6c0.5-1.8,1.3-3.4,2.3-4.7c1-1.4,2.3-2.4,3.9-3.2c1.6-0.8,3.4-1.2,5.5-1.2c2,0,3.9,0.4,5.7,1.3
		c1.8,0.9,3.2,2.2,4.3,3.9V4z M440.2,28.8c0-1.6-0.2-3.1-0.6-4.5c-0.4-1.4-1.1-2.7-1.9-3.7c-0.8-1.1-1.8-1.9-3-2.5
		c-1.2-0.6-2.5-0.9-4-0.9c-1.7,0-3.2,0.3-4.4,1c-1.2,0.7-2.2,1.6-3,2.7c-0.8,1.2-1.4,2.5-1.7,4c-0.4,1.5-0.5,3.2-0.4,4.9
		c0,1.8,0.2,3.3,0.7,4.7c0.5,1.4,1.2,2.5,2,3.4c0.9,0.9,1.9,1.6,3,2.1c1.2,0.5,2.4,0.7,3.8,0.7c1.5,0,2.9-0.3,4-0.9
		c1.2-0.6,2.2-1.4,3-2.5c0.8-1.1,1.4-2.3,1.8-3.8C440,32.1,440.2,30.5,440.2,28.8z"/>
	<path d="M470.5,14.9h3.2v28h-3.2V39c-0.4,0.5-0.9,1-1.5,1.6c-0.5,0.5-1.2,1-1.9,1.5c-0.7,0.5-1.5,0.8-2.5,1.1
		c-0.9,0.3-2,0.5-3.2,0.5c-1.9,0-3.4-0.3-4.7-0.8c-1.3-0.5-2.3-1.3-3.1-2.2c-0.8-0.9-1.3-2-1.7-3.3c-0.3-1.2-0.5-2.6-0.5-4.1V14.9
		h3.2v18.4c0,2.4,0.6,4.3,1.7,5.5c1.1,1.3,3,1.9,5.5,1.9c1.3,0,2.5-0.3,3.6-0.8c1.1-0.5,2-1.3,2.7-2.2c0.7-0.9,1.3-2.1,1.7-3.3
		c0.4-1.3,0.6-2.7,0.6-4.3V14.9z"/>
	<path d="M498.6,31.3c0.1,1.7,0.5,3.2,1.2,4.4c0.6,1.2,1.4,2.2,2.4,2.9c1,0.8,2.1,1.3,3.4,1.6c1.3,0.3,2.7,0.5,4.2,0.5
		c1.7,0,3.2-0.2,4.5-0.6c1.3-0.4,2.3-1,3.1-1.8c0.8-0.7,1.4-1.6,1.8-2.6c0.4-1,0.6-2,0.6-3.1c0-1.5-0.3-2.7-1-3.7
		c-0.7-0.9-1.6-1.7-2.7-2.3c-1.1-0.6-2.4-1.1-3.8-1.4s-2.9-0.7-4.4-1.1c-1.5-0.3-3-0.7-4.4-1.2c-1.4-0.5-2.7-1.1-3.8-1.9
		c-1.1-0.8-2-1.8-2.7-3.1c-0.7-1.2-1-2.8-1-4.7c0-1.3,0.3-2.6,0.8-3.9c0.6-1.3,1.4-2.4,2.5-3.3c1.1-1,2.5-1.7,4.1-2.3
		c1.7-0.6,3.6-0.9,5.7-0.9c2.2,0,4.1,0.3,5.8,0.9c1.6,0.6,3,1.4,4.1,2.5c1.1,1.1,1.9,2.3,2.4,3.7c0.5,1.4,0.8,2.9,0.8,4.5h-3.5
		c0-1.5-0.3-2.8-0.8-3.8c-0.5-1.1-1.2-2-2.1-2.6c-0.9-0.7-1.9-1.2-3.1-1.5c-1.2-0.3-2.3-0.5-3.6-0.5c-1.9,0-3.4,0.3-4.7,0.8
		c-1.3,0.5-2.3,1.2-3.1,2c-0.8,0.8-1.3,1.7-1.6,2.8c-0.3,1-0.3,2-0.2,3c0.2,1.3,0.7,2.3,1.5,3s1.8,1.4,2.9,1.9
		c1.2,0.5,2.4,0.9,3.8,1.2c1.4,0.3,2.8,0.6,4.2,1c1.4,0.3,2.8,0.7,4.2,1.2c1.3,0.5,2.5,1.1,3.6,1.9c1,0.8,1.9,1.8,2.5,3.1
		c0.6,1.2,0.9,2.8,0.9,4.7c0,3.6-1.2,6.4-3.7,8.4c-2.5,2-6,3-10.5,3c-2,0-3.9-0.3-5.6-0.8c-1.7-0.5-3.2-1.3-4.5-2.4
		c-1.3-1.1-2.2-2.4-2.9-3.9c-0.7-1.6-1.1-3.4-1.1-5.5H498.6z"/>
	<path d="M531.6,29.7c0,1.5,0.2,2.9,0.6,4.3c0.4,1.4,1,2.5,1.8,3.5c0.8,1,1.8,1.8,2.9,2.4c1.2,0.6,2.6,0.9,4.1,0.9
		c2.1,0,3.9-0.6,5.5-1.7c1.5-1.1,2.5-2.7,3-4.8h3.6c-0.4,1.3-0.9,2.6-1.6,3.7c-0.6,1.1-1.5,2.1-2.4,3c-1,0.8-2.1,1.5-3.5,2
		c-1.3,0.5-2.9,0.7-4.6,0.7c-2.2,0-4.2-0.4-5.8-1.1s-3-1.8-4-3.1c-1-1.3-1.8-2.9-2.3-4.6c-0.5-1.8-0.8-3.7-0.8-5.8
		c0-2.1,0.3-4,0.9-5.8c0.6-1.8,1.4-3.4,2.5-4.7c1.1-1.4,2.4-2.4,4-3.2c1.6-0.8,3.4-1.2,5.4-1.2c3.9,0,6.9,1.3,9.1,4
		c2.2,2.6,3.3,6.5,3.2,11.5H531.6z M549.9,27c0-1.4-0.2-2.7-0.6-3.9c-0.4-1.2-0.9-2.2-1.7-3.1c-0.7-0.9-1.7-1.6-2.8-2.1
		c-1.1-0.5-2.4-0.8-3.8-0.8c-1.4,0-2.7,0.3-3.8,0.8c-1.1,0.5-2,1.3-2.8,2.2c-0.8,0.9-1.4,1.9-1.9,3.1s-0.8,2.4-0.9,3.8H549.9z
		 M537.7,11.9l6-7.5h4.2l-7.4,7.5H537.7z"/>
	<path d="M562.9,42.9h-3.2v-28h3.2v3.9c1.3-1.4,2.6-2.5,4-3.3c1.4-0.9,3.1-1.3,5-1.3c1.7,0,3.3,0.3,4.8,0.9c1.5,0.6,2.7,1.6,3.7,3.1
		c0.7,1,1.1,2,1.2,3.1c0.1,1.1,0.2,2.2,0.2,3.3v18.3h-3.2V24.6c0-2.5-0.6-4.4-1.7-5.7c-1.1-1.3-3-1.9-5.6-1.9c-1,0-1.9,0.2-2.8,0.5
		c-0.8,0.3-1.6,0.7-2.2,1.2c-0.7,0.5-1.2,1.1-1.7,1.7c-0.5,0.6-0.8,1.3-1.1,2.1c-0.3,0.9-0.5,1.8-0.6,2.6c-0.1,0.8-0.1,1.7-0.1,2.7
		V42.9z"/>
	<path d="M602.5,26.6c0.6-0.1,1.3-0.2,2.2-0.3c0.8-0.1,1.5-0.3,2.1-0.6c0.5-0.3,0.9-0.7,1-1.3c0.1-0.6,0.2-1.1,0.2-1.6
		c0-1.7-0.5-3-1.6-4.1c-1.1-1.1-2.9-1.6-5.4-1.6c-1.1,0-2.1,0.1-3.1,0.3c-0.9,0.2-1.8,0.5-2.5,1c-0.7,0.5-1.3,1.1-1.7,1.9
		s-0.7,1.8-0.9,3.1h-3.3c0.1-1.7,0.5-3.1,1.1-4.2c0.6-1.2,1.5-2.1,2.5-2.9c1-0.7,2.2-1.3,3.6-1.6c1.3-0.3,2.8-0.5,4.3-0.5
		c1.4,0,2.7,0.2,4,0.5c1.2,0.3,2.3,0.8,3.2,1.5c0.9,0.7,1.6,1.6,2.2,2.7c0.5,1.1,0.8,2.5,0.8,4.1v15.2c0,1.3,0.2,2.1,0.7,2.4
		c0.4,0.3,1.4,0.3,2.7-0.2v2.5c-0.3,0.1-0.6,0.2-1.1,0.3c-0.5,0.1-1,0.2-1.4,0.2c-0.5,0-1-0.1-1.5-0.2c-0.5-0.1-1-0.2-1.3-0.5
		s-0.6-0.6-0.8-1c-0.2-0.4-0.3-0.8-0.4-1.2c-0.1-0.4-0.1-0.9-0.1-1.4c-1.4,1.5-2.9,2.7-4.7,3.5s-3.7,1.2-5.7,1.2
		c-1.2,0-2.4-0.2-3.5-0.5s-2.1-0.8-3-1.5c-0.9-0.7-1.5-1.5-2.1-2.5c-0.5-1-0.8-2.2-0.8-3.5c0-4.8,3.3-7.6,9.8-8.4L602.5,26.6z
		 M608,28.2c-1.4,0.6-2.8,1-4.2,1.1c-1.4,0.2-2.8,0.3-4.2,0.4c-2.5,0.2-4.4,0.7-5.8,1.7c-1.4,0.9-2.1,2.4-2.1,4.3
		c0,0.9,0.2,1.6,0.5,2.2c0.3,0.6,0.8,1.2,1.3,1.6c0.6,0.4,1.2,0.7,1.9,0.9c0.7,0.2,1.5,0.3,2.2,0.3c1.3,0,2.6-0.2,3.8-0.5
		s2.3-0.8,3.3-1.5c1-0.7,1.7-1.5,2.3-2.5c0.6-1,0.9-2.2,0.9-3.6V28.2z"/>
	<path d="M629.5,43c-0.4,0.1-0.9,0.2-1.6,0.4c-0.6,0.2-1.4,0.3-2.2,0.3c-1.6,0-2.9-0.4-3.7-1.2c-0.8-0.8-1.3-2.3-1.3-4.3V17.6h-3.9
		v-2.7h3.9V7.1h3.2v7.8h5.2v2.7h-5.2v19.2c0,0.7,0,1.3,0.1,1.8c0,0.5,0.1,0.9,0.3,1.2c0.2,0.3,0.5,0.6,0.8,0.7
		c0.4,0.1,0.9,0.2,1.6,0.2c0.4,0,0.9,0,1.3-0.1c0.5-0.1,0.9-0.2,1.3-0.3V43z"/>
</g>
</svg>
