<?xml version="1.0" encoding="utf-8"?>
<!-- Generator: Adobe Illustrator 21.1.0, SVG Export Plug-In . SVG Version: 6.00 Build 0)  -->
<svg version="1.1" id="Layer_1" xmlns="http://www.w3.org/2000/svg" xmlns:xlink="http://www.w3.org/1999/xlink" x="0px" y="0px"
	 viewBox="0 0 380.6 89.6" style="enable-background:new 0 0 380.6 89.6;" xml:space="preserve">
<style type="text/css">
	.st0{enable-background:new    ;}
	.st1{fill:#231F20;}
	.st2{fill:#BED631;}
	.st3{fill:#F68B20;}
	.st4{fill:#00AEEF;}
	.st5{fill:#932783;}
	.st6{fill:#F7941D;}
	.st7{fill:#ED1C24;}
	.st8{fill:#07B261;}
	.st9{fill:#60499D;}
	.st10{fill:#ED136A;}
	.st11{fill:#8B1820;}
	.st12{fill:#00939E;}
	.st13{fill:#27B4E9;}
	.st14{fill:#007B8E;}
	.st15{fill:#FFFFFF;}
</style>
<title>logo-eng</title>
<g class="st0">
	<path class="st1" d="M112.5,36.5V23.1h5.7c0.6,0,1.2,0.1,1.7,0.4c0.5,0.3,1,0.6,1.3,1s0.7,0.9,0.9,1.4c0.2,0.5,0.3,1.1,0.3,1.6
		c0,0.6-0.1,1.1-0.3,1.6c-0.2,0.5-0.5,1-0.8,1.4c-0.4,0.4-0.8,0.7-1.3,1s-1.1,0.4-1.7,0.4h-3.2v4.5H112.5z M115.1,29.7h3
		c0.5,0,0.9-0.2,1.2-0.6c0.3-0.4,0.5-0.9,0.5-1.6c0-0.3,0-0.6-0.2-0.9c-0.1-0.3-0.2-0.5-0.4-0.7c-0.2-0.2-0.4-0.3-0.6-0.4
		c-0.2-0.1-0.4-0.1-0.7-0.1h-2.9V29.7z"/>
	<path class="st1" d="M124.2,36.5V23.1h5.9c0.6,0,1.2,0.1,1.7,0.4c0.5,0.3,1,0.6,1.3,1s0.7,0.9,0.9,1.4c0.2,0.5,0.3,1.1,0.3,1.6
		c0,0.9-0.2,1.7-0.6,2.4c-0.4,0.7-1,1.2-1.8,1.5l3,5h-2.9l-2.7-4.5h-2.6v4.5H124.2z M126.8,29.7h3.3c0.2,0,0.5-0.1,0.7-0.2
		c0.2-0.1,0.4-0.3,0.5-0.5s0.3-0.4,0.4-0.7c0.1-0.3,0.1-0.5,0.1-0.8c0-0.3-0.1-0.6-0.2-0.9c-0.1-0.3-0.2-0.5-0.4-0.7
		c-0.2-0.2-0.4-0.3-0.6-0.5c-0.2-0.1-0.4-0.2-0.7-0.2h-3.1V29.7z"/>
	<path class="st1" d="M136.8,36.5V23.1h2.6v13.4H136.8z"/>
	<path class="st1" d="M144.7,27.9v8.6h-2.6V23.1h2l7,8.8v-8.8h2.6v13.3h-2.1L144.7,27.9z"/>
	<path class="st1" d="M166.5,25.4h-4.3v11.1h-2.6V25.4h-4.3v-2.3h11.1V25.4z"/>
	<path class="st1" d="M168.2,36.5V23.1h2.6v13.4H168.2z"/>
	<path class="st1" d="M176.1,27.9v8.6h-2.6V23.1h2l7,8.8v-8.8h2.6v13.3H183L176.1,27.9z"/>
	<path class="st1" d="M197.2,35c-1.1,1.1-2.3,1.6-3.7,1.6c-0.9,0-1.7-0.2-2.5-0.5c-0.8-0.4-1.4-0.8-2-1.4c-0.6-0.6-1-1.3-1.4-2.2
		c-0.3-0.8-0.5-1.7-0.5-2.7c0-0.9,0.2-1.8,0.5-2.6c0.3-0.8,0.8-1.5,1.4-2.1c0.6-0.6,1.3-1.1,2.1-1.4c0.8-0.4,1.7-0.5,2.6-0.5
		c1.3,0,2.3,0.3,3.2,0.8c0.9,0.5,1.6,1.2,2,2.1l-1.9,1.4c-0.3-0.7-0.8-1.2-1.4-1.5c-0.6-0.4-1.3-0.5-2-0.5c-0.6,0-1.1,0.1-1.6,0.4
		s-0.9,0.6-1.2,1s-0.6,0.9-0.8,1.4c-0.2,0.5-0.3,1.1-0.3,1.7c0,0.6,0.1,1.2,0.3,1.8c0.2,0.5,0.5,1,0.8,1.4c0.4,0.4,0.8,0.7,1.3,1
		s1,0.3,1.6,0.3c1.3,0,2.5-0.6,3.5-1.8v-0.9h-2.7v-1.9h4.8v6.9h-2.1V35z"/>
	<path class="st1" d="M214,26.6c-0.1-0.1-0.2-0.2-0.5-0.4c-0.2-0.2-0.5-0.3-0.8-0.4c-0.3-0.1-0.7-0.3-1.1-0.4s-0.8-0.2-1.2-0.2
		c-0.7,0-1.2,0.1-1.6,0.4c-0.4,0.3-0.5,0.6-0.5,1.1c0,0.3,0.1,0.5,0.2,0.7c0.1,0.2,0.3,0.3,0.6,0.5c0.3,0.1,0.6,0.3,1,0.4
		c0.4,0.1,0.8,0.2,1.3,0.4c0.7,0.2,1.2,0.4,1.8,0.6c0.5,0.2,1,0.5,1.4,0.8c0.4,0.3,0.7,0.7,0.9,1.1c0.2,0.4,0.3,0.9,0.3,1.6
		c0,0.7-0.1,1.3-0.4,1.8c-0.3,0.5-0.6,0.9-1.1,1.2s-1,0.5-1.6,0.7c-0.6,0.1-1.2,0.2-1.9,0.2c-1,0-2-0.2-3-0.5
		c-1-0.3-1.9-0.7-2.6-1.3l1.1-2.2c0.1,0.1,0.3,0.3,0.6,0.4c0.3,0.2,0.6,0.4,1,0.5s0.8,0.3,1.3,0.5c0.5,0.1,1,0.2,1.5,0.2
		c1.4,0,2.1-0.5,2.1-1.4c0-0.3-0.1-0.5-0.2-0.7c-0.2-0.2-0.4-0.4-0.7-0.5c-0.3-0.2-0.7-0.3-1.1-0.4c-0.4-0.1-0.9-0.3-1.4-0.4
		c-0.6-0.2-1.2-0.4-1.7-0.6c-0.5-0.2-0.9-0.5-1.2-0.7s-0.5-0.6-0.7-1c-0.2-0.4-0.2-0.8-0.2-1.3c0-0.7,0.1-1.3,0.4-1.8
		c0.3-0.5,0.6-1,1-1.3c0.4-0.4,1-0.6,1.6-0.8c0.6-0.2,1.2-0.3,1.9-0.3c0.9,0,1.8,0.1,2.6,0.4c0.8,0.3,1.5,0.6,2.1,1L214,26.6z"/>
	<path class="st1" d="M226.9,34.2v2.3h-9.3V23.1h9.1v2.3h-6.5v3.2h5.6v2.1h-5.6v3.5H226.9z"/>
</g>
<g class="st0">
	<path class="st1" d="M228.9,36.5V23.1h5.9c0.6,0,1.2,0.1,1.7,0.4c0.5,0.3,1,0.6,1.3,1c0.4,0.4,0.7,0.9,0.9,1.4
		c0.2,0.5,0.3,1.1,0.3,1.6c0,0.9-0.2,1.7-0.6,2.4c-0.4,0.7-1,1.2-1.8,1.5l3,5h-2.9L234,32h-2.6v4.5H228.9z M231.5,29.7h3.3
		c0.2,0,0.5-0.1,0.7-0.2c0.2-0.1,0.4-0.3,0.5-0.5s0.3-0.4,0.4-0.7c0.1-0.3,0.1-0.5,0.1-0.8c0-0.3-0.1-0.6-0.2-0.9
		c-0.1-0.3-0.2-0.5-0.4-0.7c-0.2-0.2-0.4-0.3-0.6-0.5c-0.2-0.1-0.4-0.2-0.7-0.2h-3.1V29.7z"/>
</g>
<g class="st0">
	<path class="st1" d="M242.4,23.1l3.6,10.1l3.6-10.1h2.7l-5.2,13.4H245l-5.3-13.4H242.4z"/>
	<path class="st1" d="M253.8,36.5V23.1h2.6v13.4H253.8z"/>
	<path class="st1" d="M258.4,29.7c0-0.8,0.1-1.6,0.4-2.4c0.3-0.8,0.7-1.5,1.3-2.1c0.6-0.6,1.3-1.1,2.1-1.5c0.8-0.4,1.7-0.6,2.8-0.6
		c1.2,0,2.3,0.3,3.2,0.8c0.9,0.5,1.6,1.2,2,2.1l-2,1.4c-0.2-0.4-0.4-0.7-0.6-1s-0.5-0.5-0.8-0.6c-0.3-0.2-0.6-0.3-0.9-0.3
		c-0.3-0.1-0.6-0.1-0.9-0.1c-0.7,0-1.2,0.1-1.7,0.4c-0.5,0.3-0.9,0.6-1.2,1c-0.3,0.4-0.6,0.9-0.7,1.4s-0.2,1.1-0.2,1.6
		c0,0.6,0.1,1.2,0.3,1.7c0.2,0.5,0.5,1,0.8,1.4c0.3,0.4,0.8,0.7,1.2,1c0.5,0.3,1,0.4,1.6,0.4c0.3,0,0.6,0,0.9-0.1s0.6-0.2,0.9-0.4
		c0.3-0.2,0.6-0.4,0.8-0.6c0.3-0.3,0.5-0.6,0.6-0.9l2.1,1.2c-0.2,0.5-0.5,0.9-0.9,1.3c-0.4,0.4-0.8,0.7-1.3,1
		c-0.5,0.3-1,0.5-1.6,0.6c-0.6,0.1-1.1,0.2-1.7,0.2c-1,0-1.8-0.2-2.6-0.6c-0.8-0.4-1.5-0.9-2-1.6c-0.6-0.6-1-1.4-1.3-2.2
		C258.5,31.4,258.4,30.6,258.4,29.7z"/>
</g>
<g class="st0">
	<path class="st1" d="M281.4,34.2v2.3h-9.3V23.1h9.1v2.3h-6.5v3.2h5.6v2.1h-5.6v3.5H281.4z"/>
</g>
<g class="st0">
	<path class="st1" d="M291.1,26.6c-0.1-0.1-0.2-0.2-0.5-0.4c-0.2-0.2-0.5-0.3-0.8-0.4c-0.3-0.1-0.7-0.3-1.1-0.4
		c-0.4-0.1-0.8-0.2-1.2-0.2c-0.7,0-1.2,0.1-1.6,0.4c-0.4,0.3-0.5,0.6-0.5,1.1c0,0.3,0.1,0.5,0.2,0.7s0.3,0.3,0.6,0.5
		c0.3,0.1,0.6,0.3,1,0.4c0.4,0.1,0.8,0.2,1.3,0.4c0.7,0.2,1.2,0.4,1.8,0.6c0.5,0.2,1,0.5,1.4,0.8c0.4,0.3,0.7,0.7,0.9,1.1
		c0.2,0.4,0.3,0.9,0.3,1.6c0,0.7-0.1,1.3-0.4,1.8s-0.6,0.9-1.1,1.2c-0.5,0.3-1,0.5-1.6,0.7c-0.6,0.1-1.2,0.2-1.9,0.2
		c-1,0-2-0.2-3-0.5c-1-0.3-1.9-0.7-2.6-1.3l1.1-2.2c0.1,0.1,0.3,0.3,0.6,0.4s0.6,0.4,1,0.5c0.4,0.2,0.8,0.3,1.3,0.5
		c0.5,0.1,1,0.2,1.5,0.2c1.4,0,2.1-0.5,2.1-1.4c0-0.3-0.1-0.5-0.2-0.7c-0.2-0.2-0.4-0.4-0.7-0.5c-0.3-0.2-0.7-0.3-1.1-0.4
		c-0.4-0.1-0.9-0.3-1.4-0.4c-0.6-0.2-1.2-0.4-1.7-0.6s-0.9-0.5-1.2-0.7c-0.3-0.3-0.5-0.6-0.7-1c-0.2-0.4-0.2-0.8-0.2-1.3
		c0-0.7,0.1-1.3,0.4-1.8c0.2-0.5,0.6-1,1-1.3c0.4-0.4,1-0.6,1.6-0.8c0.6-0.2,1.2-0.3,1.9-0.3c0.9,0,1.8,0.1,2.6,0.4s1.5,0.6,2.1,1
		L291.1,26.6z"/>
</g>
<g class="st0">
	<path class="st1" d="M120.5,46.6c-0.1-0.1-0.2-0.2-0.5-0.4c-0.2-0.2-0.5-0.3-0.8-0.4c-0.3-0.1-0.7-0.3-1.1-0.4
		c-0.4-0.1-0.8-0.2-1.2-0.2c-0.7,0-1.2,0.1-1.6,0.4c-0.4,0.3-0.5,0.6-0.5,1.1c0,0.3,0.1,0.5,0.2,0.7c0.1,0.2,0.3,0.3,0.6,0.5
		c0.3,0.1,0.6,0.3,1,0.4c0.4,0.1,0.8,0.2,1.3,0.4c0.7,0.2,1.2,0.4,1.8,0.6c0.5,0.2,1,0.5,1.4,0.8c0.4,0.3,0.7,0.7,0.9,1.1
		s0.3,0.9,0.3,1.6c0,0.7-0.1,1.3-0.4,1.8c-0.3,0.5-0.6,0.9-1.1,1.2c-0.5,0.3-1,0.5-1.6,0.7c-0.6,0.1-1.2,0.2-1.9,0.2
		c-1,0-2-0.2-3-0.5c-1-0.3-1.9-0.7-2.6-1.3l1.1-2.2c0.1,0.1,0.3,0.3,0.6,0.4c0.3,0.2,0.6,0.4,1,0.5c0.4,0.2,0.8,0.3,1.3,0.5
		c0.5,0.1,1,0.2,1.5,0.2c1.4,0,2.1-0.5,2.1-1.4c0-0.3-0.1-0.5-0.2-0.7c-0.2-0.2-0.4-0.4-0.7-0.5c-0.3-0.2-0.7-0.3-1.1-0.4
		c-0.4-0.1-0.9-0.3-1.4-0.4c-0.6-0.2-1.2-0.4-1.7-0.6c-0.5-0.2-0.9-0.5-1.2-0.7c-0.3-0.3-0.5-0.6-0.7-1c-0.2-0.4-0.2-0.8-0.2-1.3
		c0-0.7,0.1-1.3,0.4-1.8c0.3-0.5,0.6-1,1-1.3c0.4-0.4,1-0.6,1.6-0.8c0.6-0.2,1.2-0.3,1.9-0.3c0.9,0,1.8,0.1,2.6,0.4
		c0.8,0.3,1.5,0.6,2.1,1L120.5,46.6z"/>
	<path class="st1" d="M133.3,54.2v2.3h-9.3V43.1h9.1v2.3h-6.5v3.2h5.6v2.1h-5.6v3.5H133.3z"/>
</g>
<g class="st0">
	<path class="st1" d="M135.4,56.5V43.1h5.9c0.6,0,1.2,0.1,1.7,0.4c0.5,0.3,1,0.6,1.3,1s0.7,0.9,0.9,1.4c0.2,0.5,0.3,1.1,0.3,1.6
		c0,0.9-0.2,1.7-0.6,2.4c-0.4,0.7-1,1.2-1.8,1.5l3,5h-2.9l-2.7-4.5H138v4.5H135.4z M138,49.7h3.3c0.2,0,0.5-0.1,0.7-0.2
		c0.2-0.1,0.4-0.3,0.5-0.5c0.2-0.2,0.3-0.4,0.4-0.7s0.1-0.5,0.1-0.8c0-0.3-0.1-0.6-0.2-0.9c-0.1-0.3-0.2-0.5-0.4-0.7
		c-0.2-0.2-0.4-0.3-0.6-0.5c-0.2-0.1-0.4-0.2-0.7-0.2H138V49.7z"/>
</g>
<g class="st0">
	<path class="st1" d="M148.9,43.1l3.6,10.1l3.6-10.1h2.7l-5.2,13.4h-2.2l-5.3-13.4H148.9z"/>
	<path class="st1" d="M160.3,56.5V43.1h2.6v13.4H160.3z"/>
	<path class="st1" d="M164.9,49.7c0-0.8,0.1-1.6,0.4-2.4c0.3-0.8,0.7-1.5,1.3-2.1c0.6-0.6,1.3-1.1,2.1-1.5c0.8-0.4,1.7-0.6,2.8-0.6
		c1.2,0,2.3,0.3,3.2,0.8c0.9,0.5,1.6,1.2,2,2.1l-2,1.4c-0.2-0.4-0.4-0.7-0.6-1c-0.3-0.3-0.5-0.5-0.8-0.6c-0.3-0.2-0.6-0.3-0.9-0.3
		c-0.3-0.1-0.6-0.1-0.9-0.1c-0.7,0-1.2,0.1-1.7,0.4c-0.5,0.3-0.9,0.6-1.2,1s-0.6,0.9-0.7,1.4s-0.2,1.1-0.2,1.6
		c0,0.6,0.1,1.2,0.3,1.7c0.2,0.5,0.5,1,0.8,1.4s0.8,0.7,1.2,1c0.5,0.3,1,0.4,1.6,0.4c0.3,0,0.6,0,0.9-0.1c0.3-0.1,0.6-0.2,0.9-0.4
		c0.3-0.2,0.6-0.4,0.8-0.6c0.3-0.3,0.5-0.6,0.6-0.9l2.1,1.2c-0.2,0.5-0.5,0.9-0.9,1.3s-0.8,0.7-1.3,1s-1,0.5-1.6,0.6
		c-0.6,0.1-1.1,0.2-1.7,0.2c-1,0-1.8-0.2-2.6-0.6c-0.8-0.4-1.5-0.9-2-1.6s-1-1.4-1.3-2.2C165,51.4,164.9,50.6,164.9,49.7z"/>
</g>
<g class="st0">
	<path class="st1" d="M187.8,54.2v2.3h-9.3V43.1h9.1v2.3h-6.5v3.2h5.6v2.1h-5.6v3.5H187.8z"/>
</g>
<g class="st0">
	<path class="st1" d="M197.6,46.6c-0.1-0.1-0.2-0.2-0.5-0.4c-0.2-0.2-0.5-0.3-0.8-0.4c-0.3-0.1-0.7-0.3-1.1-0.4s-0.8-0.2-1.2-0.2
		c-0.7,0-1.2,0.1-1.6,0.4c-0.4,0.3-0.5,0.6-0.5,1.1c0,0.3,0.1,0.5,0.2,0.7c0.1,0.2,0.3,0.3,0.6,0.5c0.3,0.1,0.6,0.3,1,0.4
		c0.4,0.1,0.8,0.2,1.3,0.4c0.7,0.2,1.2,0.4,1.8,0.6c0.5,0.2,1,0.5,1.4,0.8c0.4,0.3,0.7,0.7,0.9,1.1c0.2,0.4,0.3,0.9,0.3,1.6
		c0,0.7-0.1,1.3-0.4,1.8c-0.3,0.5-0.6,0.9-1.1,1.2c-0.5,0.3-1,0.5-1.6,0.7s-1.2,0.2-1.9,0.2c-1,0-2-0.2-3-0.5
		c-1-0.3-1.9-0.7-2.6-1.3l1.1-2.2c0.1,0.1,0.3,0.3,0.6,0.4c0.3,0.2,0.6,0.4,1,0.5s0.8,0.3,1.3,0.5c0.5,0.1,1,0.2,1.5,0.2
		c1.4,0,2.1-0.5,2.1-1.4c0-0.3-0.1-0.5-0.2-0.7c-0.2-0.2-0.4-0.4-0.7-0.5c-0.3-0.2-0.7-0.3-1.1-0.4c-0.4-0.1-0.9-0.3-1.4-0.4
		c-0.6-0.2-1.2-0.4-1.7-0.6c-0.5-0.2-0.9-0.5-1.2-0.7c-0.3-0.3-0.5-0.6-0.7-1c-0.2-0.4-0.2-0.8-0.2-1.3c0-0.7,0.1-1.3,0.4-1.8
		c0.3-0.5,0.6-1,1-1.3c0.4-0.4,1-0.6,1.6-0.8c0.6-0.2,1.2-0.3,1.9-0.3c0.9,0,1.8,0.1,2.6,0.4c0.8,0.3,1.5,0.6,2.1,1L197.6,46.6z"/>
	<path class="st1" d="M205.6,56.5V43.1h4.9c1.1,0,2,0.2,2.9,0.5c0.8,0.4,1.5,0.8,2.1,1.4c0.6,0.6,1,1.3,1.2,2.1
		c0.3,0.8,0.4,1.7,0.4,2.6c0,1-0.2,1.9-0.5,2.8s-0.7,1.5-1.3,2.1c-0.6,0.6-1.3,1-2.1,1.4c-0.8,0.3-1.7,0.5-2.7,0.5H205.6z
		 M214.5,49.8c0-0.6-0.1-1.2-0.3-1.8c-0.2-0.5-0.4-1-0.8-1.4s-0.8-0.7-1.3-0.9c-0.5-0.2-1.1-0.3-1.7-0.3h-2.3v8.8h2.3
		c0.6,0,1.2-0.1,1.7-0.3c0.5-0.2,0.9-0.5,1.2-0.9c0.3-0.4,0.6-0.9,0.8-1.4C214.4,51,214.5,50.4,214.5,49.8z"/>
	<path class="st1" d="M219,47.5l0.4-2.3h-0.8v-2.5h2.5v2.6l-0.7,2.3H219z"/>
	<path class="st1" d="M223.6,56.5V43.1h2.6v13.4H223.6z"/>
	<path class="st1" d="M239.9,56.5v-8.8l-3.4,6.6H235l-3.4-6.6v8.8H229V43.1h2.8l4,7.6l4-7.6h2.8v13.4H239.9z"/>
	<path class="st1" d="M245.2,56.5V43.1h5.7c0.6,0,1.2,0.1,1.7,0.4c0.5,0.3,1,0.6,1.3,1c0.4,0.4,0.7,0.9,0.9,1.4
		c0.2,0.5,0.3,1.1,0.3,1.6c0,0.6-0.1,1.1-0.3,1.6c-0.2,0.5-0.5,1-0.8,1.4c-0.4,0.4-0.8,0.7-1.3,1c-0.5,0.2-1.1,0.4-1.7,0.4h-3.2v4.5
		H245.2z M247.8,49.7h3c0.5,0,0.9-0.2,1.2-0.6s0.5-0.9,0.5-1.6c0-0.3,0-0.6-0.2-0.9s-0.2-0.5-0.4-0.7c-0.2-0.2-0.4-0.3-0.6-0.4
		c-0.2-0.1-0.4-0.1-0.7-0.1h-2.9V49.7z"/>
	<path class="st1" d="M257,56.5V43.1h5.9c0.6,0,1.2,0.1,1.7,0.4c0.5,0.3,1,0.6,1.3,1c0.4,0.4,0.7,0.9,0.9,1.4
		c0.2,0.5,0.3,1.1,0.3,1.6c0,0.9-0.2,1.7-0.6,2.4s-1,1.2-1.8,1.5l3,5h-2.9l-2.7-4.5h-2.6v4.5H257z M259.6,49.7h3.3
		c0.2,0,0.5-0.1,0.7-0.2s0.4-0.3,0.5-0.5c0.2-0.2,0.3-0.4,0.4-0.7s0.1-0.5,0.1-0.8c0-0.3,0-0.6-0.2-0.9s-0.2-0.5-0.4-0.7
		c-0.2-0.2-0.4-0.3-0.6-0.5s-0.4-0.2-0.7-0.2h-3.1V49.7z"/>
</g>
<g class="st0">
	<path class="st1" d="M278.7,54.2v2.3h-9.3V43.1h9.1v2.3h-6.5v3.2h5.6v2.1h-5.6v3.5H278.7z"/>
</g>
<g class="st0">
	<path class="st1" d="M288.5,46.6c-0.1-0.1-0.2-0.2-0.5-0.4c-0.2-0.2-0.5-0.3-0.8-0.4c-0.3-0.1-0.7-0.3-1.1-0.4
		c-0.4-0.1-0.8-0.2-1.2-0.2c-0.7,0-1.2,0.1-1.6,0.4c-0.4,0.3-0.5,0.6-0.5,1.1c0,0.3,0.1,0.5,0.2,0.7s0.3,0.3,0.6,0.5
		c0.3,0.1,0.6,0.3,1,0.4s0.8,0.2,1.3,0.4c0.7,0.2,1.2,0.4,1.8,0.6c0.5,0.2,1,0.5,1.4,0.8c0.4,0.3,0.7,0.7,0.9,1.1
		c0.2,0.4,0.3,0.9,0.3,1.6c0,0.7-0.1,1.3-0.4,1.8s-0.6,0.9-1.1,1.2c-0.5,0.3-1,0.5-1.6,0.7c-0.6,0.1-1.2,0.2-1.9,0.2
		c-1,0-2-0.2-3-0.5c-1-0.3-1.9-0.7-2.6-1.3l1.1-2.2c0.1,0.1,0.3,0.3,0.6,0.4s0.6,0.4,1,0.5c0.4,0.2,0.8,0.3,1.3,0.5
		c0.5,0.1,1,0.2,1.5,0.2c1.4,0,2.1-0.5,2.1-1.4c0-0.3-0.1-0.5-0.2-0.7s-0.4-0.4-0.7-0.5s-0.7-0.3-1.1-0.4s-0.9-0.3-1.4-0.4
		c-0.6-0.2-1.2-0.4-1.7-0.6s-0.9-0.5-1.2-0.7c-0.3-0.3-0.5-0.6-0.7-1c-0.2-0.4-0.2-0.8-0.2-1.3c0-0.7,0.1-1.3,0.4-1.8
		c0.2-0.5,0.6-1,1-1.3c0.4-0.4,1-0.6,1.6-0.8c0.6-0.2,1.2-0.3,1.9-0.3c0.9,0,1.8,0.1,2.6,0.4s1.5,0.6,2.1,1L288.5,46.6z"/>
	<path class="st1" d="M300,46.6c-0.1-0.1-0.2-0.2-0.5-0.4c-0.2-0.2-0.5-0.3-0.8-0.4c-0.3-0.1-0.7-0.3-1.1-0.4s-0.8-0.2-1.2-0.2
		c-0.7,0-1.2,0.1-1.6,0.4c-0.4,0.3-0.5,0.6-0.5,1.1c0,0.3,0.1,0.5,0.2,0.7c0.1,0.2,0.3,0.3,0.6,0.5c0.3,0.1,0.6,0.3,1,0.4
		c0.4,0.1,0.8,0.2,1.3,0.4c0.7,0.2,1.2,0.4,1.8,0.6c0.5,0.2,1,0.5,1.4,0.8c0.4,0.3,0.7,0.7,0.9,1.1c0.2,0.4,0.3,0.9,0.3,1.6
		c0,0.7-0.1,1.3-0.4,1.8c-0.3,0.5-0.6,0.9-1.1,1.2c-0.5,0.3-1,0.5-1.6,0.7s-1.2,0.2-1.9,0.2c-1,0-2-0.2-3-0.5
		c-1-0.3-1.9-0.7-2.6-1.3l1.1-2.2c0.1,0.1,0.3,0.3,0.6,0.4c0.3,0.2,0.6,0.4,1,0.5s0.8,0.3,1.3,0.5c0.5,0.1,1,0.2,1.5,0.2
		c1.4,0,2.1-0.5,2.1-1.4c0-0.3-0.1-0.5-0.2-0.7c-0.2-0.2-0.4-0.4-0.7-0.5c-0.3-0.2-0.7-0.3-1.1-0.4c-0.4-0.1-0.9-0.3-1.4-0.4
		c-0.6-0.2-1.2-0.4-1.7-0.6c-0.5-0.2-0.9-0.5-1.2-0.7c-0.3-0.3-0.5-0.6-0.7-1c-0.2-0.4-0.2-0.8-0.2-1.3c0-0.7,0.1-1.3,0.4-1.8
		c0.3-0.5,0.6-1,1-1.3c0.4-0.4,1-0.6,1.6-0.8c0.6-0.2,1.2-0.3,1.9-0.3c0.9,0,1.8,0.1,2.6,0.4c0.8,0.3,1.5,0.6,2.1,1L300,46.6z"/>
	<path class="st1" d="M303.6,56.5V43.1h2.6v13.4H303.6z"/>
	<path class="st1" d="M314.7,56.6c-1,0-1.9-0.2-2.7-0.6s-1.5-0.9-2.1-1.5c-0.6-0.6-1-1.4-1.3-2.2c-0.3-0.8-0.5-1.7-0.5-2.5
		c0-0.9,0.2-1.7,0.5-2.6c0.3-0.8,0.8-1.5,1.4-2.2c0.6-0.6,1.3-1.1,2.1-1.5s1.7-0.6,2.6-0.6c1,0,1.8,0.2,2.6,0.6
		c0.8,0.4,1.5,0.9,2,1.6c0.6,0.6,1,1.4,1.3,2.2c0.3,0.8,0.5,1.6,0.5,2.5c0,0.9-0.2,1.7-0.5,2.6s-0.8,1.5-1.4,2.1s-1.3,1.1-2.1,1.5
		C316.5,56.4,315.6,56.6,314.7,56.6z M310.8,49.8c0,0.6,0.1,1.1,0.3,1.7c0.2,0.5,0.4,1,0.8,1.4c0.3,0.4,0.7,0.7,1.2,1
		c0.5,0.2,1,0.4,1.6,0.4c0.6,0,1.2-0.1,1.7-0.4c0.5-0.3,0.9-0.6,1.2-1c0.3-0.4,0.6-0.9,0.8-1.4c0.2-0.5,0.3-1.1,0.3-1.6
		c0-0.6-0.1-1.1-0.3-1.7c-0.2-0.5-0.4-1-0.8-1.4s-0.7-0.7-1.2-1c-0.5-0.2-1-0.4-1.6-0.4c-0.6,0-1.2,0.1-1.7,0.4
		c-0.5,0.3-0.9,0.6-1.2,1c-0.3,0.4-0.6,0.9-0.7,1.4C310.9,48.7,310.8,49.2,310.8,49.8z"/>
	<path class="st1" d="M325.8,47.9v8.6h-2.6V43.1h2l7,8.8v-8.8h2.6v13.3h-2.1L325.8,47.9z"/>
</g>
<polygon id="_Path_" class="st2" points="65.4,44.5 59,29.2 35.1,57.2 "/>
<polygon id="_Path_2" class="st3" points="49.3,10.7 39.1,37.8 59.4,29.2 "/>
<polygon id="_Path_3" class="st4" points="72,12.8 59,28.8 41.7,0 "/>
<polygon id="_Path_4" class="st5" points="73.6,12.1 89.4,45.2 59.4,29.8 "/>
<polygon id="_Path_5" class="st6" points="67.4,46.8 89.4,45.2 60.3,29.8 "/>
<polygon id="_Path_6" class="st7" points="78.4,74.3 76.5,44.4 65.4,44.5 "/>
<path id="_Path_7" class="st2" d="M68.1,85.1l-40.4-30c-0.2-0.1-0.1-0.7,0.2-0.6l66.9,12.9L68.1,85.1z"/>
<polygon id="_Path_8" class="st8" points="78.3,74.3 94.7,67.4 76.5,44.3 "/>
<polygon id="_Path_9" class="st8" points="35.1,57.3 28.7,42 59,29.2 "/>
<polygon id="_Path_10" class="st9" points="0,19.5 22,25.7 16.5,12.3 "/>
<polygon id="_Path_11" class="st10" points="0,19.5 14.6,54.7 22,25.7 "/>
<polygon id="_Path_12" class="st11" points="22,25.7 28.7,42.2 14.6,54.7 "/>
<polygon id="_Path_13" class="st12" points="28.7,42.2 35.1,57.3 14.6,54.7 "/>
<polygon id="_Path_14" class="st13" points="55.3,48.8 78.4,74.3 34.9,57.3 "/>
<polygon id="_Path_15" class="st14" points="65.8,44.1 78.8,73.9 53.9,49.1 "/>
<rect x="36.5" y="19" class="st1" width="40.1" height="52.7"/>
<g class="st0">
	<path class="st1" d="M116.5,71.6c-0.1-0.1-0.2-0.1-0.3-0.2s-0.3-0.2-0.5-0.3c-0.2-0.1-0.4-0.2-0.7-0.2c-0.2-0.1-0.5-0.1-0.7-0.1
		c-0.4,0-0.8,0.1-1,0.2c-0.2,0.2-0.3,0.4-0.3,0.7c0,0.2,0,0.3,0.1,0.4c0.1,0.1,0.2,0.2,0.4,0.3c0.2,0.1,0.4,0.2,0.6,0.2
		c0.2,0.1,0.5,0.1,0.8,0.2c0.4,0.1,0.8,0.2,1.1,0.4c0.3,0.1,0.6,0.3,0.8,0.5c0.2,0.2,0.4,0.4,0.5,0.7s0.2,0.6,0.2,1
		c0,0.4-0.1,0.8-0.3,1.1c-0.2,0.3-0.4,0.6-0.7,0.8c-0.3,0.2-0.6,0.3-1,0.4c-0.4,0.1-0.8,0.1-1.2,0.1c-0.6,0-1.2-0.1-1.9-0.3
		c-0.6-0.2-1.2-0.5-1.6-0.8l0.7-1.4c0.1,0.1,0.2,0.2,0.4,0.3c0.2,0.1,0.4,0.2,0.7,0.3c0.3,0.1,0.5,0.2,0.8,0.3
		c0.3,0.1,0.6,0.1,0.9,0.1c0.9,0,1.3-0.3,1.3-0.9c0-0.2-0.1-0.3-0.2-0.5c-0.1-0.1-0.2-0.2-0.4-0.3c-0.2-0.1-0.4-0.2-0.7-0.3
		c-0.3-0.1-0.6-0.2-0.9-0.3c-0.4-0.1-0.7-0.2-1-0.4c-0.3-0.1-0.5-0.3-0.7-0.5c-0.2-0.2-0.3-0.4-0.4-0.6s-0.1-0.5-0.1-0.8
		c0-0.4,0.1-0.8,0.2-1.1s0.4-0.6,0.7-0.8c0.3-0.2,0.6-0.4,1-0.5c0.4-0.1,0.8-0.2,1.2-0.2c0.6,0,1.1,0.1,1.6,0.3
		c0.5,0.2,0.9,0.4,1.3,0.7L116.5,71.6z"/>
	<path class="st1" d="M124.5,76.4v1.4h-5.8v-8.3h5.7v1.4h-4.1v2h3.5v1.3h-3.5v2.2H124.5z"/>
	<path class="st1" d="M127.4,72.5v5.4h-1.6v-8.3h1.3l4.4,5.5v-5.5h1.6v8.3h-1.3L127.4,72.5z"/>
</g>
<g class="st0">
	<path class="st1" d="M137.1,69.5h1.4l3.2,8.3h-1.7l-0.8-2.1h-2.9l-0.8,2.1H134L137.1,69.5z M139,74.6l-1.2-3.3l-1.2,3.3H139z"/>
</g>
<g class="st0">
	<path class="st1" d="M148.1,70.9h-2.7v6.9h-1.6v-6.9h-2.7v-1.4h7V70.9z"/>
	<path class="st1" d="M154.9,76.4v1.4h-5.8v-8.3h5.7v1.4h-4.1v2h3.5v1.3h-3.5v2.2H154.9z"/>
	<path class="st1" d="M158.8,75.3v-1.4h3.6v1.4H158.8z"/>
	<path class="st1" d="M171.7,71.6c-0.1-0.1-0.2-0.1-0.3-0.2s-0.3-0.2-0.5-0.3c-0.2-0.1-0.4-0.2-0.7-0.2c-0.2-0.1-0.5-0.1-0.7-0.1
		c-0.4,0-0.8,0.1-1,0.2c-0.2,0.2-0.3,0.4-0.3,0.7c0,0.2,0,0.3,0.1,0.4c0.1,0.1,0.2,0.2,0.4,0.3c0.2,0.1,0.4,0.2,0.6,0.2
		c0.2,0.1,0.5,0.1,0.8,0.2c0.4,0.1,0.8,0.2,1.1,0.4c0.3,0.1,0.6,0.3,0.8,0.5c0.2,0.2,0.4,0.4,0.5,0.7s0.2,0.6,0.2,1
		c0,0.4-0.1,0.8-0.3,1.1c-0.2,0.3-0.4,0.6-0.7,0.8c-0.3,0.2-0.6,0.3-1,0.4c-0.4,0.1-0.8,0.1-1.2,0.1c-0.6,0-1.2-0.1-1.9-0.3
		c-0.6-0.2-1.2-0.5-1.6-0.8l0.7-1.4c0.1,0.1,0.2,0.2,0.4,0.3c0.2,0.1,0.4,0.2,0.7,0.3c0.3,0.1,0.5,0.2,0.8,0.3
		c0.3,0.1,0.6,0.1,0.9,0.1c0.9,0,1.3-0.3,1.3-0.9c0-0.2-0.1-0.3-0.2-0.5c-0.1-0.1-0.2-0.2-0.4-0.3c-0.2-0.1-0.4-0.2-0.7-0.3
		c-0.3-0.1-0.6-0.2-0.9-0.3c-0.4-0.1-0.7-0.2-1-0.4c-0.3-0.1-0.5-0.3-0.7-0.5c-0.2-0.2-0.3-0.4-0.4-0.6s-0.1-0.5-0.1-0.8
		c0-0.4,0.1-0.8,0.2-1.1s0.4-0.6,0.7-0.8c0.3-0.2,0.6-0.4,1-0.5c0.4-0.1,0.8-0.2,1.2-0.2c0.6,0,1.1,0.1,1.6,0.3
		c0.5,0.2,0.9,0.4,1.3,0.7L171.7,71.6z"/>
	<path class="st1" d="M179.8,76.4v1.4H174v-8.3h5.7v1.4h-4.1v2h3.5v1.3h-3.5v2.2H179.8z M177.3,68.8l-1-0.3L177,67h1.5L177.3,68.8z"
		/>
	<path class="st1" d="M182.7,72.5v5.4H181v-8.3h1.3l4.4,5.5v-5.5h1.6v8.3h-1.3L182.7,72.5z"/>
</g>
<g class="st0">
	<path class="st1" d="M192.4,69.5h1.4l3.2,8.3h-1.7l-0.8-2.1h-2.9l-0.8,2.1h-1.7L192.4,69.5z M194.3,74.6l-1.2-3.3l-1.2,3.3H194.3z"
		/>
</g>
<g class="st0">
	<path class="st1" d="M203.3,70.9h-2.7v6.9h-1.6v-6.9h-2.7v-1.4h7V70.9z"/>
</g>
<rect x="36.5" y="19" class="st15" width="40.1" height="52.7"/>
<path class="st1" d="M26.3,9.1v68.5h56.1V9.1H26.3z M70.3,67.2c-3.1,2.3-7.2,3.5-12.3,3.5c-4.6,0.1-9.1-1.3-12.9-3.9
	c-3.5-2.4-5.6-6.4-5.3-10.6l0.1-0.2h7.5c-0.2,2.5,1,4.9,3,6.4c2.3,1.5,5,2.2,7.7,2.1c2.4,0.1,4.7-0.5,6.8-1.7
	c1.6-1.1,2.5-2.8,2.4-4.7c0-1.8-0.8-3.6-2.2-4.8c-1.4-1.2-4-2.3-7.7-3.3c-5.2-1.4-9.3-3.2-12.1-5.4c-2.8-2.1-4.3-5.4-4.2-8.9
	c0-3.7,1.7-7.2,4.7-9.3c3.1-2.4,7.1-3.7,12.1-3.7c5.1,0,9.3,1.4,12.4,4.2c3,2.5,4.6,6.1,4.5,10l-0.1,0.2h-7.5
	c0.1-2.2-0.8-4.3-2.4-5.8c-1.6-1.5-4-2.2-7-2.2c-2.9,0-5,0.6-6.6,1.9c-1.5,1.1-2.3,2.9-2.3,4.8c0,1.8,1,3.5,2.5,4.4
	c2.6,1.6,5.3,2.7,8.2,3.3c5,1.3,8.9,3.2,11.5,5.6c2.6,2.3,4,5.6,3.9,9.1C75.2,61.6,73.4,65.1,70.3,67.2z"/>
</svg>
