<?xml version="1.0" encoding="utf-8"?>
<!-- Generator: Adobe Illustrator 21.1.0, SVG Export Plug-In . SVG Version: 6.00 Build 0)  -->
<svg version="1.1" id="Layer_1" xmlns="http://www.w3.org/2000/svg" xmlns:xlink="http://www.w3.org/1999/xlink" x="0px" y="0px"
	 viewBox="0 0 303 200" style="enable-background:new 0 0 303 200;" xml:space="preserve">
<metadata><?xpacket begin="﻿" id="W5M0MpCehiHzreSzNTczkc9d"?>
<x:xmpmeta xmlns:x="adobe:ns:meta/" x:xmptk="Adobe XMP Core 5.6-c137 79.159768, 2016/08/11-13:24:42        ">
   <rdf:RDF xmlns:rdf="http://www.w3.org/1999/02/22-rdf-syntax-ns#">
      <rdf:Description rdf:about=""
            xmlns:ExtensisFontSense="http://www.extensis.com/meta/FontSense/">
         <ExtensisFontSense:slug>
            <rdf:Bag>
               <rdf:li>
                  <rdf:Description>
                     <ExtensisFontSense:Family>Raleway</ExtensisFontSense:Family>
                     <ExtensisFontSense:Version>3.000</ExtensisFontSense:Version>
                     <ExtensisFontSense:OutlineFileSize>0</ExtensisFontSense:OutlineFileSize>
                     <ExtensisFontSense:KerningChecksum>0</ExtensisFontSense:KerningChecksum>
                     <ExtensisFontSense:Foundry>--</ExtensisFontSense:Foundry>
                     <ExtensisFontSense:FontKind>OpenType - TT</ExtensisFontSense:FontKind>
                     <ExtensisFontSense:Checksum>3925749211</ExtensisFontSense:Checksum>
                     <ExtensisFontSense:PostScriptName>Raleway-Bold</ExtensisFontSense:PostScriptName>
                     <ExtensisFontSense:FontSense_1.2_Checksum>3925749211</ExtensisFontSense:FontSense_1.2_Checksum>
                  </rdf:Description>
               </rdf:li>
            </rdf:Bag>
         </ExtensisFontSense:slug>
      </rdf:Description>
   </rdf:RDF>
</x:xmpmeta>
                                                                                                    
                                                                                                    
                                                                                                    
                                                                                                    
                                                                                                    
                                                                                                    
                                                                                                    
                                                                                                    
                                                                                                    
                                                                                                    
                                                                                                    
                                                                                                    
                                                                                                    
                                                                                                    
                                                                                                    
                                                                                                    
                                                                                                    
                                                                                                    
                                                                                                    
                                                                                                    
                           
<?xpacket end="w"?></metadata>
<style type="text/css">
	.st0{fill:none;stroke:#808184;stroke-width:21;stroke-linecap:round;stroke-miterlimit:10;}
	.st1{fill:#808184;}
	.st2{fill:#FFFFFF;}
	.st3{font-family:'Raleway-Bold';}
	.st4{font-size:74.9111px;}
	.st5{letter-spacing:-1;}
</style>
<path class="st0" d="M29.3,89.5V60.8c0-4.7,1.9-9.1,5.2-12.4l21.7-21.7c3.3-3.3,7.8-5.2,12.4-5.2h80.4c7.4,0,13.4,6,13.4,13.4v126.3
	c0,7.4-6,13.4-13.4,13.4h-29.6"/>
<path class="st1" d="M46.5,151.8v-48.9c0-0.9,0.7-1.7,1.7-1.7H75c0.9,0,1.7,0.7,1.7,1.7v48.9c0,0.9,0.7,1.7,1.7,1.7h14.8
	c1.4,0,2.2,1.6,1.3,2.7l-31.5,41.2c-0.7,0.9-2,0.9-2.7,0l-31.5-41.2c-0.8-1.1-0.1-2.7,1.3-2.7h14.8
	C45.7,153.5,46.5,152.8,46.5,151.8z"/>
<path class="st1" d="M274.9,126.8H122.7c-9.5,0-17.1-7.7-17.1-17.1V57.3c0-9.5,7.7-17.1,17.1-17.1h152.2c9.5,0,17.1,7.7,17.1,17.1
	v52.4C292,119.2,284.3,126.8,274.9,126.8z"/>
<text transform="matrix(1 0 0 1 129.3042 109.7764)"><tspan x="0" y="0" class="st2 st3 st4 st5">PD</tspan><tspan x="97.3" y="0" class="st2 st3 st4">F</tspan></text>
</svg>
