<svg id="Layer_1" data-name="Layer 1" xmlns="http://www.w3.org/2000/svg" xmlns:xlink="http://www.w3.org/1999/xlink" viewBox="0 0 32.7 26.58"><defs><style>.cls-1{fill:none;}.cls-2{clip-path:url(#clip-path);}.cls-3{fill:#808285;}</style><clipPath id="clip-path" transform="translate(0 0)"><rect class="cls-1" width="32.7" height="26.58"/></clipPath></defs><title>social-icon-twitter</title><g class="cls-2"><path class="cls-3" d="M32.7,3.15A13.37,13.37,0,0,1,28.85,4.2,6.72,6.72,0,0,0,31.8.49a13.41,13.41,0,0,1-4.26,1.63A6.72,6.72,0,0,0,16.1,8.24a19,19,0,0,1-13.83-7,6.72,6.72,0,0,0,2.08,9,6.68,6.68,0,0,1-3-.84v.08A6.71,6.71,0,0,0,6.69,16a6.66,6.66,0,0,1-3,.11,6.72,6.72,0,0,0,6.27,4.66A13.46,13.46,0,0,1,1.6,23.66,13.84,13.84,0,0,1,0,23.56a19,19,0,0,0,10.29,3c12.34,0,19.09-10.22,19.09-19.09,0-.29,0-.58,0-.87A13.66,13.66,0,0,0,32.7,3.15" transform="translate(0 0)"/></g></svg>