<svg id="Layer_1" data-name="Layer 1" xmlns="http://www.w3.org/2000/svg" xmlns:xlink="http://www.w3.org/1999/xlink" viewBox="0 0 29.71 29.71"><defs><style>.cls-1{fill:none;}.cls-2{clip-path:url(#clip-path);}.cls-3{fill:#808285;}</style><clipPath id="clip-path" transform="translate(0 0)"><rect class="cls-1" width="29.71" height="29.71"/></clipPath></defs><title>social-icon-ig</title><g class="cls-2"><path class="cls-3" d="M14.88,9a5.87,5.87,0,0,0-6,5.78,5.88,5.88,0,0,0,6,5.78,5.88,5.88,0,0,0,6-5.78,5.88,5.88,0,0,0-6-5.78m11.47,3.55H23.74a8.68,8.68,0,0,1,.38,2.55,9.1,9.1,0,0,1-9.24,8.95,9.1,9.1,0,0,1-9.24-8.95A8.75,8.75,0,0,1,6,12.56H3.3V25.11a1.18,1.18,0,0,0,1.18,1.18H25.17a1.18,1.18,0,0,0,1.18-1.18ZM21.64,3.3a1.34,1.34,0,0,0-1.34,1.34v3.2a1.34,1.34,0,0,0,1.34,1.34H25a1.34,1.34,0,0,0,1.34-1.34V4.64A1.34,1.34,0,0,0,25,3.3ZM3.81,0H25.9a3.82,3.82,0,0,1,3.81,3.81V25.9a3.82,3.82,0,0,1-3.81,3.81H3.81A3.82,3.82,0,0,1,0,25.9V3.81A3.83,3.83,0,0,1,3.81,0" transform="translate(0 0)"/></g></svg>