<svg id="Layer_1" data-name="Layer 1" xmlns="http://www.w3.org/2000/svg" viewBox="0 0 330.56 252.31"><defs><style>.cls-1{fill:#bed630;}.cls-2{fill:#ec1c24;}.cls-3{fill:#00adee;}.cls-4{fill:#922782;}.cls-5{fill:#f6921e;}.cls-6{fill:#5f499d;}.cls-7{fill:#ec0e69;}.cls-8{fill:#8a1820;}.cls-9{fill:#24b2e7;}.cls-10{fill:#037b8d;}.cls-11{fill:#01939e;}.cls-12{fill:#04b161;}</style></defs><title>texture</title><polygon class="cls-1" points="215.82 155.51 270.18 118.52 200.74 9.76 215.82 155.51"/><polygon class="cls-2" points="142.94 205.48 215.82 155.51 164.25 74.15 142.94 205.48"/><polygon class="cls-3" points="94.83 238.13 231.02 251.69 215.82 155.51 94.83 238.13"/><polygon class="cls-4" points="230.39 252.31 247.93 240.71 299.45 165.75 215.82 155.51 230.39 252.31"/><polygon class="cls-5" points="215.82 155.51 299.45 165.75 312.68 146.5 270.05 118.43 215.82 155.51"/><polygon class="cls-6" points="0 54.88 37.95 115.6 86.44 83.9 0 54.88"/><polygon class="cls-7" points="84.73 0 0 54.88 0 54.88 86.44 83.9 117.38 0 84.73 0"/><polygon class="cls-8" points="117.38 0 86.44 83.9 145.78 44.99 134.55 0 117.38 0"/><path class="cls-1" d="M180.65,0l-9.43.34c-.88,0-1.73,2.15-.87,2.36l32.86,11-2.52-3.94L328.92,39.4l1.64,1.25V0Z"/><polygon class="cls-9" points="328.92 39.4 200.69 9.76 203.21 13.7 247.7 83.28 247.72 83.28 244.41 78.06 330.56 61.47 330.56 56.34 330.56 40.65 328.92 39.4"/><polygon class="cls-10" points="244.41 78.06 247.72 83.28 270.05 118.43 330.56 82.36 330.56 63.57 330.56 61.47 244.41 78.06"/><polygon class="cls-11" points="134.55 0 145.77 44.99 200.75 9.78 181.71 0 134.55 0"/><polygon class="cls-12" points="145.77 44.99 215.82 155.51 200.75 9.78 145.77 44.99"/></svg>